<svg width="428" height="84" viewBox="0 0 428 84" fill="none" xmlns="http://www.w3.org/2000/svg">
<rect x="245.643" y="47.7222" width="113.634" height="21.6972" rx="10.8486" transform="rotate(-24.8323 245.643 47.7222)" fill="#FA9ABF"/>
<path d="M349.237 14.3546V16.1947L346.134 19.2974H344.234V17.4573L347.336 14.3546H349.237Z" fill="white"/>
<path d="M344.236 8.45861V10.2987L347.339 13.4014H349.238V11.5613L346.136 8.45861H344.236Z" fill="white"/>
<path d="M338.206 14.3561V16.1961L341.309 19.2988H343.209V17.4588L340.107 14.3561H338.206Z" fill="white"/>
<path d="M343.213 8.45861V10.2987L340.111 13.4014H338.211V11.5613L341.314 8.45861H343.213Z" fill="white"/>
<rect x="296.76" y="53.2388" width="113.634" height="21.6972" rx="10.8486" transform="rotate(-24.8323 296.76 53.2388)" fill="#FFD93E"/>
<rect width="113.634" height="21.6972" rx="10.8486" transform="matrix(-0.907541 -0.419964 -0.419964 0.907541 187.505 48.458)" fill="#86BFDC"/>
<path d="M86.5448 17.3986L84.8159 12.0146L90.1999 10.2858L91.9288 15.6697L86.5448 17.3986Z" fill="#ED4D45"/>
<path d="M89.2368 16.5347L91.9297 15.6699L95.2389 17.3705L92.5473 18.2358L89.2368 16.5347Z" fill="#FFD93E"/>
<path d="M86.5444 17.3984L89.2367 16.5349L92.5471 18.2361L89.8549 19.0996L86.5444 17.3984Z" fill="#FFD93E"/>
<path d="M91.0649 12.9771L91.9297 15.6699L95.2389 17.3705L94.3754 14.6782L91.0649 12.9771Z" fill="#FFD93E"/>
<path d="M90.1996 10.2854L91.0649 12.9771L94.3754 14.6782L93.51 11.9865L90.1996 10.2854Z" fill="#FFD93E"/>
<rect width="113.634" height="21.6972" rx="10.8486" transform="matrix(-0.907541 -0.419964 -0.419964 0.907541 131.24 53.2388)" fill="#FF4444"/>
<rect x="27.458" y="17.7222" width="6.80387" height="6.80387" transform="rotate(-24.8323 27.458 17.7222)" fill="white"/>
<circle cx="394.5" cy="19.5" r="4.5" fill="#2A73D1"/>
<rect x="114" y="44" width="40" height="40" fill="#3B9C3D"/>
<path d="M134.503 74.8372L144.837 64.5034L134.503 54.1696L124.169 64.5034L134.503 74.8372Z" fill="#FFD93E"/>
<rect x="154" y="44" width="40" height="40" fill="#FF4444"/>
<rect x="74" y="44" width="40" height="40" fill="#FF4444"/>
<rect x="354" y="44" width="74" height="40" fill="#FF4444"/>
<rect x="274" y="44" width="40" height="40" fill="#86BFDC"/>
<path d="M290.21 67.6968V75.1515L294.213 71.1452V63.6904L290.21 67.6968Z" fill="#FFD93E"/>
<path d="M286.204 71.7026V79.1574L290.21 75.151V67.6963L286.204 71.7026Z" fill="#FFD93E"/>
<path d="M290.21 56.1381V63.5928L294.213 59.5895V52.1348L290.21 56.1381Z" fill="#FFD93E"/>
<path d="M286.204 60.1439V67.5987L290.21 63.5954V56.1406L286.204 60.1439Z" fill="#FFD93E"/>
<path d="M298.22 67.6968V75.1515L294.213 71.1452V63.6904L298.22 67.6968Z" fill="#FFD93E"/>
<path d="M302.223 71.7026V79.1574L298.22 75.151V67.6963L302.223 71.7026Z" fill="#FFD93E"/>
<path d="M298.22 56.1381V63.5928L294.213 59.5895V52.1348L298.22 56.1381Z" fill="#FFD93E"/>
<path d="M302.223 60.1439V67.5987L298.22 63.5954V56.1406L302.223 60.1439Z" fill="#FFD93E"/>
<rect x="314" y="44" width="40" height="40" fill="#FFD93E"/>
<path d="M339.207 71.7964H329.425L334.68 64.3388H344.462L339.207 71.7964Z" fill="#ED4D45"/>
<path d="M333.949 79.2539H324.17L329.425 71.7963H339.204L333.949 79.2539Z" fill="#ED4D45"/>
<path d="M339.207 56.8813H329.425L334.68 64.3389H344.462L339.207 56.8813Z" fill="#ED4D45"/>
<path d="M333.949 49.4233H324.17L329.425 56.8809H339.204L333.949 49.4233Z" fill="#ED4D45"/>
<path fill-rule="evenodd" clip-rule="evenodd" d="M99.2064 71.7962H89.4242L84.1696 64.3388H84.1694L84.1695 64.3387L84.1694 64.3386H84.1696L89.4242 56.8812H99.2064L93.9516 64.3387L99.2064 71.7962ZM104.461 79.2539H94.682L89.4272 71.7963H99.2064L104.461 79.2539ZM104.461 49.4235H94.682L89.4272 56.8811H99.2064L104.461 49.4235Z" fill="#FFD93E"/>
<rect y="44" width="74" height="40" fill="#FA9ABF"/>
<path d="M32.2531 72.5065L23 63.2534L32.2531 54.0003L41.5062 63.2534L32.2531 72.5065Z" fill="#2A73D1"/>
<path d="M36.8804 67.8809L41.5084 63.2528H50.1184L45.4935 67.8809H36.8804Z" fill="white"/>
<path d="M32.2529 72.5059L36.881 67.8809H45.4941L40.866 72.5059H32.2529Z" fill="white"/>
<path d="M36.8804 58.6249L41.5084 63.2529H50.1184L45.4935 58.6249H36.8804Z" fill="white"/>
<path d="M32.2529 54.0001L36.881 58.625H45.4941L40.866 54.0001H32.2529Z" fill="white"/>
<circle cx="393.475" cy="63.4746" r="8.47458" fill="white"/>
<rect x="234" y="44" width="40" height="40" fill="#FFD93E"/>
<path d="M244.846 70.0954H249.258V74.5088L254.002 69.7668L258.742 74.5088V70.0954H263.158L267.898 65.3562L263.158 60.6143H258.742V56.2037L254.002 60.9429L249.258 56.2037V60.6143H244.846L240.102 65.3562L244.846 70.0954Z" fill="#2A73D1"/>
<path d="M184.505 65.7178V69.1101L178.785 74.8301H175.282V71.4378L181.002 65.7178H184.505Z" fill="white"/>
<path d="M175.287 54.8477V58.2399L181.007 63.96H184.508V60.5677L178.788 54.8477H175.287Z" fill="white"/>
<path d="M164.169 65.7207V69.113L169.889 74.833H173.393V71.4408L167.673 65.7207H164.169Z" fill="white"/>
<path d="M173.4 54.8477V58.2399L167.68 63.96H164.179V60.5677L169.899 54.8477H173.4Z" fill="white"/>
<rect x="194" y="44" width="40" height="40" fill="#FA9ABF"/>
<path fill-rule="evenodd" clip-rule="evenodd" d="M208.233 64.3268L214.998 55.5249H227.591L220.826 64.3268H208.233ZM201.458 73.1293L208.222 64.3274H220.816L214.051 73.1293H201.458Z" fill="white"/>
</svg>
