<svg width="1440" height="150" viewBox="0 0 1440 150" fill="none" xmlns="http://www.w3.org/2000/svg">
<rect x="784.3" y="129.769" width="309" height="59" rx="29.5" transform="rotate(-24.8323 784.3 129.769)" fill="#FA9ABF"/>
<path d="M1066 39.0335V44.0371L1057.56 52.4741H1052.39V47.4706L1060.83 39.0335H1066Z" fill="white"/>
<path d="M1052.4 22.9998V28.0034L1060.84 36.4404H1066V31.4369L1057.56 22.9998H1052.4Z" fill="white"/>
<path d="M1036 39.0369V44.0405L1044.44 52.4775H1049.61V47.474L1041.17 39.0369H1036Z" fill="white"/>
<path d="M1049.62 22.9998V28.0034L1041.18 36.4404H1036.01V31.4369L1044.45 22.9998H1049.62Z" fill="white"/>
<rect x="923.3" y="144.769" width="309" height="59" rx="29.5" transform="rotate(-24.8323 923.3 144.769)" fill="#FFD93E"/>
<rect width="309" height="59" rx="29.5" transform="matrix(-0.907541 -0.419964 -0.419964 0.907541 626.208 131.769)" fill="#86BFDC"/>
<path d="M351.671 47.3113L346.97 32.6709L361.61 27.9696L366.311 42.61L351.671 47.3113Z" fill="#ED4D45"/>
<path d="M358.991 44.9624L366.314 42.611L375.312 47.2352L367.993 49.5882L358.991 44.9624Z" fill="#FFD93E"/>
<path d="M351.671 47.3105L358.992 44.9624L367.994 49.5883L360.673 51.9364L351.671 47.3105Z" fill="#FFD93E"/>
<path d="M363.963 35.2885L366.315 42.6111L375.313 47.2352L372.965 39.9144L363.963 35.2885Z" fill="#FFD93E"/>
<path d="M361.61 27.969L363.963 35.2883L372.965 39.9142L370.612 32.5949L361.61 27.969Z" fill="#FFD93E"/>
<rect width="309" height="59" rx="29.5" transform="matrix(-0.907541 -0.419964 -0.419964 0.907541 473.208 144.769)" fill="#FF4444"/>
<rect x="191" y="48.1909" width="18.5014" height="18.5014" transform="rotate(-24.8323 191 48.1909)" fill="white"/>
<rect x="572" y="91" width="59" height="59" fill="#3B9C3D"/>
<path d="M602.242 136.485L617.484 121.242L602.242 106L587 121.242L602.242 136.485Z" fill="#FFD93E"/>
<rect x="218" y="91" width="59" height="59" fill="#3B9C3D"/>
<rect x="985" y="91" width="59" height="59" fill="#3B9C3D"/>
<rect x="1280" y="91" width="59" height="59" fill="#3B9C3D"/>
<rect y="91" width="100" height="59" fill="#FF4444"/>
<rect x="631" y="91" width="59" height="59" fill="#FF4444"/>
<rect x="513" y="91" width="59" height="59" fill="#FF4444"/>
<rect x="926" y="91" width="59" height="59" fill="#FF4444"/>
<rect x="1162" y="91" width="59" height="59" fill="#FF4444"/>
<rect x="277" y="91" width="59" height="59" fill="#86BFDC"/>
<rect x="808" y="91" width="59" height="59" fill="#86BFDC"/>
<path fill-rule="evenodd" clip-rule="evenodd" d="M826 142.859V131.863L831.909 125.954V125.954L837.814 120.044V131.04L831.909 136.949V136.95L826 142.859ZM831.909 119.9V119.905L826 125.81V114.814L831.909 108.91V108.905L837.814 103V113.996L831.909 119.9ZM843.724 125.954V136.949L837.814 131.04V120.044L843.724 125.954ZM849.629 142.859V131.863L843.724 125.954V136.95L849.629 142.859ZM843.724 108.905V119.901L837.814 113.996V103L843.724 108.905ZM849.629 125.81V114.814L843.724 108.909V119.905L849.629 125.81Z" fill="#2A73D1"/>
<rect x="395" y="91" width="59" height="59" fill="#FFD93E"/>
<rect x="1044" y="91" width="59" height="59" fill="#86BFDC"/>
<path d="M1067.65 133.297L1054 119.648L1067.65 106L1081.3 119.648L1067.65 133.297Z" fill="white"/>
<path d="M1074.47 126.474L1081.3 119.648H1094L1087.18 126.474H1074.47Z" fill="#3B9C3D"/>
<path d="M1067.65 133.296L1074.47 126.474H1087.18L1080.35 133.296H1067.65Z" fill="#3B9C3D"/>
<path d="M1074.47 112.822L1081.3 119.648H1094L1087.18 112.822H1074.47Z" fill="#3B9C3D"/>
<path d="M1067.65 106L1074.47 112.822H1087.18L1080.35 106H1067.65Z" fill="#3B9C3D"/>
<rect x="1339" y="91" width="101" height="59" fill="#86BFDC"/>
<path d="M1419 127.49H1412.49V134L1405.5 127.006L1398.51 134V127.49H1391.99L1385 120.5L1391.99 113.506H1398.51V107L1405.5 113.99L1412.49 107V113.506H1419L1426 120.5L1419 127.49Z" fill="white"/>
<rect x="159" y="91" width="59" height="59" fill="#FFD93E"/>
<rect x="100" y="91" width="59" height="59" fill="#2A73D1"/>
<rect x="867" y="91" width="59" height="59" fill="#FFD93E"/>
<rect x="1221" y="91" width="59" height="59" fill="#FFD93E"/>
<rect x="336" y="91" width="59" height="59" fill="#2A73D1"/>
<path fill-rule="evenodd" clip-rule="evenodd" d="M889.751 132H904.18L911.931 121H897.502L889.751 132ZM882 143H896.424L904.175 132H889.751L882 143ZM904.18 110H889.751L897.502 121H911.931L904.18 110ZM882 99H896.424L904.175 110H889.751L882 99Z" fill="#ED4D45"/>
<path fill-rule="evenodd" clip-rule="evenodd" d="M550.179 131.999H535.751L528 121H528L528 121L528 120.999H528L535.751 110H550.179L542.429 121L550.179 131.999ZM557.93 143H543.506L535.755 132H550.18L557.93 143ZM557.93 98.9997H543.506L535.755 110H550.18L557.93 98.9997Z" fill="#FFD93E"/>
<path fill-rule="evenodd" clip-rule="evenodd" d="M180.75 132.999H195.179L202.93 122H202.93L202.93 122L202.93 121.999H202.93L195.179 111H180.75L188.501 122L180.75 132.999ZM172.999 144L187.424 144L195.175 133H180.75L172.999 144ZM172.999 99.9997H187.424L195.175 111H180.75L172.999 99.9997Z" fill="#3B9C3D"/>
<rect x="454" y="91" width="59" height="59" fill="#FA9ABF"/>
<path d="M478.648 133.297L465 119.648L478.648 106L492.297 119.648L478.648 133.297Z" fill="#2A73D1"/>
<path d="M485.474 126.474L492.3 119.648H505L498.178 126.474H485.474Z" fill="white"/>
<path d="M478.647 133.296L485.474 126.474H498.178L491.352 133.296H478.647Z" fill="white"/>
<path d="M485.474 112.822L492.3 119.648H505L498.178 112.822H485.474Z" fill="white"/>
<path d="M478.647 106L485.474 112.822H498.178L491.352 106H478.647Z" fill="white"/>
<rect x="1103" y="91" width="59" height="59" fill="#FA9ABF"/>
<circle cx="1189.5" cy="53.5" r="12.5" fill="#2A73D1"/>
<circle cx="955.5" cy="120.5" r="12.5" fill="white"/>
<path d="M233.997 127.49H240.505V134L247.502 127.006L254.495 134V127.49H261.007L268 120.5L261.007 113.506H254.495V107L247.502 113.99L240.505 107V113.506H233.997L227 120.5L233.997 127.49Z" fill="#ED4D45"/>
<rect x="749" y="91" width="59" height="59" fill="#FFD93E"/>
<path d="M764.997 129.49H771.505V136L778.502 129.006L785.495 136V129.49H792.007L799 122.5L792.007 115.506H785.495V109L778.502 115.99L771.505 109V115.506H764.997L758 122.5L764.997 129.49Z" fill="#2A73D1"/>
<path d="M1119 129.49H1125.51V136L1132.5 129.006L1139.49 136V129.49H1146.01L1153 122.5L1146.01 115.506H1139.49V109L1132.5 115.99L1125.51 109V115.506H1119L1112 122.5L1119 129.49Z" fill="#3B9C3D"/>
<path d="M675.996 123.034V128.037L667.559 136.474H662.391V131.471L670.828 123.034H675.996Z" fill="white"/>
<path d="M662.398 107V112.003L670.835 120.44H676V115.437L667.563 107H662.398Z" fill="white"/>
<path d="M646 123.037V128.041L654.437 136.478H659.605V131.474L651.168 123.037H646Z" fill="white"/>
<path d="M659.616 107V112.003L651.179 120.44H646.015V115.437L654.452 107H659.616Z" fill="white"/>
<rect x="690" y="91" width="59" height="59" fill="#FA9ABF"/>
<path fill-rule="evenodd" clip-rule="evenodd" d="M710.994 120.983L720.972 108H739.547L729.569 120.983H710.994ZM701 133.966L710.978 120.983H729.553L719.575 133.966H701Z" fill="white"/>
<path fill-rule="evenodd" clip-rule="evenodd" d="M415.995 119.983L425.973 107H444.548L434.569 119.983H415.995ZM406 132.966L415.978 119.983H434.553L424.575 132.966H406Z" fill="#3B9C3D"/>
<path fill-rule="evenodd" clip-rule="evenodd" d="M1260.93 142.859V131.863L1255.02 125.954V125.954L1249.12 120.044V131.04L1255.02 136.949V136.95L1260.93 142.859ZM1255.02 119.9V119.905L1260.93 125.81V114.814L1255.02 108.91V108.905L1249.12 103V113.996L1255.02 119.9ZM1243.21 125.954V136.949L1249.12 131.04V120.044L1243.21 125.954ZM1237.3 142.859V131.863L1243.21 125.954V136.95L1237.3 142.859ZM1243.21 108.905V119.901L1249.12 113.996V103L1243.21 108.905ZM1237.3 125.81V114.814L1243.21 108.909V119.905L1237.3 125.81Z" fill="#FF4444"/>
<path fill-rule="evenodd" clip-rule="evenodd" d="M1197.18 132H1182.75L1175 121H1189.43L1197.18 132ZM1204.93 143H1190.51L1182.76 132H1197.18L1204.93 143ZM1182.75 110H1197.18L1189.43 121H1175L1182.75 110ZM1204.93 99H1190.51L1182.76 110H1197.18L1204.93 99Z" fill="white"/>
<path fill-rule="evenodd" clip-rule="evenodd" d="M1316.94 120.983L1306.96 108H1288.38L1298.36 120.983H1316.94ZM1326.93 133.966L1316.95 120.983H1298.38L1308.36 133.966H1326.93Z" fill="white"/>
<path fill-rule="evenodd" clip-rule="evenodd" d="M1003.99 119.983L1013.97 107H1032.55L1022.57 119.983H1003.99ZM994 132.966L1003.98 119.983H1022.55L1012.57 132.966H994Z" fill="#FFD93E"/>
<path d="M307.242 137.485L292 122.242L307.242 107L322.485 122.242L307.242 137.485Z" fill="#FFD93E"/>
<path d="M47.003 128.49H40.4949V135L33.4979 128.006L26.5051 135V128.49H19.9929L13 121.5L19.9929 114.506H26.5051V108L33.4979 114.99L40.4949 108V114.506H47.003L54 121.5L47.003 128.49Z" fill="white"/>
<path d="M352.004 121.034V126.037L360.441 134.474H365.609V129.471L357.172 121.034H352.004Z" fill="#FF4444"/>
<path d="M365.602 105V110.003L357.165 118.44H352V113.437L360.437 105H365.602Z" fill="#FF4444"/>
<path d="M382 121.037V126.041L373.563 134.478H368.395V129.474L376.832 121.037H382Z" fill="#FF4444"/>
<path d="M368.384 105V110.003L376.821 118.44H381.985V113.437L373.548 105H368.384Z" fill="#FF4444"/>
<path d="M115.004 122.034V127.037L123.441 135.474H128.609V130.471L120.172 122.034H115.004Z" fill="#FFD93E"/>
<path d="M128.602 106V111.003L120.165 119.44H115V114.437L123.437 106H128.602Z" fill="#FFD93E"/>
<path d="M145 122.037V127.041L136.563 135.478H131.395V130.474L139.832 122.037H145Z" fill="#FFD93E"/>
<path d="M131.384 106V111.003L139.821 119.44H144.985V114.437L136.548 106H131.384Z" fill="#FFD93E"/>
</svg>
