<svg width="263" height="265" viewBox="0 0 263 265" fill="none" xmlns="http://www.w3.org/2000/svg">
<path d="M184.271 1V0.5H183.771H59.7227C48.9531 0.5 40.2227 9.23044 40.2227 20V29.3116V29.8116H40.7227H183.771H184.271V29.3116V1Z" fill="#ED4D45" stroke="black"/>
<path d="M233.188 223.022V223.522H233.688H243C253.77 223.522 262.5 214.792 262.5 204.022V80.7193V80.2193H262H233.688H233.188V80.7193V223.022Z" fill="#57994B" stroke="black"/>
<path d="M255.569 208.437V211.093L251.091 215.571H248.348V212.915L252.826 208.437H255.569Z" fill="white"/>
<path d="M248.352 199.926V202.582L252.83 207.06H255.571V204.404L251.093 199.926H248.352Z" fill="white"/>
<path d="M239.648 208.438V211.094L244.126 215.572H246.869V212.917L242.391 208.438H239.648Z" fill="white"/>
<path d="M246.875 199.926V202.582L242.397 207.06H239.656V204.404L244.134 199.926H246.875Z" fill="white"/>
<mask id="path-7-outside-1_2773_311" maskUnits="userSpaceOnUse" x="182.771" y="0" width="81" height="82" fill="black">
<rect fill="white" x="182.771" width="81" height="82"/>
<path fill-rule="evenodd" clip-rule="evenodd" d="M262 1H183.771V29.3116L233.688 29.3116V80.7195H262L262 29.3116V1Z"/>
</mask>
<path fill-rule="evenodd" clip-rule="evenodd" d="M262 1H183.771V29.3116L233.688 29.3116V80.7195H262L262 29.3116V1Z" fill="#75C2E0"/>
<path d="M183.771 1V0H182.771V1H183.771ZM262 1H263V0H262V1ZM183.771 29.3116H182.771V30.3116H183.771L183.771 29.3116ZM233.688 29.3116H234.688V28.3116H233.688V29.3116ZM233.688 80.7195H232.688V81.7195H233.688V80.7195ZM262 80.7195V81.7195H263V80.7195H262ZM262 29.3116H261H262ZM183.771 2H262V0H183.771V2ZM184.771 29.3116V1H182.771V29.3116H184.771ZM233.688 28.3116L183.771 28.3116L183.771 30.3116L233.688 30.3116V28.3116ZM234.688 80.7195V29.3116H232.688V80.7195H234.688ZM262 79.7195H233.688V81.7195H262V79.7195ZM261 29.3116L261 80.7195H263L263 29.3116H261ZM261 1V29.3116H263V1H261Z" fill="black" mask="url(#path-7-outside-1_2773_311)"/>
<path d="M198.39 23.5318L207.048 14.8735L198.39 6.21529L189.731 14.8735L198.39 23.5318Z" fill="#FFD93E"/>
<circle cx="248.217" cy="69.1716" r="7.82295" fill="white"/>
<path d="M233.443 264V264.5H232.943H223.632C212.862 264.5 204.132 255.77 204.132 245V99.7195C204.132 88.95 212.862 80.2195 223.632 80.2195H232.943H233.443V80.7195V264Z" fill="#ED4D45" stroke="black"/>
<path d="M215.315 238.376V241.57H212.082L215.556 245.003L212.082 248.433H215.315V251.629L218.787 255.06L222.261 251.629V248.433H225.493L222.021 245.003L225.493 241.57H222.261V238.376L218.787 234.943L215.315 238.376Z" fill="#FFD93E"/>
<path d="M183.771 29.5566H184.271V30.0566V39.3683C184.271 50.1378 175.54 58.8683 164.771 58.8683L20.9801 58.8683C10.2106 58.8683 1.48013 50.1378 1.48013 39.3683V30.0566V29.5566H1.98013L183.771 29.5566Z" fill="#EC9DBC" stroke="black"/>
<path d="M183.771 29.5566H183.271V30.0566V46.2294C183.271 64.731 198.269 79.7294 216.77 79.7294H232.943H233.443V79.2294V30.0566V29.5566H232.943H183.771Z" fill="#FFD93E" stroke="black"/>
<path fill-rule="evenodd" clip-rule="evenodd" d="M54.1617 15.4841L60.1402 7.70557H71.2695L65.2909 15.4844H65.2806L59.3022 23.2629H48.1729L54.1514 15.4841H54.1617Z" fill="#FFD93E"/>
<path fill-rule="evenodd" clip-rule="evenodd" d="M21.061 49.614H14.4645L10.9209 44.585H17.5175L21.061 49.614ZM24.6046 54.6431H18.01L14.4664 49.6141H21.061L24.6046 54.6431ZM14.4645 39.556H21.061L17.5175 44.585H10.9209L14.4645 39.556ZM24.6046 34.5269H18.01L14.4664 39.556H21.061L24.6046 34.5269Z" fill="#ED4D45"/>
<path d="M205.115 63.0597L194.946 52.8911L205.115 42.7226L215.283 52.8911L205.115 63.0597Z" fill="white"/>
<path d="M210.2 57.9766L215.286 52.8906H224.748L219.665 57.9766H210.2Z" fill="#3B9C3D"/>
<path d="M205.114 63.0591L210.2 57.9766H219.665L214.58 63.0591H205.114Z" fill="#3B9C3D"/>
<path d="M210.2 47.8047L215.286 52.8906H224.748L219.665 47.8047H210.2Z" fill="#3B9C3D"/>
<path d="M205.114 42.7222L210.2 47.8047H219.665L214.58 42.7222H205.114Z" fill="#3B9C3D"/>
</svg>
