<svg width="18" height="18" viewBox="0 0 18 18" fill="none" xmlns="http://www.w3.org/2000/svg">
<path d="M16.3129 10.1248C16.3116 11.3179 15.8371 12.4617 14.9935 13.3054C14.1499 14.149 13.006 14.6235 11.8129 14.6248H5.62544C5.47626 14.6248 5.33318 14.5656 5.22769 14.4601C5.12221 14.3546 5.06294 14.2115 5.06294 14.0623C5.06294 13.9131 5.12221 13.7701 5.22769 13.6646C5.33318 13.5591 5.47626 13.4998 5.62544 13.4998H11.8129C12.708 13.4998 13.5665 13.1442 14.1994 12.5113C14.8324 11.8784 15.1879 11.0199 15.1879 10.1248C15.1879 9.22972 14.8324 8.37127 14.1994 7.73834C13.5665 7.1054 12.708 6.74982 11.8129 6.74982H3.60818L6.02341 9.16436C6.12896 9.2699 6.18826 9.41306 6.18826 9.56232C6.18826 9.71159 6.12896 9.85475 6.02341 9.96029C5.91786 10.0658 5.77471 10.1251 5.62544 10.1251C5.47618 10.1251 5.33302 10.0658 5.22747 9.96029L1.85247 6.58529C1.80017 6.53305 1.75868 6.47101 1.73038 6.40273C1.70207 6.33444 1.6875 6.26125 1.6875 6.18732C1.6875 6.1134 1.70207 6.04021 1.73038 5.97192C1.75868 5.90363 1.80017 5.8416 1.85247 5.78936L5.22747 2.41436C5.33302 2.30881 5.47618 2.24951 5.62544 2.24951C5.77471 2.24951 5.91786 2.30881 6.02341 2.41436C6.12896 2.5199 6.18826 2.66306 6.18826 2.81232C6.18826 2.96159 6.12896 3.10475 6.02341 3.21029L3.60818 5.62482H11.8129C13.006 5.62613 14.1499 6.10065 14.9935 6.94428C15.8371 7.78791 16.3116 8.93175 16.3129 10.1248Z" fill="#333338"/>
</svg>
