<svg width="999" height="900" viewBox="0 0 999 900" fill="none" xmlns="http://www.w3.org/2000/svg">
<g clip-path="url(#clip0_1000_8027)">
<g opacity="0.25">
<path d="M0.77002 443.36V430.68L22.16 409.3H35.25V421.98L13.87 443.36H0.77002Z" stroke="#333338" stroke-width="0.5" stroke-miterlimit="10"/>
<path d="M35.28 484V471.32L13.9001 449.94H0.800049V462.62L22.19 484H35.28Z" stroke="#333338" stroke-width="0.5" stroke-miterlimit="10"/>
<path d="M76.8799 443.37V430.69L55.4999 409.3H42.3999V421.98L63.7899 443.37H76.8799Z" stroke="#333338" stroke-width="0.5" stroke-miterlimit="10"/>
<path d="M42.4199 484V471.32L63.7999 449.94H76.8899V462.62L55.5099 484H42.4199Z" stroke="#333338" stroke-width="0.5" stroke-miterlimit="10"/>
<path d="M83.9299 443.36V430.68L105.31 409.3H118.4V421.98L97.0199 443.36H83.9299Z" stroke="#333338" stroke-width="0.5" stroke-miterlimit="10"/>
<path d="M118.43 484V471.32L97.05 449.94H83.96V462.62L105.34 484H118.43Z" stroke="#333338" stroke-width="0.5" stroke-miterlimit="10"/>
<path d="M160.03 443.37V430.69L138.65 409.3H125.56V421.98L146.94 443.37H160.03Z" stroke="#333338" stroke-width="0.5" stroke-miterlimit="10"/>
<path d="M125.57 484V471.32L146.96 449.94H160.05V462.62L138.67 484H125.57Z" stroke="#333338" stroke-width="0.5" stroke-miterlimit="10"/>
<path d="M167.08 443.36V430.68L188.46 409.3H201.56V421.98L180.17 443.36H167.08Z" stroke="#333338" stroke-width="0.5" stroke-miterlimit="10"/>
<path d="M201.59 484V471.32L180.2 449.94H167.11V462.62L188.49 484H201.59Z" stroke="#333338" stroke-width="0.5" stroke-miterlimit="10"/>
<path d="M243.19 443.37V430.69L221.8 409.3H208.71V421.98L230.09 443.37H243.19Z" stroke="#333338" stroke-width="0.5" stroke-miterlimit="10"/>
<path d="M208.73 484V471.32L230.11 449.94H243.2V462.62L221.82 484H208.73Z" stroke="#333338" stroke-width="0.5" stroke-miterlimit="10"/>
<path d="M250.23 443.36V430.68L271.62 409.3H284.71V421.98L263.33 443.36H250.23Z" stroke="#333338" stroke-width="0.5" stroke-miterlimit="10"/>
<path d="M284.74 484V471.32L263.36 449.94H250.27V462.62L271.65 484H284.74Z" stroke="#333338" stroke-width="0.5" stroke-miterlimit="10"/>
<path d="M326.34 443.37V430.69L304.96 409.3H291.86V421.98L313.25 443.37H326.34Z" stroke="#333338" stroke-width="0.5" stroke-miterlimit="10"/>
<path d="M291.88 484V471.32L313.26 449.94H326.36V462.62L304.97 484H291.88Z" stroke="#333338" stroke-width="0.5" stroke-miterlimit="10"/>
<path d="M333.39 443.36V430.68L354.77 409.3H367.86V421.98L346.48 443.36H333.39Z" stroke="#333338" stroke-width="0.5" stroke-miterlimit="10"/>
<path d="M367.89 484V471.32L346.51 449.94H333.42V462.62L354.8 484H367.89Z" stroke="#333338" stroke-width="0.5" stroke-miterlimit="10"/>
<path d="M409.49 443.37V430.69L388.11 409.3H375.02V421.98L396.4 443.37H409.49Z" stroke="#333338" stroke-width="0.5" stroke-miterlimit="10"/>
<path d="M375.03 484V471.32L396.42 449.94H409.51V462.62L388.13 484H375.03Z" stroke="#333338" stroke-width="0.5" stroke-miterlimit="10"/>
<path d="M416.54 443.36V430.68L437.92 409.3H451.02V421.98L429.63 443.36H416.54Z" stroke="#333338" stroke-width="0.5" stroke-miterlimit="10"/>
<path d="M451.05 484V471.32L429.67 449.94H416.57V462.62L437.96 484H451.05Z" stroke="#333338" stroke-width="0.5" stroke-miterlimit="10"/>
<path d="M492.65 443.37V430.69L471.26 409.3H458.17V421.98L479.55 443.37H492.65Z" stroke="#333338" stroke-width="0.5" stroke-miterlimit="10"/>
<path d="M458.19 484V471.32L479.57 449.94H492.66V462.62L471.28 484H458.19Z" stroke="#333338" stroke-width="0.5" stroke-miterlimit="10"/>
<path d="M499.69 443.36V430.68L521.08 409.3H534.17V421.98L512.79 443.36H499.69Z" stroke="#333338" stroke-width="0.5" stroke-miterlimit="10"/>
<path d="M534.2 484V471.32L512.82 449.94H499.73V462.62L521.11 484H534.2Z" stroke="#333338" stroke-width="0.5" stroke-miterlimit="10"/>
<path d="M0.77002 361.54V348.86L22.16 327.47H35.25V340.16L13.87 361.54H0.77002Z" stroke="#333338" stroke-width="0.5" stroke-miterlimit="10"/>
<path d="M35.28 402.18V389.5L13.9001 368.11H0.800049V380.79L22.19 402.18H35.28Z" stroke="#333338" stroke-width="0.5" stroke-miterlimit="10"/>
<path d="M76.8799 361.54V348.86L55.4999 327.48H42.3999V340.16L63.7899 361.54H76.8799Z" stroke="#333338" stroke-width="0.5" stroke-miterlimit="10"/>
<path d="M42.4199 402.18V389.5L63.7999 368.11H76.8899V380.79L55.5099 402.18H42.4199Z" stroke="#333338" stroke-width="0.5" stroke-miterlimit="10"/>
<path d="M83.9299 361.54V348.86L105.31 327.47H118.4V340.16L97.0199 361.54H83.9299Z" stroke="#333338" stroke-width="0.5" stroke-miterlimit="10"/>
<path d="M118.43 402.18V389.5L97.05 368.11H83.96V380.79L105.34 402.18H118.43Z" stroke="#333338" stroke-width="0.5" stroke-miterlimit="10"/>
<path d="M160.03 361.54V348.86L138.65 327.48H125.56V340.16L146.94 361.54H160.03Z" stroke="#333338" stroke-width="0.5" stroke-miterlimit="10"/>
<path d="M125.57 402.18V389.5L146.96 368.11H160.05V380.79L138.67 402.18H125.57Z" stroke="#333338" stroke-width="0.5" stroke-miterlimit="10"/>
<path d="M167.08 361.54V348.86L188.46 327.47H201.56V340.16L180.17 361.54H167.08Z" stroke="#333338" stroke-width="0.5" stroke-miterlimit="10"/>
<path d="M201.59 402.18V389.5L180.2 368.11H167.11V380.79L188.49 402.18H201.59Z" stroke="#333338" stroke-width="0.5" stroke-miterlimit="10"/>
<path d="M243.19 361.54V348.86L221.8 327.48H208.71V340.16L230.09 361.54H243.19Z" stroke="#333338" stroke-width="0.5" stroke-miterlimit="10"/>
<path d="M208.73 402.18V389.5L230.11 368.11H243.2V380.79L221.82 402.18H208.73Z" stroke="#333338" stroke-width="0.5" stroke-miterlimit="10"/>
<path d="M250.23 361.54V348.86L271.62 327.47H284.71V340.16L263.33 361.54H250.23Z" stroke="#333338" stroke-width="0.5" stroke-miterlimit="10"/>
<path d="M284.74 402.18V389.5L263.36 368.11H250.27V380.79L271.65 402.18H284.74Z" stroke="#333338" stroke-width="0.5" stroke-miterlimit="10"/>
<path d="M326.34 361.54V348.86L304.96 327.48H291.86V340.16L313.25 361.54H326.34Z" stroke="#333338" stroke-width="0.5" stroke-miterlimit="10"/>
<path d="M291.88 402.18V389.5L313.26 368.11H326.36V380.79L304.97 402.18H291.88Z" stroke="#333338" stroke-width="0.5" stroke-miterlimit="10"/>
<path d="M333.39 361.54V348.86L354.77 327.47H367.86V340.16L346.48 361.54H333.39Z" stroke="#333338" stroke-width="0.5" stroke-miterlimit="10"/>
<path d="M367.89 402.18V389.5L346.51 368.11H333.42V380.79L354.8 402.18H367.89Z" stroke="#333338" stroke-width="0.5" stroke-miterlimit="10"/>
<path d="M409.49 361.54V348.86L388.11 327.48H375.02V340.16L396.4 361.54H409.49Z" stroke="#333338" stroke-width="0.5" stroke-miterlimit="10"/>
<path d="M375.03 402.18V389.5L396.42 368.11H409.51V380.79L388.13 402.18H375.03Z" stroke="#333338" stroke-width="0.5" stroke-miterlimit="10"/>
<path d="M416.54 361.54V348.86L437.92 327.47H451.02V340.16L429.63 361.54H416.54Z" stroke="#333338" stroke-width="0.5" stroke-miterlimit="10"/>
<path d="M451.05 402.18V389.5L429.67 368.11H416.57V380.79L437.96 402.18H451.05Z" stroke="#333338" stroke-width="0.5" stroke-miterlimit="10"/>
<path d="M492.65 361.54V348.86L471.26 327.48H458.17V340.16L479.55 361.54H492.65Z" stroke="#333338" stroke-width="0.5" stroke-miterlimit="10"/>
<path d="M458.19 402.18V389.5L479.57 368.11H492.66V380.79L471.28 402.18H458.19Z" stroke="#333338" stroke-width="0.5" stroke-miterlimit="10"/>
<path d="M499.69 361.54V348.86L521.08 327.47H534.17V340.16L512.79 361.54H499.69Z" stroke="#333338" stroke-width="0.5" stroke-miterlimit="10"/>
<path d="M534.2 402.18V389.5L512.82 368.11H499.73V380.79L521.11 402.18H534.2Z" stroke="#333338" stroke-width="0.5" stroke-miterlimit="10"/>
<path d="M0.77002 116.14V103.46L22.16 82.0698H35.25V94.7498L13.87 116.14H0.77002Z" stroke="#333338" stroke-width="0.5" stroke-miterlimit="10"/>
<path d="M35.28 156.77V144.09L13.9001 122.71H0.800049V135.39L22.19 156.77H35.28Z" stroke="#333338" stroke-width="0.5" stroke-miterlimit="10"/>
<path d="M76.8799 116.14V103.46L55.4999 82.0801H42.3999V94.7601L63.7899 116.14H76.8799Z" stroke="#333338" stroke-width="0.5" stroke-miterlimit="10"/>
<path d="M42.4199 156.77V144.09L63.7999 122.71H76.8899V135.39L55.5099 156.77H42.4199Z" stroke="#333338" stroke-width="0.5" stroke-miterlimit="10"/>
<path d="M83.9299 116.14V103.46L105.31 82.0698H118.4V94.7498L97.0199 116.14H83.9299Z" stroke="#333338" stroke-width="0.5" stroke-miterlimit="10"/>
<path d="M118.43 156.77V144.09L97.05 122.71H83.96V135.39L105.34 156.77H118.43Z" stroke="#333338" stroke-width="0.5" stroke-miterlimit="10"/>
<path d="M160.03 116.14V103.46L138.65 82.0801H125.56V94.7601L146.94 116.14H160.03Z" stroke="#333338" stroke-width="0.5" stroke-miterlimit="10"/>
<path d="M125.57 156.77V144.09L146.96 122.71H160.05V135.39L138.67 156.77H125.57Z" stroke="#333338" stroke-width="0.5" stroke-miterlimit="10"/>
<path d="M167.08 116.14V103.46L188.46 82.0698H201.56V94.7498L180.17 116.14H167.08Z" stroke="#333338" stroke-width="0.5" stroke-miterlimit="10"/>
<path d="M201.59 156.77V144.09L180.2 122.71H167.11V135.39L188.49 156.77H201.59Z" stroke="#333338" stroke-width="0.5" stroke-miterlimit="10"/>
<path d="M243.19 116.14V103.46L221.8 82.0801H208.71V94.7601L230.09 116.14H243.19Z" stroke="#333338" stroke-width="0.5" stroke-miterlimit="10"/>
<path d="M208.73 156.77V144.09L230.11 122.71H243.2V135.39L221.82 156.77H208.73Z" stroke="#333338" stroke-width="0.5" stroke-miterlimit="10"/>
<path d="M250.23 116.14V103.46L271.62 82.0698H284.71V94.7498L263.33 116.14H250.23Z" stroke="#333338" stroke-width="0.5" stroke-miterlimit="10"/>
<path d="M284.74 156.77V144.09L263.36 122.71H250.27V135.39L271.65 156.77H284.74Z" stroke="#333338" stroke-width="0.5" stroke-miterlimit="10"/>
<path d="M326.34 116.14V103.46L304.96 82.0801H291.86V94.7601L313.25 116.14H326.34Z" stroke="#333338" stroke-width="0.5" stroke-miterlimit="10"/>
<path d="M291.88 156.77V144.09L313.26 122.71H326.36V135.39L304.97 156.77H291.88Z" stroke="#333338" stroke-width="0.5" stroke-miterlimit="10"/>
<path d="M333.39 116.14V103.46L354.77 82.0698H367.86V94.7498L346.48 116.14H333.39Z" stroke="#333338" stroke-width="0.5" stroke-miterlimit="10"/>
<path d="M367.89 156.77V144.09L346.51 122.71H333.42V135.39L354.8 156.77H367.89Z" stroke="#333338" stroke-width="0.5" stroke-miterlimit="10"/>
<path d="M409.49 116.14V103.46L388.11 82.0801H375.02V94.7601L396.4 116.14H409.49Z" stroke="#333338" stroke-width="0.5" stroke-miterlimit="10"/>
<path d="M375.03 156.77V144.09L396.42 122.71H409.51V135.39L388.13 156.77H375.03Z" stroke="#333338" stroke-width="0.5" stroke-miterlimit="10"/>
<path d="M416.54 116.14V103.46L437.92 82.0698H451.02V94.7498L429.63 116.14H416.54Z" stroke="#333338" stroke-width="0.5" stroke-miterlimit="10"/>
<path d="M451.05 156.77V144.09L429.67 122.71H416.57V135.39L437.96 156.77H451.05Z" stroke="#333338" stroke-width="0.5" stroke-miterlimit="10"/>
<path d="M492.65 116.14V103.46L471.26 82.0801H458.17V94.7601L479.55 116.14H492.65Z" stroke="#333338" stroke-width="0.5" stroke-miterlimit="10"/>
<path d="M458.19 156.77V144.09L479.57 122.71H492.66V135.39L471.28 156.77H458.19Z" stroke="#333338" stroke-width="0.5" stroke-miterlimit="10"/>
<path d="M499.69 116.14V103.46L521.08 82.0698H534.17V94.7498L512.79 116.14H499.69Z" stroke="#333338" stroke-width="0.5" stroke-miterlimit="10"/>
<path d="M534.2 156.77V144.09L512.82 122.71H499.73V135.39L521.11 156.77H534.2Z" stroke="#333338" stroke-width="0.5" stroke-miterlimit="10"/>
<path d="M35.28 238.6V225.92L13.9001 204.53H0.800049V217.22L22.19 238.6H35.28Z" stroke="#333338" stroke-width="0.5" stroke-miterlimit="10"/>
<path d="M76.8799 197.96V185.28L55.4999 163.9H42.3999V176.58L63.7899 197.96H76.8799Z" stroke="#333338" stroke-width="0.5" stroke-miterlimit="10"/>
<path d="M42.4199 238.6V225.92L63.7999 204.53H76.8899V217.22L55.5099 238.6H42.4199Z" stroke="#333338" stroke-width="0.5" stroke-miterlimit="10"/>
<path d="M83.9299 197.96V185.28L105.31 163.9H118.4V176.58L97.0199 197.96H83.9299Z" stroke="#333338" stroke-width="0.5" stroke-miterlimit="10"/>
<path d="M118.43 238.6V225.92L97.05 204.53H83.96V217.22L105.34 238.6H118.43Z" stroke="#333338" stroke-width="0.5" stroke-miterlimit="10"/>
<path d="M160.03 197.96V185.28L138.65 163.9H125.56V176.58L146.94 197.96H160.03Z" stroke="#333338" stroke-width="0.5" stroke-miterlimit="10"/>
<path d="M125.57 238.6V225.92L146.96 204.53H160.05V217.22L138.67 238.6H125.57Z" stroke="#333338" stroke-width="0.5" stroke-miterlimit="10"/>
<path d="M167.08 197.96V185.28L188.46 163.9H201.56V176.58L180.17 197.96H167.08Z" stroke="#333338" stroke-width="0.5" stroke-miterlimit="10"/>
<path d="M201.59 238.6V225.92L180.2 204.53H167.11V217.22L188.49 238.6H201.59Z" stroke="#333338" stroke-width="0.5" stroke-miterlimit="10"/>
<path d="M243.19 197.96V185.28L221.8 163.9H208.71V176.58L230.09 197.96H243.19Z" stroke="#333338" stroke-width="0.5" stroke-miterlimit="10"/>
<path d="M208.73 238.6V225.92L230.11 204.53H243.2V217.22L221.82 238.6H208.73Z" stroke="#333338" stroke-width="0.5" stroke-miterlimit="10"/>
<path d="M250.23 197.96V185.28L271.62 163.9H284.71V176.58L263.33 197.96H250.23Z" stroke="#333338" stroke-width="0.5" stroke-miterlimit="10"/>
<path d="M284.74 238.6V225.92L263.36 204.53H250.27V217.22L271.65 238.6H284.74Z" stroke="#333338" stroke-width="0.5" stroke-miterlimit="10"/>
<path d="M326.34 197.96V185.28L304.96 163.9H291.86V176.58L313.25 197.96H326.34Z" stroke="#333338" stroke-width="0.5" stroke-miterlimit="10"/>
<path d="M291.88 238.6V225.92L313.26 204.53H326.36V217.22L304.97 238.6H291.88Z" stroke="#333338" stroke-width="0.5" stroke-miterlimit="10"/>
<path d="M333.39 197.96V185.28L354.77 163.9H367.86V176.58L346.48 197.96H333.39Z" stroke="#333338" stroke-width="0.5" stroke-miterlimit="10"/>
<path d="M367.89 238.6V225.92L346.51 204.53H333.42V217.22L354.8 238.6H367.89Z" stroke="#333338" stroke-width="0.5" stroke-miterlimit="10"/>
<path d="M409.49 197.96V185.28L388.11 163.9H375.02V176.58L396.4 197.96H409.49Z" stroke="#333338" stroke-width="0.5" stroke-miterlimit="10"/>
<path d="M375.03 238.6V225.92L396.42 204.53H409.51V217.22L388.13 238.6H375.03Z" stroke="#333338" stroke-width="0.5" stroke-miterlimit="10"/>
<path d="M416.54 197.96V185.28L437.92 163.9H451.02V176.58L429.63 197.96H416.54Z" stroke="#333338" stroke-width="0.5" stroke-miterlimit="10"/>
<path d="M451.05 238.6V225.92L429.67 204.53H416.57V217.22L437.96 238.6H451.05Z" stroke="#333338" stroke-width="0.5" stroke-miterlimit="10"/>
<path d="M492.65 197.96V185.28L471.26 163.9H458.17V176.58L479.55 197.96H492.65Z" stroke="#333338" stroke-width="0.5" stroke-miterlimit="10"/>
<path d="M458.19 238.6V225.92L479.57 204.53H492.66V217.22L471.28 238.6H458.19Z" stroke="#333338" stroke-width="0.5" stroke-miterlimit="10"/>
<path d="M499.69 197.96V185.28L521.08 163.9H534.17V176.58L512.79 197.96H499.69Z" stroke="#333338" stroke-width="0.5" stroke-miterlimit="10"/>
<path d="M534.2 238.6V225.92L512.82 204.53H499.73V217.22L521.11 238.6H534.2Z" stroke="#333338" stroke-width="0.5" stroke-miterlimit="10"/>
<path d="M0.77002 279.78V267.1L22.16 245.72H35.25V258.4L13.87 279.78H0.77002Z" stroke="#333338" stroke-width="0.5" stroke-miterlimit="10"/>
<path d="M76.8799 279.79V267.11L55.4999 245.72H42.3999V258.4L63.7899 279.79H76.8799Z" stroke="#333338" stroke-width="0.5" stroke-miterlimit="10"/>
<path d="M35.25 320.42V307.74L13.87 286.36H0.77002V299.04L22.16 320.42H35.25Z" stroke="#333338" stroke-width="0.5" stroke-miterlimit="10"/>
<path d="M42.4199 320.42V307.74L63.7999 286.36H76.8899V299.04L55.5099 320.42H42.4199Z" stroke="#333338" stroke-width="0.5" stroke-miterlimit="10"/>
<path d="M0.77002 197.96V185.28L22.16 163.9H35.25V176.58L13.87 197.96H0.77002Z" stroke="#333338" stroke-width="0.5" stroke-miterlimit="10"/>
<path d="M83.9299 279.78V267.1L105.31 245.72H118.4V258.4L97.0199 279.78H83.9299Z" stroke="#333338" stroke-width="0.5" stroke-miterlimit="10"/>
<path d="M118.43 320.42V307.74L97.05 286.36H83.96V299.04L105.34 320.42H118.43Z" stroke="#333338" stroke-width="0.5" stroke-miterlimit="10"/>
<path d="M160.03 279.79V267.11L138.65 245.72H125.56V258.4L146.94 279.79H160.03Z" stroke="#333338" stroke-width="0.5" stroke-miterlimit="10"/>
<path d="M125.57 320.42V307.74L146.96 286.36H160.05V299.04L138.67 320.42H125.57Z" stroke="#333338" stroke-width="0.5" stroke-miterlimit="10"/>
<path d="M167.08 279.78V267.1L188.46 245.72H201.56V258.4L180.17 279.78H167.08Z" stroke="#333338" stroke-width="0.5" stroke-miterlimit="10"/>
<path d="M201.59 320.42V307.74L180.2 286.36H167.11V299.04L188.49 320.42H201.59Z" stroke="#333338" stroke-width="0.5" stroke-miterlimit="10"/>
<path d="M243.19 279.79V267.11L221.8 245.72H208.71V258.4L230.09 279.79H243.19Z" stroke="#333338" stroke-width="0.5" stroke-miterlimit="10"/>
<path d="M208.73 320.42V307.74L230.11 286.36H243.2V299.04L221.82 320.42H208.73Z" stroke="#333338" stroke-width="0.5" stroke-miterlimit="10"/>
<path d="M250.23 279.78V267.1L271.62 245.72H284.71V258.4L263.33 279.78H250.23Z" stroke="#333338" stroke-width="0.5" stroke-miterlimit="10"/>
<path d="M284.74 320.42V307.74L263.36 286.36H250.27V299.04L271.65 320.42H284.74Z" stroke="#333338" stroke-width="0.5" stroke-miterlimit="10"/>
<path d="M326.34 279.79V267.11L304.96 245.72H291.86V258.4L313.25 279.79H326.34Z" stroke="#333338" stroke-width="0.5" stroke-miterlimit="10"/>
<path d="M291.88 320.42V307.74L313.26 286.36H326.36V299.04L304.97 320.42H291.88Z" stroke="#333338" stroke-width="0.5" stroke-miterlimit="10"/>
<path d="M333.39 279.78V267.1L354.77 245.72H367.86V258.4L346.48 279.78H333.39Z" stroke="#333338" stroke-width="0.5" stroke-miterlimit="10"/>
<path d="M367.89 320.42V307.74L346.51 286.36H333.42V299.04L354.8 320.42H367.89Z" stroke="#333338" stroke-width="0.5" stroke-miterlimit="10"/>
<path d="M409.49 279.79V267.11L388.11 245.72H375.02V258.4L396.4 279.79H409.49Z" stroke="#333338" stroke-width="0.5" stroke-miterlimit="10"/>
<path d="M375.03 320.42V307.74L396.42 286.36H409.51V299.04L388.13 320.42H375.03Z" stroke="#333338" stroke-width="0.5" stroke-miterlimit="10"/>
<path d="M416.54 279.78V267.1L437.92 245.72H451.02V258.4L429.63 279.78H416.54Z" stroke="#333338" stroke-width="0.5" stroke-miterlimit="10"/>
<path d="M451.05 320.42V307.74L429.67 286.36H416.57V299.04L437.96 320.42H451.05Z" stroke="#333338" stroke-width="0.5" stroke-miterlimit="10"/>
<path d="M492.65 279.79V267.11L471.26 245.72H458.17V258.4L479.55 279.79H492.65Z" stroke="#333338" stroke-width="0.5" stroke-miterlimit="10"/>
<path d="M458.19 320.42V307.74L479.57 286.36H492.66V299.04L471.28 320.42H458.19Z" stroke="#333338" stroke-width="0.5" stroke-miterlimit="10"/>
<path d="M499.69 279.78V267.1L521.08 245.72H534.17V258.4L512.79 279.78H499.69Z" stroke="#333338" stroke-width="0.5" stroke-miterlimit="10"/>
<path d="M534.2 320.42V307.74L512.82 286.36H499.73V299.04L521.11 320.42H534.2Z" stroke="#333338" stroke-width="0.5" stroke-miterlimit="10"/>
<path d="M0.77002 34.31V21.63L22.16 0.25H35.25V12.93L13.87 34.31H0.77002Z" stroke="#333338" stroke-width="0.5" stroke-miterlimit="10"/>
<path d="M35.28 74.9501V62.2701L13.9001 40.8901H0.800049V53.5701L22.19 74.9501H35.28Z" stroke="#333338" stroke-width="0.5" stroke-miterlimit="10"/>
<path d="M76.8799 34.32V21.64L55.4999 0.25H42.3999V12.93L63.7899 34.32H76.8799Z" stroke="#333338" stroke-width="0.5" stroke-miterlimit="10"/>
<path d="M42.4199 74.9501V62.2701L63.7999 40.8901H76.8899V53.5701L55.5099 74.9501H42.4199Z" stroke="#333338" stroke-width="0.5" stroke-miterlimit="10"/>
<path d="M83.9299 34.31V21.63L105.31 0.25H118.4V12.93L97.0199 34.31H83.9299Z" stroke="#333338" stroke-width="0.5" stroke-miterlimit="10"/>
<path d="M118.43 74.9501V62.2701L97.05 40.8901H83.96V53.5701L105.34 74.9501H118.43Z" stroke="#333338" stroke-width="0.5" stroke-miterlimit="10"/>
<path d="M160.03 34.32V21.64L138.65 0.25H125.56V12.93L146.94 34.32H160.03Z" stroke="#333338" stroke-width="0.5" stroke-miterlimit="10"/>
<path d="M125.57 74.9501V62.2701L146.96 40.8901H160.05V53.5701L138.67 74.9501H125.57Z" stroke="#333338" stroke-width="0.5" stroke-miterlimit="10"/>
<path d="M167.08 34.31V21.63L188.46 0.25H201.56V12.93L180.17 34.31H167.08Z" stroke="#333338" stroke-width="0.5" stroke-miterlimit="10"/>
<path d="M201.59 74.9501V62.2701L180.2 40.8901H167.11V53.5701L188.49 74.9501H201.59Z" stroke="#333338" stroke-width="0.5" stroke-miterlimit="10"/>
<path d="M243.19 34.32V21.64L221.8 0.25H208.71V12.93L230.09 34.32H243.19Z" stroke="#333338" stroke-width="0.5" stroke-miterlimit="10"/>
<path d="M208.73 74.9501V62.2701L230.11 40.8901H243.2V53.5701L221.82 74.9501H208.73Z" stroke="#333338" stroke-width="0.5" stroke-miterlimit="10"/>
<path d="M250.23 34.31V21.63L271.62 0.25H284.71V12.93L263.33 34.31H250.23Z" stroke="#333338" stroke-width="0.5" stroke-miterlimit="10"/>
<path d="M284.74 74.9501V62.2701L263.36 40.8901H250.27V53.5701L271.65 74.9501H284.74Z" stroke="#333338" stroke-width="0.5" stroke-miterlimit="10"/>
<path d="M326.34 34.32V21.64L304.96 0.25H291.86V12.93L313.25 34.32H326.34Z" stroke="#333338" stroke-width="0.5" stroke-miterlimit="10"/>
<path d="M291.88 74.9501V62.2701L313.26 40.8901H326.36V53.5701L304.97 74.9501H291.88Z" stroke="#333338" stroke-width="0.5" stroke-miterlimit="10"/>
<path d="M333.39 34.31V21.63L354.77 0.25H367.86V12.93L346.48 34.31H333.39Z" stroke="#333338" stroke-width="0.5" stroke-miterlimit="10"/>
<path d="M367.89 74.9501V62.2701L346.51 40.8901H333.42V53.5701L354.8 74.9501H367.89Z" stroke="#333338" stroke-width="0.5" stroke-miterlimit="10"/>
<path d="M409.49 34.32V21.64L388.11 0.25H375.02V12.93L396.4 34.32H409.49Z" stroke="#333338" stroke-width="0.5" stroke-miterlimit="10"/>
<path d="M375.03 74.9501V62.2701L396.42 40.8901H409.51V53.5701L388.13 74.9501H375.03Z" stroke="#333338" stroke-width="0.5" stroke-miterlimit="10"/>
<path d="M416.54 34.31V21.63L437.92 0.25H451.02V12.93L429.63 34.31H416.54Z" stroke="#333338" stroke-width="0.5" stroke-miterlimit="10"/>
<path d="M451.05 74.9501V62.2701L429.67 40.8901H416.57V53.5701L437.96 74.9501H451.05Z" stroke="#333338" stroke-width="0.5" stroke-miterlimit="10"/>
<path d="M492.65 34.32V21.64L471.26 0.25H458.17V12.93L479.55 34.32H492.65Z" stroke="#333338" stroke-width="0.5" stroke-miterlimit="10"/>
<path d="M458.19 74.9501V62.2701L479.57 40.8901H492.66V53.5701L471.28 74.9501H458.19Z" stroke="#333338" stroke-width="0.5" stroke-miterlimit="10"/>
<path d="M499.69 34.31V21.63L521.08 0.25H534.17V12.93L512.79 34.31H499.69Z" stroke="#333338" stroke-width="0.5" stroke-miterlimit="10"/>
<path d="M534.2 74.9501V62.2701L512.82 40.8901H499.73V53.5701L521.11 74.9501H534.2Z" stroke="#333338" stroke-width="0.5" stroke-miterlimit="10"/>
<path d="M575.8 443.37V430.69L554.42 409.3H541.32V421.98L562.71 443.37H575.8Z" stroke="#333338" stroke-width="0.5" stroke-miterlimit="10"/>
<path d="M541.34 484V471.32L562.72 449.94H575.82V462.62L554.43 484H541.34Z" stroke="#333338" stroke-width="0.5" stroke-miterlimit="10"/>
<path d="M582.85 443.36V430.68L604.23 409.3H617.32V421.98L595.94 443.36H582.85Z" stroke="#333338" stroke-width="0.5" stroke-miterlimit="10"/>
<path d="M617.36 484V471.32L595.97 449.94H582.88V462.62L604.26 484H617.36Z" stroke="#333338" stroke-width="0.5" stroke-miterlimit="10"/>
<path d="M658.95 443.37V430.69L637.57 409.3H624.48V421.98L645.86 443.37H658.95Z" stroke="#333338" stroke-width="0.5" stroke-miterlimit="10"/>
<path d="M624.49 484V471.32L645.88 449.94H658.97V462.62L637.59 484H624.49Z" stroke="#333338" stroke-width="0.5" stroke-miterlimit="10"/>
<path d="M666 443.36V430.68L687.38 409.3H700.48V421.98L679.09 443.36H666Z" stroke="#333338" stroke-width="0.5" stroke-miterlimit="10"/>
<path d="M700.51 484V471.32L679.13 449.94H666.03V462.62L687.42 484H700.51Z" stroke="#333338" stroke-width="0.5" stroke-miterlimit="10"/>
<path d="M742.11 443.37V430.69L720.72 409.3H707.63V421.98L729.01 443.37H742.11Z" stroke="#333338" stroke-width="0.5" stroke-miterlimit="10"/>
<path d="M707.65 484V471.32L729.03 449.94H742.12V462.62L720.74 484H707.65Z" stroke="#333338" stroke-width="0.5" stroke-miterlimit="10"/>
<path d="M749.15 443.36V430.68L770.54 409.3H783.63V421.98L762.25 443.36H749.15Z" stroke="#333338" stroke-width="0.5" stroke-miterlimit="10"/>
<path d="M783.66 484V471.32L762.28 449.94H749.19V462.62L770.57 484H783.66Z" stroke="#333338" stroke-width="0.5" stroke-miterlimit="10"/>
<path d="M825.26 443.37V430.69L803.88 409.3H790.78V421.98L812.17 443.37H825.26Z" stroke="#333338" stroke-width="0.5" stroke-miterlimit="10"/>
<path d="M790.8 484V471.32L812.18 449.94H825.28V462.62L803.89 484H790.8Z" stroke="#333338" stroke-width="0.5" stroke-miterlimit="10"/>
<path d="M832.31 443.36V430.68L853.69 409.3H866.78V421.98L845.4 443.36H832.31Z" stroke="#333338" stroke-width="0.5" stroke-miterlimit="10"/>
<path d="M866.82 484V471.32L845.43 449.94H832.34V462.62L853.72 484H866.82Z" stroke="#333338" stroke-width="0.5" stroke-miterlimit="10"/>
<path d="M908.41 443.37V430.69L887.03 409.3H873.94V421.98L895.32 443.37H908.41Z" stroke="#333338" stroke-width="0.5" stroke-miterlimit="10"/>
<path d="M873.95 484V471.32L895.34 449.94H908.43V462.62L887.05 484H873.95Z" stroke="#333338" stroke-width="0.5" stroke-miterlimit="10"/>
<path d="M915.46 443.36V430.68L936.84 409.3H949.94V421.98L928.55 443.36H915.46Z" stroke="#333338" stroke-width="0.5" stroke-miterlimit="10"/>
<path d="M949.97 484V471.32L928.59 449.94H915.49V462.62L936.88 484H949.97Z" stroke="#333338" stroke-width="0.5" stroke-miterlimit="10"/>
<path d="M575.8 361.54V348.86L554.42 327.48H541.32V340.16L562.71 361.54H575.8Z" stroke="#333338" stroke-width="0.5" stroke-miterlimit="10"/>
<path d="M541.34 402.18V389.5L562.72 368.11H575.82V380.79L554.43 402.18H541.34Z" stroke="#333338" stroke-width="0.5" stroke-miterlimit="10"/>
<path d="M582.85 361.54V348.86L604.23 327.47H617.32V340.16L595.94 361.54H582.85Z" stroke="#333338" stroke-width="0.5" stroke-miterlimit="10"/>
<path d="M617.36 402.18V389.5L595.97 368.11H582.88V380.79L604.26 402.18H617.36Z" stroke="#333338" stroke-width="0.5" stroke-miterlimit="10"/>
<path d="M658.95 361.54V348.86L637.57 327.48H624.48V340.16L645.86 361.54H658.95Z" stroke="#333338" stroke-width="0.5" stroke-miterlimit="10"/>
<path d="M624.49 402.18V389.5L645.88 368.11H658.97V380.79L637.59 402.18H624.49Z" stroke="#333338" stroke-width="0.5" stroke-miterlimit="10"/>
<path d="M666 361.54V348.86L687.38 327.47H700.48V340.16L679.09 361.54H666Z" stroke="#333338" stroke-width="0.5" stroke-miterlimit="10"/>
<path d="M700.51 402.18V389.5L679.13 368.11H666.03V380.79L687.42 402.18H700.51Z" stroke="#333338" stroke-width="0.5" stroke-miterlimit="10"/>
<path d="M742.11 361.54V348.86L720.72 327.48H707.63V340.16L729.01 361.54H742.11Z" stroke="#333338" stroke-width="0.5" stroke-miterlimit="10"/>
<path d="M707.65 402.18V389.5L729.03 368.11H742.12V380.79L720.74 402.18H707.65Z" stroke="#333338" stroke-width="0.5" stroke-miterlimit="10"/>
<path d="M749.15 361.54V348.86L770.54 327.47H783.63V340.16L762.25 361.54H749.15Z" stroke="#333338" stroke-width="0.5" stroke-miterlimit="10"/>
<path d="M783.66 402.18V389.5L762.28 368.11H749.19V380.79L770.57 402.18H783.66Z" stroke="#333338" stroke-width="0.5" stroke-miterlimit="10"/>
<path d="M825.26 361.54V348.86L803.88 327.48H790.78V340.16L812.17 361.54H825.26Z" stroke="#333338" stroke-width="0.5" stroke-miterlimit="10"/>
<path d="M790.8 402.18V389.5L812.18 368.11H825.28V380.79L803.89 402.18H790.8Z" stroke="#333338" stroke-width="0.5" stroke-miterlimit="10"/>
<path d="M832.31 361.54V348.86L853.69 327.47H866.78V340.16L845.4 361.54H832.31Z" stroke="#333338" stroke-width="0.5" stroke-miterlimit="10"/>
<path d="M866.82 402.18V389.5L845.43 368.11H832.34V380.79L853.72 402.18H866.82Z" stroke="#333338" stroke-width="0.5" stroke-miterlimit="10"/>
<path d="M908.41 361.54V348.86L887.03 327.48H873.94V340.16L895.32 361.54H908.41Z" stroke="#333338" stroke-width="0.5" stroke-miterlimit="10"/>
<path d="M873.95 402.18V389.5L895.34 368.11H908.43V380.79L887.05 402.18H873.95Z" stroke="#333338" stroke-width="0.5" stroke-miterlimit="10"/>
<path d="M915.46 361.54V348.86L936.84 327.47H949.94V340.16L928.55 361.54H915.46Z" stroke="#333338" stroke-width="0.5" stroke-miterlimit="10"/>
<path d="M949.97 402.18V389.5L928.59 368.11H915.49V380.79L936.88 402.18H949.97Z" stroke="#333338" stroke-width="0.5" stroke-miterlimit="10"/>
<path d="M575.8 116.14V103.46L554.42 82.0801H541.32V94.7601L562.71 116.14H575.8Z" stroke="#333338" stroke-width="0.5" stroke-miterlimit="10"/>
<path d="M541.34 156.77V144.09L562.72 122.71H575.82V135.39L554.43 156.77H541.34Z" stroke="#333338" stroke-width="0.5" stroke-miterlimit="10"/>
<path d="M582.85 116.14V103.46L604.23 82.0698H617.32V94.7498L595.94 116.14H582.85Z" stroke="#333338" stroke-width="0.5" stroke-miterlimit="10"/>
<path d="M617.36 156.77V144.09L595.97 122.71H582.88V135.39L604.26 156.77H617.36Z" stroke="#333338" stroke-width="0.5" stroke-miterlimit="10"/>
<path d="M658.95 116.14V103.46L637.57 82.0801H624.48V94.7601L645.86 116.14H658.95Z" stroke="#333338" stroke-width="0.5" stroke-miterlimit="10"/>
<path d="M624.49 156.77V144.09L645.88 122.71H658.97V135.39L637.59 156.77H624.49Z" stroke="#333338" stroke-width="0.5" stroke-miterlimit="10"/>
<path d="M666 116.14V103.46L687.38 82.0698H700.48V94.7498L679.09 116.14H666Z" stroke="#333338" stroke-width="0.5" stroke-miterlimit="10"/>
<path d="M700.51 156.77V144.09L679.13 122.71H666.03V135.39L687.42 156.77H700.51Z" stroke="#333338" stroke-width="0.5" stroke-miterlimit="10"/>
<path d="M742.11 116.14V103.46L720.72 82.0801H707.63V94.7601L729.01 116.14H742.11Z" stroke="#333338" stroke-width="0.5" stroke-miterlimit="10"/>
<path d="M707.65 156.77V144.09L729.03 122.71H742.12V135.39L720.74 156.77H707.65Z" stroke="#333338" stroke-width="0.5" stroke-miterlimit="10"/>
<path d="M749.15 116.14V103.46L770.54 82.0698H783.63V94.7498L762.25 116.14H749.15Z" stroke="#333338" stroke-width="0.5" stroke-miterlimit="10"/>
<path d="M783.66 156.77V144.09L762.28 122.71H749.19V135.39L770.57 156.77H783.66Z" stroke="#333338" stroke-width="0.5" stroke-miterlimit="10"/>
<path d="M825.26 116.14V103.46L803.88 82.0801H790.78V94.7601L812.17 116.14H825.26Z" stroke="#333338" stroke-width="0.5" stroke-miterlimit="10"/>
<path d="M790.8 156.77V144.09L812.18 122.71H825.28V135.39L803.89 156.77H790.8Z" stroke="#333338" stroke-width="0.5" stroke-miterlimit="10"/>
<path d="M832.31 116.14V103.46L853.69 82.0698H866.78V94.7498L845.4 116.14H832.31Z" stroke="#333338" stroke-width="0.5" stroke-miterlimit="10"/>
<path d="M866.82 156.77V144.09L845.43 122.71H832.34V135.39L853.72 156.77H866.82Z" stroke="#333338" stroke-width="0.5" stroke-miterlimit="10"/>
<path d="M908.41 116.14V103.46L887.03 82.0801H873.94V94.7601L895.32 116.14H908.41Z" stroke="#333338" stroke-width="0.5" stroke-miterlimit="10"/>
<path d="M873.95 156.77V144.09L895.34 122.71H908.43V135.39L887.05 156.77H873.95Z" stroke="#333338" stroke-width="0.5" stroke-miterlimit="10"/>
<path d="M915.46 116.14V103.46L936.84 82.0698H949.94V94.7498L928.55 116.14H915.46Z" stroke="#333338" stroke-width="0.5" stroke-miterlimit="10"/>
<path d="M949.97 156.77V144.09L928.59 122.71H915.49V135.39L936.88 156.77H949.97Z" stroke="#333338" stroke-width="0.5" stroke-miterlimit="10"/>
<path d="M575.8 197.96V185.28L554.42 163.9H541.32V176.58L562.71 197.96H575.8Z" stroke="#333338" stroke-width="0.5" stroke-miterlimit="10"/>
<path d="M541.34 238.6V225.92L562.72 204.53H575.82V217.22L554.43 238.6H541.34Z" stroke="#333338" stroke-width="0.5" stroke-miterlimit="10"/>
<path d="M582.85 197.96V185.28L604.23 163.9H617.32V176.58L595.94 197.96H582.85Z" stroke="#333338" stroke-width="0.5" stroke-miterlimit="10"/>
<path d="M617.36 238.6V225.92L595.97 204.53H582.88V217.22L604.26 238.6H617.36Z" stroke="#333338" stroke-width="0.5" stroke-miterlimit="10"/>
<path d="M658.95 197.96V185.28L637.57 163.9H624.48V176.58L645.86 197.96H658.95Z" stroke="#333338" stroke-width="0.5" stroke-miterlimit="10"/>
<path d="M624.49 238.6V225.92L645.88 204.53H658.97V217.22L637.59 238.6H624.49Z" stroke="#333338" stroke-width="0.5" stroke-miterlimit="10"/>
<path d="M666 197.96V185.28L687.38 163.9H700.48V176.58L679.09 197.96H666Z" stroke="#333338" stroke-width="0.5" stroke-miterlimit="10"/>
<path d="M700.51 238.6V225.92L679.13 204.53H666.03V217.22L687.42 238.6H700.51Z" stroke="#333338" stroke-width="0.5" stroke-miterlimit="10"/>
<path d="M742.11 197.96V185.28L720.72 163.9H707.63V176.58L729.01 197.96H742.11Z" stroke="#333338" stroke-width="0.5" stroke-miterlimit="10"/>
<path d="M707.65 238.6V225.92L729.03 204.53H742.12V217.22L720.74 238.6H707.65Z" stroke="#333338" stroke-width="0.5" stroke-miterlimit="10"/>
<path d="M749.15 197.96V185.28L770.54 163.9H783.63V176.58L762.25 197.96H749.15Z" stroke="#333338" stroke-width="0.5" stroke-miterlimit="10"/>
<path d="M783.66 238.6V225.92L762.28 204.53H749.19V217.22L770.57 238.6H783.66Z" stroke="#333338" stroke-width="0.5" stroke-miterlimit="10"/>
<path d="M825.26 197.96V185.28L803.88 163.9H790.78V176.58L812.17 197.96H825.26Z" stroke="#333338" stroke-width="0.5" stroke-miterlimit="10"/>
<path d="M790.8 238.6V225.92L812.18 204.53H825.28V217.22L803.89 238.6H790.8Z" stroke="#333338" stroke-width="0.5" stroke-miterlimit="10"/>
<path d="M832.31 197.96V185.28L853.69 163.9H866.78V176.58L845.4 197.96H832.31Z" stroke="#333338" stroke-width="0.5" stroke-miterlimit="10"/>
<path d="M866.82 238.6V225.92L845.43 204.53H832.34V217.22L853.72 238.6H866.82Z" stroke="#333338" stroke-width="0.5" stroke-miterlimit="10"/>
<path d="M908.41 197.96V185.28L887.03 163.9H873.94V176.58L895.32 197.96H908.41Z" stroke="#333338" stroke-width="0.5" stroke-miterlimit="10"/>
<path d="M873.95 238.6V225.92L895.34 204.53H908.43V217.22L887.05 238.6H873.95Z" stroke="#333338" stroke-width="0.5" stroke-miterlimit="10"/>
<path d="M915.46 197.96V185.28L936.84 163.9H949.94V176.58L928.55 197.96H915.46Z" stroke="#333338" stroke-width="0.5" stroke-miterlimit="10"/>
<path d="M949.97 238.6V225.92L928.59 204.53H915.49V217.22L936.88 238.6H949.97Z" stroke="#333338" stroke-width="0.5" stroke-miterlimit="10"/>
<path d="M575.8 279.79V267.11L554.42 245.72H541.32V258.4L562.71 279.79H575.8Z" stroke="#333338" stroke-width="0.5" stroke-miterlimit="10"/>
<path d="M541.34 320.42V307.74L562.72 286.36H575.82V299.04L554.43 320.42H541.34Z" stroke="#333338" stroke-width="0.5" stroke-miterlimit="10"/>
<path d="M582.85 279.78V267.1L604.23 245.72H617.32V258.4L595.94 279.78H582.85Z" stroke="#333338" stroke-width="0.5" stroke-miterlimit="10"/>
<path d="M617.36 320.42V307.74L595.97 286.36H582.88V299.04L604.26 320.42H617.36Z" stroke="#333338" stroke-width="0.5" stroke-miterlimit="10"/>
<path d="M658.95 279.79V267.11L637.57 245.72H624.48V258.4L645.86 279.79H658.95Z" stroke="#333338" stroke-width="0.5" stroke-miterlimit="10"/>
<path d="M624.49 320.42V307.74L645.88 286.36H658.97V299.04L637.59 320.42H624.49Z" stroke="#333338" stroke-width="0.5" stroke-miterlimit="10"/>
<path d="M666 279.78V267.1L687.38 245.72H700.48V258.4L679.09 279.78H666Z" stroke="#333338" stroke-width="0.5" stroke-miterlimit="10"/>
<path d="M700.51 320.42V307.74L679.13 286.36H666.03V299.04L687.42 320.42H700.51Z" stroke="#333338" stroke-width="0.5" stroke-miterlimit="10"/>
<path d="M742.11 279.79V267.11L720.72 245.72H707.63V258.4L729.01 279.79H742.11Z" stroke="#333338" stroke-width="0.5" stroke-miterlimit="10"/>
<path d="M707.65 320.42V307.74L729.03 286.36H742.12V299.04L720.74 320.42H707.65Z" stroke="#333338" stroke-width="0.5" stroke-miterlimit="10"/>
<path d="M749.15 279.78V267.1L770.54 245.72H783.63V258.4L762.25 279.78H749.15Z" stroke="#333338" stroke-width="0.5" stroke-miterlimit="10"/>
<path d="M783.66 320.42V307.74L762.28 286.36H749.19V299.04L770.57 320.42H783.66Z" stroke="#333338" stroke-width="0.5" stroke-miterlimit="10"/>
<path d="M825.26 279.79V267.11L803.88 245.72H790.78V258.4L812.17 279.79H825.26Z" stroke="#333338" stroke-width="0.5" stroke-miterlimit="10"/>
<path d="M790.8 320.42V307.74L812.18 286.36H825.28V299.04L803.89 320.42H790.8Z" stroke="#333338" stroke-width="0.5" stroke-miterlimit="10"/>
<path d="M832.31 279.78V267.1L853.69 245.72H866.78V258.4L845.4 279.78H832.31Z" stroke="#333338" stroke-width="0.5" stroke-miterlimit="10"/>
<path d="M866.82 320.42V307.74L845.43 286.36H832.34V299.04L853.72 320.42H866.82Z" stroke="#333338" stroke-width="0.5" stroke-miterlimit="10"/>
<path d="M908.41 279.79V267.11L887.03 245.72H873.94V258.4L895.32 279.79H908.41Z" stroke="#333338" stroke-width="0.5" stroke-miterlimit="10"/>
<path d="M873.95 320.42V307.74L895.34 286.36H908.43V299.04L887.05 320.42H873.95Z" stroke="#333338" stroke-width="0.5" stroke-miterlimit="10"/>
<path d="M915.46 279.78V267.1L936.84 245.72H949.94V258.4L928.55 279.78H915.46Z" stroke="#333338" stroke-width="0.5" stroke-miterlimit="10"/>
<path d="M949.97 320.42V307.74L928.59 286.36H915.49V299.04L936.88 320.42H949.97Z" stroke="#333338" stroke-width="0.5" stroke-miterlimit="10"/>
<path d="M0.77002 770.59V757.91L22.16 736.52H35.25V749.2L13.87 770.59H0.77002Z" stroke="#333338" stroke-width="0.5" stroke-miterlimit="10"/>
<path d="M35.28 811.22V798.54L13.9001 777.16H0.800049V789.84L22.19 811.22H35.28Z" stroke="#333338" stroke-width="0.5" stroke-miterlimit="10"/>
<path d="M76.8799 770.59V757.91L55.4999 736.53H42.3999V749.21L63.7899 770.59H76.8799Z" stroke="#333338" stroke-width="0.5" stroke-miterlimit="10"/>
<path d="M42.4199 811.22V798.54L63.7999 777.16H76.8899V789.84L55.5099 811.22H42.4199Z" stroke="#333338" stroke-width="0.5" stroke-miterlimit="10"/>
<path d="M83.9299 770.59V757.91L105.31 736.52H118.4V749.2L97.0199 770.59H83.9299Z" stroke="#333338" stroke-width="0.5" stroke-miterlimit="10"/>
<path d="M118.43 811.22V798.54L97.05 777.16H83.96V789.84L105.34 811.22H118.43Z" stroke="#333338" stroke-width="0.5" stroke-miterlimit="10"/>
<path d="M160.03 770.59V757.91L138.65 736.53H125.56V749.21L146.94 770.59H160.03Z" stroke="#333338" stroke-width="0.5" stroke-miterlimit="10"/>
<path d="M125.57 811.22V798.54L146.96 777.16H160.05V789.84L138.67 811.22H125.57Z" stroke="#333338" stroke-width="0.5" stroke-miterlimit="10"/>
<path d="M167.08 770.59V757.91L188.46 736.52H201.56V749.2L180.17 770.59H167.08Z" stroke="#333338" stroke-width="0.5" stroke-miterlimit="10"/>
<path d="M201.59 811.22V798.54L180.2 777.16H167.11V789.84L188.49 811.22H201.59Z" stroke="#333338" stroke-width="0.5" stroke-miterlimit="10"/>
<path d="M243.19 770.59V757.91L221.8 736.53H208.71V749.21L230.09 770.59H243.19Z" stroke="#333338" stroke-width="0.5" stroke-miterlimit="10"/>
<path d="M208.73 811.22V798.54L230.11 777.16H243.2V789.84L221.82 811.22H208.73Z" stroke="#333338" stroke-width="0.5" stroke-miterlimit="10"/>
<path d="M250.23 770.59V757.91L271.62 736.52H284.71V749.2L263.33 770.59H250.23Z" stroke="#333338" stroke-width="0.5" stroke-miterlimit="10"/>
<path d="M284.74 811.22V798.54L263.36 777.16H250.27V789.84L271.65 811.22H284.74Z" stroke="#333338" stroke-width="0.5" stroke-miterlimit="10"/>
<path d="M326.34 770.59V757.91L304.96 736.53H291.86V749.21L313.25 770.59H326.34Z" stroke="#333338" stroke-width="0.5" stroke-miterlimit="10"/>
<path d="M291.88 811.22V798.54L313.26 777.16H326.36V789.84L304.97 811.22H291.88Z" stroke="#333338" stroke-width="0.5" stroke-miterlimit="10"/>
<path d="M333.39 770.59V757.91L354.77 736.52H367.86V749.2L346.48 770.59H333.39Z" stroke="#333338" stroke-width="0.5" stroke-miterlimit="10"/>
<path d="M367.89 811.22V798.54L346.51 777.16H333.42V789.84L354.8 811.22H367.89Z" stroke="#333338" stroke-width="0.5" stroke-miterlimit="10"/>
<path d="M409.49 770.59V757.91L388.11 736.53H375.02V749.21L396.4 770.59H409.49Z" stroke="#333338" stroke-width="0.5" stroke-miterlimit="10"/>
<path d="M375.03 811.22V798.54L396.42 777.16H409.51V789.84L388.13 811.22H375.03Z" stroke="#333338" stroke-width="0.5" stroke-miterlimit="10"/>
<path d="M416.54 770.59V757.91L437.92 736.52H451.02V749.2L429.63 770.59H416.54Z" stroke="#333338" stroke-width="0.5" stroke-miterlimit="10"/>
<path d="M451.05 811.22V798.54L429.67 777.16H416.57V789.84L437.96 811.22H451.05Z" stroke="#333338" stroke-width="0.5" stroke-miterlimit="10"/>
<path d="M492.65 770.59V757.91L471.26 736.53H458.17V749.21L479.55 770.59H492.65Z" stroke="#333338" stroke-width="0.5" stroke-miterlimit="10"/>
<path d="M458.19 811.22V798.54L479.57 777.16H492.66V789.84L471.28 811.22H458.19Z" stroke="#333338" stroke-width="0.5" stroke-miterlimit="10"/>
<path d="M499.69 770.59V757.91L521.08 736.52H534.17V749.2L512.79 770.59H499.69Z" stroke="#333338" stroke-width="0.5" stroke-miterlimit="10"/>
<path d="M534.2 811.22V798.54L512.82 777.16H499.73V789.84L521.11 811.22H534.2Z" stroke="#333338" stroke-width="0.5" stroke-miterlimit="10"/>
<path d="M0.77002 688.76V676.08L22.16 654.7H35.25V667.38L13.87 688.76H0.77002Z" stroke="#333338" stroke-width="0.5" stroke-miterlimit="10"/>
<path d="M35.28 729.4V716.72L13.9001 695.34H0.800049V708.02L22.19 729.4H35.28Z" stroke="#333338" stroke-width="0.5" stroke-miterlimit="10"/>
<path d="M76.8799 688.77V676.09L55.4999 654.7H42.3999V667.38L63.7899 688.77H76.8799Z" stroke="#333338" stroke-width="0.5" stroke-miterlimit="10"/>
<path d="M42.4199 729.4V716.72L63.7999 695.34H76.8899V708.02L55.5099 729.4H42.4199Z" stroke="#333338" stroke-width="0.5" stroke-miterlimit="10"/>
<path d="M83.9299 688.76V676.08L105.31 654.7H118.4V667.38L97.0199 688.76H83.9299Z" stroke="#333338" stroke-width="0.5" stroke-miterlimit="10"/>
<path d="M118.43 729.4V716.72L97.05 695.34H83.96V708.02L105.34 729.4H118.43Z" stroke="#333338" stroke-width="0.5" stroke-miterlimit="10"/>
<path d="M160.03 688.77V676.09L138.65 654.7H125.56V667.38L146.94 688.77H160.03Z" stroke="#333338" stroke-width="0.5" stroke-miterlimit="10"/>
<path d="M125.57 729.4V716.72L146.96 695.34H160.05V708.02L138.67 729.4H125.57Z" stroke="#333338" stroke-width="0.5" stroke-miterlimit="10"/>
<path d="M167.08 688.76V676.08L188.46 654.7H201.56V667.38L180.17 688.76H167.08Z" stroke="#333338" stroke-width="0.5" stroke-miterlimit="10"/>
<path d="M201.59 729.4V716.72L180.2 695.34H167.11V708.02L188.49 729.4H201.59Z" stroke="#333338" stroke-width="0.5" stroke-miterlimit="10"/>
<path d="M243.19 688.77V676.09L221.8 654.7H208.71V667.38L230.09 688.77H243.19Z" stroke="#333338" stroke-width="0.5" stroke-miterlimit="10"/>
<path d="M208.73 729.4V716.72L230.11 695.34H243.2V708.02L221.82 729.4H208.73Z" stroke="#333338" stroke-width="0.5" stroke-miterlimit="10"/>
<path d="M250.23 688.76V676.08L271.62 654.7H284.71V667.38L263.33 688.76H250.23Z" stroke="#333338" stroke-width="0.5" stroke-miterlimit="10"/>
<path d="M284.74 729.4V716.72L263.36 695.34H250.27V708.02L271.65 729.4H284.74Z" stroke="#333338" stroke-width="0.5" stroke-miterlimit="10"/>
<path d="M326.34 688.77V676.09L304.96 654.7H291.86V667.38L313.25 688.77H326.34Z" stroke="#333338" stroke-width="0.5" stroke-miterlimit="10"/>
<path d="M291.88 729.4V716.72L313.26 695.34H326.36V708.02L304.97 729.4H291.88Z" stroke="#333338" stroke-width="0.5" stroke-miterlimit="10"/>
<path d="M333.39 688.76V676.08L354.77 654.7H367.86V667.38L346.48 688.76H333.39Z" stroke="#333338" stroke-width="0.5" stroke-miterlimit="10"/>
<path d="M367.89 729.4V716.72L346.51 695.34H333.42V708.02L354.8 729.4H367.89Z" stroke="#333338" stroke-width="0.5" stroke-miterlimit="10"/>
<path d="M409.49 688.77V676.09L388.11 654.7H375.02V667.38L396.4 688.77H409.49Z" stroke="#333338" stroke-width="0.5" stroke-miterlimit="10"/>
<path d="M375.03 729.4V716.72L396.42 695.34H409.51V708.02L388.13 729.4H375.03Z" stroke="#333338" stroke-width="0.5" stroke-miterlimit="10"/>
<path d="M416.54 688.76V676.08L437.92 654.7H451.02V667.38L429.63 688.76H416.54Z" stroke="#333338" stroke-width="0.5" stroke-miterlimit="10"/>
<path d="M451.05 729.4V716.72L429.67 695.34H416.57V708.02L437.96 729.4H451.05Z" stroke="#333338" stroke-width="0.5" stroke-miterlimit="10"/>
<path d="M492.65 688.77V676.09L471.26 654.7H458.17V667.38L479.55 688.77H492.65Z" stroke="#333338" stroke-width="0.5" stroke-miterlimit="10"/>
<path d="M458.19 729.4V716.72L479.57 695.34H492.66V708.02L471.28 729.4H458.19Z" stroke="#333338" stroke-width="0.5" stroke-miterlimit="10"/>
<path d="M499.69 688.76V676.08L521.08 654.7H534.17V667.38L512.79 688.76H499.69Z" stroke="#333338" stroke-width="0.5" stroke-miterlimit="10"/>
<path d="M534.2 729.4V716.72L512.82 695.34H499.73V708.02L521.11 729.4H534.2Z" stroke="#333338" stroke-width="0.5" stroke-miterlimit="10"/>
<path d="M35.28 565.82V553.14L13.9001 531.76H0.800049V544.44L22.19 565.82H35.28Z" stroke="#333338" stroke-width="0.5" stroke-miterlimit="10"/>
<path d="M76.8799 525.19V512.51L55.4999 491.13H42.3999V503.81L63.7899 525.19H76.8799Z" stroke="#333338" stroke-width="0.5" stroke-miterlimit="10"/>
<path d="M42.4199 565.82V553.14L63.7999 531.76H76.8899V544.44L55.5099 565.82H42.4199Z" stroke="#333338" stroke-width="0.5" stroke-miterlimit="10"/>
<path d="M83.9299 525.19V512.51L105.31 491.12H118.4V503.8L97.0199 525.19H83.9299Z" stroke="#333338" stroke-width="0.5" stroke-miterlimit="10"/>
<path d="M118.43 565.82V553.14L97.05 531.76H83.96V544.44L105.34 565.82H118.43Z" stroke="#333338" stroke-width="0.5" stroke-miterlimit="10"/>
<path d="M160.03 525.19V512.51L138.65 491.13H125.56V503.81L146.94 525.19H160.03Z" stroke="#333338" stroke-width="0.5" stroke-miterlimit="10"/>
<path d="M125.57 565.82V553.14L146.96 531.76H160.05V544.44L138.67 565.82H125.57Z" stroke="#333338" stroke-width="0.5" stroke-miterlimit="10"/>
<path d="M167.08 525.19V512.51L188.46 491.12H201.56V503.8L180.17 525.19H167.08Z" stroke="#333338" stroke-width="0.5" stroke-miterlimit="10"/>
<path d="M201.59 565.82V553.14L180.2 531.76H167.11V544.44L188.49 565.82H201.59Z" stroke="#333338" stroke-width="0.5" stroke-miterlimit="10"/>
<path d="M243.19 525.19V512.51L221.8 491.13H208.71V503.81L230.09 525.19H243.19Z" stroke="#333338" stroke-width="0.5" stroke-miterlimit="10"/>
<path d="M208.73 565.82V553.14L230.11 531.76H243.2V544.44L221.82 565.82H208.73Z" stroke="#333338" stroke-width="0.5" stroke-miterlimit="10"/>
<path d="M250.23 525.19V512.51L271.62 491.12H284.71V503.8L263.33 525.19H250.23Z" stroke="#333338" stroke-width="0.5" stroke-miterlimit="10"/>
<path d="M284.74 565.82V553.14L263.36 531.76H250.27V544.44L271.65 565.82H284.74Z" stroke="#333338" stroke-width="0.5" stroke-miterlimit="10"/>
<path d="M326.34 525.19V512.51L304.96 491.13H291.86V503.81L313.25 525.19H326.34Z" stroke="#333338" stroke-width="0.5" stroke-miterlimit="10"/>
<path d="M291.88 565.82V553.14L313.26 531.76H326.36V544.44L304.97 565.82H291.88Z" stroke="#333338" stroke-width="0.5" stroke-miterlimit="10"/>
<path d="M333.39 525.19V512.51L354.77 491.12H367.86V503.8L346.48 525.19H333.39Z" stroke="#333338" stroke-width="0.5" stroke-miterlimit="10"/>
<path d="M367.89 565.82V553.14L346.51 531.76H333.42V544.44L354.8 565.82H367.89Z" stroke="#333338" stroke-width="0.5" stroke-miterlimit="10"/>
<path d="M409.49 525.19V512.51L388.11 491.13H375.02V503.81L396.4 525.19H409.49Z" stroke="#333338" stroke-width="0.5" stroke-miterlimit="10"/>
<path d="M375.03 565.82V553.14L396.42 531.76H409.51V544.44L388.13 565.82H375.03Z" stroke="#333338" stroke-width="0.5" stroke-miterlimit="10"/>
<path d="M416.54 525.19V512.51L437.92 491.12H451.02V503.8L429.63 525.19H416.54Z" stroke="#333338" stroke-width="0.5" stroke-miterlimit="10"/>
<path d="M451.05 565.82V553.14L429.67 531.76H416.57V544.44L437.96 565.82H451.05Z" stroke="#333338" stroke-width="0.5" stroke-miterlimit="10"/>
<path d="M492.65 525.19V512.51L471.26 491.13H458.17V503.81L479.55 525.19H492.65Z" stroke="#333338" stroke-width="0.5" stroke-miterlimit="10"/>
<path d="M458.19 565.82V553.14L479.57 531.76H492.66V544.44L471.28 565.82H458.19Z" stroke="#333338" stroke-width="0.5" stroke-miterlimit="10"/>
<path d="M499.69 525.19V512.51L521.08 491.12H534.17V503.8L512.79 525.19H499.69Z" stroke="#333338" stroke-width="0.5" stroke-miterlimit="10"/>
<path d="M534.2 565.82V553.14L512.82 531.76H499.73V544.44L521.11 565.82H534.2Z" stroke="#333338" stroke-width="0.5" stroke-miterlimit="10"/>
<path d="M0.77002 607.01V594.33L22.16 572.95H35.25V585.63L13.87 607.01H0.77002Z" stroke="#333338" stroke-width="0.5" stroke-miterlimit="10"/>
<path d="M76.8799 607.01V594.33L55.4999 572.95H42.3999V585.63L63.7899 607.01H76.8799Z" stroke="#333338" stroke-width="0.5" stroke-miterlimit="10"/>
<path d="M35.25 647.65V634.97L13.87 613.58H0.77002V626.26L22.16 647.65H35.25Z" stroke="#333338" stroke-width="0.5" stroke-miterlimit="10"/>
<path d="M42.4199 647.65V634.97L63.7999 613.58H76.8899V626.26L55.5099 647.65H42.4199Z" stroke="#333338" stroke-width="0.5" stroke-miterlimit="10"/>
<path d="M0.77002 525.19V512.51L22.16 491.12H35.25V503.8L13.87 525.19H0.77002Z" stroke="#333338" stroke-width="0.5" stroke-miterlimit="10"/>
<path d="M83.9299 607.01V594.33L105.31 572.95H118.4V585.63L97.0199 607.01H83.9299Z" stroke="#333338" stroke-width="0.5" stroke-miterlimit="10"/>
<path d="M118.43 647.65V634.97L97.05 613.58H83.96V626.26L105.34 647.65H118.43Z" stroke="#333338" stroke-width="0.5" stroke-miterlimit="10"/>
<path d="M160.03 607.01V594.33L138.65 572.95H125.56V585.63L146.94 607.01H160.03Z" stroke="#333338" stroke-width="0.5" stroke-miterlimit="10"/>
<path d="M125.57 647.65V634.97L146.96 613.58H160.05V626.26L138.67 647.65H125.57Z" stroke="#333338" stroke-width="0.5" stroke-miterlimit="10"/>
<path d="M167.08 607.01V594.33L188.46 572.95H201.56V585.63L180.17 607.01H167.08Z" stroke="#333338" stroke-width="0.5" stroke-miterlimit="10"/>
<path d="M201.59 647.65V634.97L180.2 613.58H167.11V626.26L188.49 647.65H201.59Z" stroke="#333338" stroke-width="0.5" stroke-miterlimit="10"/>
<path d="M243.19 607.01V594.33L221.8 572.95H208.71V585.63L230.09 607.01H243.19Z" stroke="#333338" stroke-width="0.5" stroke-miterlimit="10"/>
<path d="M208.73 647.65V634.97L230.11 613.58H243.2V626.26L221.82 647.65H208.73Z" stroke="#333338" stroke-width="0.5" stroke-miterlimit="10"/>
<path d="M250.23 607.01V594.33L271.62 572.95H284.71V585.63L263.33 607.01H250.23Z" stroke="#333338" stroke-width="0.5" stroke-miterlimit="10"/>
<path d="M284.74 647.65V634.97L263.36 613.58H250.27V626.26L271.65 647.65H284.74Z" stroke="#333338" stroke-width="0.5" stroke-miterlimit="10"/>
<path d="M326.34 607.01V594.33L304.96 572.95H291.86V585.63L313.25 607.01H326.34Z" stroke="#333338" stroke-width="0.5" stroke-miterlimit="10"/>
<path d="M291.88 647.65V634.97L313.26 613.58H326.36V626.26L304.97 647.65H291.88Z" stroke="#333338" stroke-width="0.5" stroke-miterlimit="10"/>
<path d="M333.39 607.01V594.33L354.77 572.95H367.86V585.63L346.48 607.01H333.39Z" stroke="#333338" stroke-width="0.5" stroke-miterlimit="10"/>
<path d="M367.89 647.65V634.97L346.51 613.58H333.42V626.26L354.8 647.65H367.89Z" stroke="#333338" stroke-width="0.5" stroke-miterlimit="10"/>
<path d="M409.49 607.01V594.33L388.11 572.95H375.02V585.63L396.4 607.01H409.49Z" stroke="#333338" stroke-width="0.5" stroke-miterlimit="10"/>
<path d="M375.03 647.65V634.97L396.42 613.58H409.51V626.26L388.13 647.65H375.03Z" stroke="#333338" stroke-width="0.5" stroke-miterlimit="10"/>
<path d="M416.54 607.01V594.33L437.92 572.95H451.02V585.63L429.63 607.01H416.54Z" stroke="#333338" stroke-width="0.5" stroke-miterlimit="10"/>
<path d="M451.05 647.65V634.97L429.67 613.58H416.57V626.26L437.96 647.65H451.05Z" stroke="#333338" stroke-width="0.5" stroke-miterlimit="10"/>
<path d="M492.65 607.01V594.33L471.26 572.95H458.17V585.63L479.55 607.01H492.65Z" stroke="#333338" stroke-width="0.5" stroke-miterlimit="10"/>
<path d="M458.19 647.65V634.97L479.57 613.58H492.66V626.26L471.28 647.65H458.19Z" stroke="#333338" stroke-width="0.5" stroke-miterlimit="10"/>
<path d="M499.69 607.01V594.33L521.08 572.95H534.17V585.63L512.79 607.01H499.69Z" stroke="#333338" stroke-width="0.5" stroke-miterlimit="10"/>
<path d="M534.2 647.65V634.97L512.82 613.58H499.73V626.26L521.11 647.65H534.2Z" stroke="#333338" stroke-width="0.5" stroke-miterlimit="10"/>
<path d="M575.8 770.59V757.91L554.42 736.53H541.32V749.21L562.71 770.59H575.8Z" stroke="#333338" stroke-width="0.5" stroke-miterlimit="10"/>
<path d="M541.34 811.22V798.54L562.72 777.16H575.82V789.84L554.43 811.22H541.34Z" stroke="#333338" stroke-width="0.5" stroke-miterlimit="10"/>
<path d="M582.85 770.59V757.91L604.23 736.52H617.32V749.2L595.94 770.59H582.85Z" stroke="#333338" stroke-width="0.5" stroke-miterlimit="10"/>
<path d="M617.36 811.22V798.54L595.97 777.16H582.88V789.84L604.26 811.22H617.36Z" stroke="#333338" stroke-width="0.5" stroke-miterlimit="10"/>
<path d="M658.95 770.59V757.91L637.57 736.53H624.48V749.21L645.86 770.59H658.95Z" stroke="#333338" stroke-width="0.5" stroke-miterlimit="10"/>
<path d="M624.49 811.22V798.54L645.88 777.16H658.97V789.84L637.59 811.22H624.49Z" stroke="#333338" stroke-width="0.5" stroke-miterlimit="10"/>
<path d="M666 770.59V757.91L687.38 736.52H700.48V749.2L679.09 770.59H666Z" stroke="#333338" stroke-width="0.5" stroke-miterlimit="10"/>
<path d="M700.51 811.22V798.54L679.13 777.16H666.03V789.84L687.42 811.22H700.51Z" stroke="#333338" stroke-width="0.5" stroke-miterlimit="10"/>
<path d="M742.11 770.59V757.91L720.72 736.53H707.63V749.21L729.01 770.59H742.11Z" stroke="#333338" stroke-width="0.5" stroke-miterlimit="10"/>
<path d="M707.65 811.22V798.54L729.03 777.16H742.12V789.84L720.74 811.22H707.65Z" stroke="#333338" stroke-width="0.5" stroke-miterlimit="10"/>
<path d="M749.15 770.59V757.91L770.54 736.52H783.63V749.2L762.25 770.59H749.15Z" stroke="#333338" stroke-width="0.5" stroke-miterlimit="10"/>
<path d="M783.66 811.22V798.54L762.28 777.16H749.19V789.84L770.57 811.22H783.66Z" stroke="#333338" stroke-width="0.5" stroke-miterlimit="10"/>
<path d="M825.26 770.59V757.91L803.88 736.53H790.78V749.21L812.17 770.59H825.26Z" stroke="#333338" stroke-width="0.5" stroke-miterlimit="10"/>
<path d="M790.8 811.22V798.54L812.18 777.16H825.28V789.84L803.89 811.22H790.8Z" stroke="#333338" stroke-width="0.5" stroke-miterlimit="10"/>
<path d="M832.31 770.59V757.91L853.69 736.52H866.78V749.2L845.4 770.59H832.31Z" stroke="#333338" stroke-width="0.5" stroke-miterlimit="10"/>
<path d="M866.82 811.22V798.54L845.43 777.16H832.34V789.84L853.72 811.22H866.82Z" stroke="#333338" stroke-width="0.5" stroke-miterlimit="10"/>
<path d="M908.41 770.59V757.91L887.03 736.53H873.94V749.21L895.32 770.59H908.41Z" stroke="#333338" stroke-width="0.5" stroke-miterlimit="10"/>
<path d="M873.95 811.22V798.54L895.34 777.16H908.43V789.84L887.05 811.22H873.95Z" stroke="#333338" stroke-width="0.5" stroke-miterlimit="10"/>
<path d="M915.46 770.59V757.91L936.84 736.52H949.94V749.2L928.55 770.59H915.46Z" stroke="#333338" stroke-width="0.5" stroke-miterlimit="10"/>
<path d="M949.97 811.22V798.54L928.59 777.16H915.49V789.84L936.88 811.22H949.97Z" stroke="#333338" stroke-width="0.5" stroke-miterlimit="10"/>
<path d="M575.8 688.77V676.09L554.42 654.7H541.32V667.38L562.71 688.77H575.8Z" stroke="#333338" stroke-width="0.5" stroke-miterlimit="10"/>
<path d="M541.34 729.4V716.72L562.72 695.34H575.82V708.02L554.43 729.4H541.34Z" stroke="#333338" stroke-width="0.5" stroke-miterlimit="10"/>
<path d="M582.85 688.76V676.08L604.23 654.7H617.32V667.38L595.94 688.76H582.85Z" stroke="#333338" stroke-width="0.5" stroke-miterlimit="10"/>
<path d="M617.36 729.4V716.72L595.97 695.34H582.88V708.02L604.26 729.4H617.36Z" stroke="#333338" stroke-width="0.5" stroke-miterlimit="10"/>
<path d="M658.95 688.77V676.09L637.57 654.7H624.48V667.38L645.86 688.77H658.95Z" stroke="#333338" stroke-width="0.5" stroke-miterlimit="10"/>
<path d="M624.49 729.4V716.72L645.88 695.34H658.97V708.02L637.59 729.4H624.49Z" stroke="#333338" stroke-width="0.5" stroke-miterlimit="10"/>
<path d="M666 688.76V676.08L687.38 654.7H700.48V667.38L679.09 688.76H666Z" stroke="#333338" stroke-width="0.5" stroke-miterlimit="10"/>
<path d="M700.51 729.4V716.72L679.13 695.34H666.03V708.02L687.42 729.4H700.51Z" stroke="#333338" stroke-width="0.5" stroke-miterlimit="10"/>
<path d="M742.11 688.77V676.09L720.72 654.7H707.63V667.38L729.01 688.77H742.11Z" stroke="#333338" stroke-width="0.5" stroke-miterlimit="10"/>
<path d="M707.65 729.4V716.72L729.03 695.34H742.12V708.02L720.74 729.4H707.65Z" stroke="#333338" stroke-width="0.5" stroke-miterlimit="10"/>
<path d="M749.15 688.76V676.08L770.54 654.7H783.63V667.38L762.25 688.76H749.15Z" stroke="#333338" stroke-width="0.5" stroke-miterlimit="10"/>
<path d="M783.66 729.4V716.72L762.28 695.34H749.19V708.02L770.57 729.4H783.66Z" stroke="#333338" stroke-width="0.5" stroke-miterlimit="10"/>
<path d="M825.26 688.77V676.09L803.88 654.7H790.78V667.38L812.17 688.77H825.26Z" stroke="#333338" stroke-width="0.5" stroke-miterlimit="10"/>
<path d="M790.8 729.4V716.72L812.18 695.34H825.28V708.02L803.89 729.4H790.8Z" stroke="#333338" stroke-width="0.5" stroke-miterlimit="10"/>
<path d="M832.31 688.76V676.08L853.69 654.7H866.78V667.38L845.4 688.76H832.31Z" stroke="#333338" stroke-width="0.5" stroke-miterlimit="10"/>
<path d="M866.82 729.4V716.72L845.43 695.34H832.34V708.02L853.72 729.4H866.82Z" stroke="#333338" stroke-width="0.5" stroke-miterlimit="10"/>
<path d="M908.41 688.77V676.09L887.03 654.7H873.94V667.38L895.32 688.77H908.41Z" stroke="#333338" stroke-width="0.5" stroke-miterlimit="10"/>
<path d="M873.95 729.4V716.72L895.34 695.34H908.43V708.02L887.05 729.4H873.95Z" stroke="#333338" stroke-width="0.5" stroke-miterlimit="10"/>
<path d="M915.46 688.76V676.08L936.84 654.7H949.94V667.38L928.55 688.76H915.46Z" stroke="#333338" stroke-width="0.5" stroke-miterlimit="10"/>
<path d="M949.97 729.4V716.72L928.59 695.34H915.49V708.02L936.88 729.4H949.97Z" stroke="#333338" stroke-width="0.5" stroke-miterlimit="10"/>
<path d="M575.8 525.19V512.51L554.42 491.13H541.32V503.81L562.71 525.19H575.8Z" stroke="#333338" stroke-width="0.5" stroke-miterlimit="10"/>
<path d="M541.34 565.82V553.14L562.72 531.76H575.82V544.44L554.43 565.82H541.34Z" stroke="#333338" stroke-width="0.5" stroke-miterlimit="10"/>
<path d="M582.85 525.19V512.51L604.23 491.12H617.32V503.8L595.94 525.19H582.85Z" stroke="#333338" stroke-width="0.5" stroke-miterlimit="10"/>
<path d="M617.36 565.82V553.14L595.97 531.76H582.88V544.44L604.26 565.82H617.36Z" stroke="#333338" stroke-width="0.5" stroke-miterlimit="10"/>
<path d="M658.95 525.19V512.51L637.57 491.13H624.48V503.81L645.86 525.19H658.95Z" stroke="#333338" stroke-width="0.5" stroke-miterlimit="10"/>
<path d="M624.49 565.82V553.14L645.88 531.76H658.97V544.44L637.59 565.82H624.49Z" stroke="#333338" stroke-width="0.5" stroke-miterlimit="10"/>
<path d="M666 525.19V512.51L687.38 491.12H700.48V503.8L679.09 525.19H666Z" stroke="#333338" stroke-width="0.5" stroke-miterlimit="10"/>
<path d="M700.51 565.82V553.14L679.13 531.76H666.03V544.44L687.42 565.82H700.51Z" stroke="#333338" stroke-width="0.5" stroke-miterlimit="10"/>
<path d="M742.11 525.19V512.51L720.72 491.13H707.63V503.81L729.01 525.19H742.11Z" stroke="#333338" stroke-width="0.5" stroke-miterlimit="10"/>
<path d="M707.65 565.82V553.14L729.03 531.76H742.12V544.44L720.74 565.82H707.65Z" stroke="#333338" stroke-width="0.5" stroke-miterlimit="10"/>
<path d="M749.15 525.19V512.51L770.54 491.12H783.63V503.8L762.25 525.19H749.15Z" stroke="#333338" stroke-width="0.5" stroke-miterlimit="10"/>
<path d="M783.66 565.82V553.14L762.28 531.76H749.19V544.44L770.57 565.82H783.66Z" stroke="#333338" stroke-width="0.5" stroke-miterlimit="10"/>
<path d="M825.26 525.19V512.51L803.88 491.13H790.78V503.81L812.17 525.19H825.26Z" stroke="#333338" stroke-width="0.5" stroke-miterlimit="10"/>
<path d="M790.8 565.82V553.14L812.18 531.76H825.28V544.44L803.89 565.82H790.8Z" stroke="#333338" stroke-width="0.5" stroke-miterlimit="10"/>
<path d="M832.31 525.19V512.51L853.69 491.12H866.78V503.8L845.4 525.19H832.31Z" stroke="#333338" stroke-width="0.5" stroke-miterlimit="10"/>
<path d="M866.82 565.82V553.14L845.43 531.76H832.34V544.44L853.72 565.82H866.82Z" stroke="#333338" stroke-width="0.5" stroke-miterlimit="10"/>
<path d="M908.41 525.19V512.51L887.03 491.13H873.94V503.81L895.32 525.19H908.41Z" stroke="#333338" stroke-width="0.5" stroke-miterlimit="10"/>
<path d="M873.95 565.82V553.14L895.34 531.76H908.43V544.44L887.05 565.82H873.95Z" stroke="#333338" stroke-width="0.5" stroke-miterlimit="10"/>
<path d="M915.46 525.19V512.51L936.84 491.12H949.94V503.8L928.55 525.19H915.46Z" stroke="#333338" stroke-width="0.5" stroke-miterlimit="10"/>
<path d="M949.97 565.82V553.14L928.59 531.76H915.49V544.44L936.88 565.82H949.97Z" stroke="#333338" stroke-width="0.5" stroke-miterlimit="10"/>
<path d="M575.8 607.01V594.33L554.42 572.95H541.32V585.63L562.71 607.01H575.8Z" stroke="#333338" stroke-width="0.5" stroke-miterlimit="10"/>
<path d="M541.34 647.65V634.97L562.72 613.58H575.82V626.26L554.43 647.65H541.34Z" stroke="#333338" stroke-width="0.5" stroke-miterlimit="10"/>
<path d="M582.85 607.01V594.33L604.23 572.95H617.32V585.63L595.94 607.01H582.85Z" stroke="#333338" stroke-width="0.5" stroke-miterlimit="10"/>
<path d="M617.36 647.65V634.97L595.97 613.58H582.88V626.26L604.26 647.65H617.36Z" stroke="#333338" stroke-width="0.5" stroke-miterlimit="10"/>
<path d="M658.95 607.01V594.33L637.57 572.95H624.48V585.63L645.86 607.01H658.95Z" stroke="#333338" stroke-width="0.5" stroke-miterlimit="10"/>
<path d="M624.49 647.65V634.97L645.88 613.58H658.97V626.26L637.59 647.65H624.49Z" stroke="#333338" stroke-width="0.5" stroke-miterlimit="10"/>
<path d="M666 607.01V594.33L687.38 572.95H700.48V585.63L679.09 607.01H666Z" stroke="#333338" stroke-width="0.5" stroke-miterlimit="10"/>
<path d="M700.51 647.65V634.97L679.13 613.58H666.03V626.26L687.42 647.65H700.51Z" stroke="#333338" stroke-width="0.5" stroke-miterlimit="10"/>
<path d="M742.11 607.01V594.33L720.72 572.95H707.63V585.63L729.01 607.01H742.11Z" stroke="#333338" stroke-width="0.5" stroke-miterlimit="10"/>
<path d="M707.65 647.65V634.97L729.03 613.58H742.12V626.26L720.74 647.65H707.65Z" stroke="#333338" stroke-width="0.5" stroke-miterlimit="10"/>
<path d="M749.15 607.01V594.33L770.54 572.95H783.63V585.63L762.25 607.01H749.15Z" stroke="#333338" stroke-width="0.5" stroke-miterlimit="10"/>
<path d="M783.66 647.65V634.97L762.28 613.58H749.19V626.26L770.57 647.65H783.66Z" stroke="#333338" stroke-width="0.5" stroke-miterlimit="10"/>
<path d="M825.26 607.01V594.33L803.88 572.95H790.78V585.63L812.17 607.01H825.26Z" stroke="#333338" stroke-width="0.5" stroke-miterlimit="10"/>
<path d="M790.8 647.65V634.97L812.18 613.58H825.28V626.26L803.89 647.65H790.8Z" stroke="#333338" stroke-width="0.5" stroke-miterlimit="10"/>
<path d="M832.31 607.01V594.33L853.69 572.95H866.78V585.63L845.4 607.01H832.31Z" stroke="#333338" stroke-width="0.5" stroke-miterlimit="10"/>
<path d="M866.82 647.65V634.97L845.43 613.58H832.34V626.26L853.72 647.65H866.82Z" stroke="#333338" stroke-width="0.5" stroke-miterlimit="10"/>
<path d="M908.41 607.01V594.33L887.03 572.95H873.94V585.63L895.32 607.01H908.41Z" stroke="#333338" stroke-width="0.5" stroke-miterlimit="10"/>
<path d="M873.95 647.65V634.97L895.34 613.58H908.43V626.26L887.05 647.65H873.95Z" stroke="#333338" stroke-width="0.5" stroke-miterlimit="10"/>
<path d="M915.46 607.01V594.33L936.84 572.95H949.94V585.63L928.55 607.01H915.46Z" stroke="#333338" stroke-width="0.5" stroke-miterlimit="10"/>
<path d="M949.97 647.65V634.97L928.59 613.58H915.49V626.26L936.88 647.65H949.97Z" stroke="#333338" stroke-width="0.5" stroke-miterlimit="10"/>
<path d="M35.28 893.05V880.37L13.9001 858.98H0.800049V871.67L22.19 893.05H35.28Z" stroke="#333338" stroke-width="0.5" stroke-miterlimit="10"/>
<path d="M76.8799 852.41V839.73L55.4999 818.35H42.3999V831.03L63.7899 852.41H76.8799Z" stroke="#333338" stroke-width="0.5" stroke-miterlimit="10"/>
<path d="M42.4199 893.05V880.37L63.7999 858.98H76.8899V871.67L55.5099 893.05H42.4199Z" stroke="#333338" stroke-width="0.5" stroke-miterlimit="10"/>
<path d="M83.9299 852.41V839.73L105.31 818.35H118.4V831.03L97.0199 852.41H83.9299Z" stroke="#333338" stroke-width="0.5" stroke-miterlimit="10"/>
<path d="M118.43 893.05V880.37L97.05 858.98H83.96V871.67L105.34 893.05H118.43Z" stroke="#333338" stroke-width="0.5" stroke-miterlimit="10"/>
<path d="M160.03 852.41V839.73L138.65 818.35H125.56V831.03L146.94 852.41H160.03Z" stroke="#333338" stroke-width="0.5" stroke-miterlimit="10"/>
<path d="M125.57 893.05V880.37L146.96 858.98H160.05V871.67L138.67 893.05H125.57Z" stroke="#333338" stroke-width="0.5" stroke-miterlimit="10"/>
<path d="M167.08 852.41V839.73L188.46 818.35H201.56V831.03L180.17 852.41H167.08Z" stroke="#333338" stroke-width="0.5" stroke-miterlimit="10"/>
<path d="M201.59 893.05V880.37L180.2 858.98H167.11V871.67L188.49 893.05H201.59Z" stroke="#333338" stroke-width="0.5" stroke-miterlimit="10"/>
<path d="M243.19 852.41V839.73L221.8 818.35H208.71V831.03L230.09 852.41H243.19Z" stroke="#333338" stroke-width="0.5" stroke-miterlimit="10"/>
<path d="M208.73 893.05V880.37L230.11 858.98H243.2V871.67L221.82 893.05H208.73Z" stroke="#333338" stroke-width="0.5" stroke-miterlimit="10"/>
<path d="M250.23 852.41V839.73L271.62 818.35H284.71V831.03L263.33 852.41H250.23Z" stroke="#333338" stroke-width="0.5" stroke-miterlimit="10"/>
<path d="M284.74 893.05V880.37L263.36 858.98H250.27V871.67L271.65 893.05H284.74Z" stroke="#333338" stroke-width="0.5" stroke-miterlimit="10"/>
<path d="M326.34 852.41V839.73L304.96 818.35H291.86V831.03L313.25 852.41H326.34Z" stroke="#333338" stroke-width="0.5" stroke-miterlimit="10"/>
<path d="M291.88 893.05V880.37L313.26 858.98H326.36V871.67L304.97 893.05H291.88Z" stroke="#333338" stroke-width="0.5" stroke-miterlimit="10"/>
<path d="M333.39 852.41V839.73L354.77 818.35H367.86V831.03L346.48 852.41H333.39Z" stroke="#333338" stroke-width="0.5" stroke-miterlimit="10"/>
<path d="M367.89 893.05V880.37L346.51 858.98H333.42V871.67L354.8 893.05H367.89Z" stroke="#333338" stroke-width="0.5" stroke-miterlimit="10"/>
<path d="M409.49 852.41V839.73L388.11 818.35H375.02V831.03L396.4 852.41H409.49Z" stroke="#333338" stroke-width="0.5" stroke-miterlimit="10"/>
<path d="M375.03 893.05V880.37L396.42 858.98H409.51V871.67L388.13 893.05H375.03Z" stroke="#333338" stroke-width="0.5" stroke-miterlimit="10"/>
<path d="M416.54 852.41V839.73L437.92 818.35H451.02V831.03L429.63 852.41H416.54Z" stroke="#333338" stroke-width="0.5" stroke-miterlimit="10"/>
<path d="M451.05 893.05V880.37L429.67 858.98H416.57V871.67L437.96 893.05H451.05Z" stroke="#333338" stroke-width="0.5" stroke-miterlimit="10"/>
<path d="M492.65 852.41V839.73L471.26 818.35H458.17V831.03L479.55 852.41H492.65Z" stroke="#333338" stroke-width="0.5" stroke-miterlimit="10"/>
<path d="M458.19 893.05V880.37L479.57 858.98H492.66V871.67L471.28 893.05H458.19Z" stroke="#333338" stroke-width="0.5" stroke-miterlimit="10"/>
<path d="M499.69 852.41V839.73L521.08 818.35H534.17V831.03L512.79 852.41H499.69Z" stroke="#333338" stroke-width="0.5" stroke-miterlimit="10"/>
<path d="M534.2 893.05V880.37L512.82 858.98H499.73V871.67L521.11 893.05H534.2Z" stroke="#333338" stroke-width="0.5" stroke-miterlimit="10"/>
<path d="M0.77002 934.23V921.55L22.16 900.17H35.25V912.85L13.87 934.23H0.77002Z" stroke="#333338" stroke-width="0.5" stroke-miterlimit="10"/>
<path d="M76.8799 934.24V921.56L55.4999 900.17H42.3999V912.85L63.7899 934.24H76.8799Z" stroke="#333338" stroke-width="0.5" stroke-miterlimit="10"/>
<path d="M0.77002 852.41V839.73L22.16 818.35H35.25V831.03L13.87 852.41H0.77002Z" stroke="#333338" stroke-width="0.5" stroke-miterlimit="10"/>
<path d="M83.9299 934.23V921.55L105.31 900.17H118.4V912.85L97.0199 934.23H83.9299Z" stroke="#333338" stroke-width="0.5" stroke-miterlimit="10"/>
<path d="M160.03 934.24V921.56L138.65 900.17H125.56V912.85L146.94 934.24H160.03Z" stroke="#333338" stroke-width="0.5" stroke-miterlimit="10"/>
<path d="M167.08 934.23V921.55L188.46 900.17H201.56V912.85L180.17 934.23H167.08Z" stroke="#333338" stroke-width="0.5" stroke-miterlimit="10"/>
<path d="M243.19 934.24V921.56L221.8 900.17H208.71V912.85L230.09 934.24H243.19Z" stroke="#333338" stroke-width="0.5" stroke-miterlimit="10"/>
<path d="M250.23 934.23V921.55L271.62 900.17H284.71V912.85L263.33 934.23H250.23Z" stroke="#333338" stroke-width="0.5" stroke-miterlimit="10"/>
<path d="M326.34 934.24V921.56L304.96 900.17H291.86V912.85L313.25 934.24H326.34Z" stroke="#333338" stroke-width="0.5" stroke-miterlimit="10"/>
<path d="M333.39 934.23V921.55L354.77 900.17H367.86V912.85L346.48 934.23H333.39Z" stroke="#333338" stroke-width="0.5" stroke-miterlimit="10"/>
<path d="M409.49 934.24V921.56L388.11 900.17H375.02V912.85L396.4 934.24H409.49Z" stroke="#333338" stroke-width="0.5" stroke-miterlimit="10"/>
<path d="M416.54 934.23V921.55L437.92 900.17H451.02V912.85L429.63 934.23H416.54Z" stroke="#333338" stroke-width="0.5" stroke-miterlimit="10"/>
<path d="M492.65 934.24V921.56L471.26 900.17H458.17V912.85L479.55 934.24H492.65Z" stroke="#333338" stroke-width="0.5" stroke-miterlimit="10"/>
<path d="M499.69 934.23V921.55L521.08 900.17H534.17V912.85L512.79 934.23H499.69Z" stroke="#333338" stroke-width="0.5" stroke-miterlimit="10"/>
<path d="M575.8 852.41V839.73L554.42 818.35H541.32V831.03L562.71 852.41H575.8Z" stroke="#333338" stroke-width="0.5" stroke-miterlimit="10"/>
<path d="M541.34 893.05V880.37L562.72 858.98H575.82V871.67L554.43 893.05H541.34Z" stroke="#333338" stroke-width="0.5" stroke-miterlimit="10"/>
<path d="M582.85 852.41V839.73L604.23 818.35H617.32V831.03L595.94 852.41H582.85Z" stroke="#333338" stroke-width="0.5" stroke-miterlimit="10"/>
<path d="M617.36 893.05V880.37L595.97 858.98H582.88V871.67L604.26 893.05H617.36Z" stroke="#333338" stroke-width="0.5" stroke-miterlimit="10"/>
<path d="M658.95 852.41V839.73L637.57 818.35H624.48V831.03L645.86 852.41H658.95Z" stroke="#333338" stroke-width="0.5" stroke-miterlimit="10"/>
<path d="M624.49 893.05V880.37L645.88 858.98H658.97V871.67L637.59 893.05H624.49Z" stroke="#333338" stroke-width="0.5" stroke-miterlimit="10"/>
<path d="M666 852.41V839.73L687.38 818.35H700.48V831.03L679.09 852.41H666Z" stroke="#333338" stroke-width="0.5" stroke-miterlimit="10"/>
<path d="M700.51 893.05V880.37L679.13 858.98H666.03V871.67L687.42 893.05H700.51Z" stroke="#333338" stroke-width="0.5" stroke-miterlimit="10"/>
<path d="M742.11 852.41V839.73L720.72 818.35H707.63V831.03L729.01 852.41H742.11Z" stroke="#333338" stroke-width="0.5" stroke-miterlimit="10"/>
<path d="M707.65 893.05V880.37L729.03 858.98H742.12V871.67L720.74 893.05H707.65Z" stroke="#333338" stroke-width="0.5" stroke-miterlimit="10"/>
<path d="M749.15 852.41V839.73L770.54 818.35H783.63V831.03L762.25 852.41H749.15Z" stroke="#333338" stroke-width="0.5" stroke-miterlimit="10"/>
<path d="M783.66 893.05V880.37L762.28 858.98H749.19V871.67L770.57 893.05H783.66Z" stroke="#333338" stroke-width="0.5" stroke-miterlimit="10"/>
<path d="M825.26 852.41V839.73L803.88 818.35H790.78V831.03L812.17 852.41H825.26Z" stroke="#333338" stroke-width="0.5" stroke-miterlimit="10"/>
<path d="M790.8 893.05V880.37L812.18 858.98H825.28V871.67L803.89 893.05H790.8Z" stroke="#333338" stroke-width="0.5" stroke-miterlimit="10"/>
<path d="M832.31 852.41V839.73L853.69 818.35H866.78V831.03L845.4 852.41H832.31Z" stroke="#333338" stroke-width="0.5" stroke-miterlimit="10"/>
<path d="M866.82 893.05V880.37L845.43 858.98H832.34V871.67L853.72 893.05H866.82Z" stroke="#333338" stroke-width="0.5" stroke-miterlimit="10"/>
<path d="M908.41 852.41V839.73L887.03 818.35H873.94V831.03L895.32 852.41H908.41Z" stroke="#333338" stroke-width="0.5" stroke-miterlimit="10"/>
<path d="M873.95 893.05V880.37L895.34 858.98H908.43V871.67L887.05 893.05H873.95Z" stroke="#333338" stroke-width="0.5" stroke-miterlimit="10"/>
<path d="M915.46 852.41V839.73L936.84 818.35H949.94V831.03L928.55 852.41H915.46Z" stroke="#333338" stroke-width="0.5" stroke-miterlimit="10"/>
<path d="M949.97 893.05V880.37L928.59 858.98H915.49V871.67L936.88 893.05H949.97Z" stroke="#333338" stroke-width="0.5" stroke-miterlimit="10"/>
<path d="M575.8 934.24V921.56L554.42 900.17H541.32V912.85L562.71 934.24H575.8Z" stroke="#333338" stroke-width="0.5" stroke-miterlimit="10"/>
<path d="M582.85 934.23V921.55L604.23 900.17H617.32V912.85L595.94 934.23H582.85Z" stroke="#333338" stroke-width="0.5" stroke-miterlimit="10"/>
<path d="M658.95 934.24V921.56L637.57 900.17H624.48V912.85L645.86 934.24H658.95Z" stroke="#333338" stroke-width="0.5" stroke-miterlimit="10"/>
<path d="M666 934.23V921.55L687.38 900.17H700.48V912.85L679.09 934.23H666Z" stroke="#333338" stroke-width="0.5" stroke-miterlimit="10"/>
<path d="M742.11 934.24V921.56L720.72 900.17H707.63V912.85L729.01 934.24H742.11Z" stroke="#333338" stroke-width="0.5" stroke-miterlimit="10"/>
<path d="M749.15 934.23V921.55L770.54 900.17H783.63V912.85L762.25 934.23H749.15Z" stroke="#333338" stroke-width="0.5" stroke-miterlimit="10"/>
<path d="M825.26 934.24V921.56L803.88 900.17H790.78V912.85L812.17 934.24H825.26Z" stroke="#333338" stroke-width="0.5" stroke-miterlimit="10"/>
<path d="M832.31 934.23V921.55L853.69 900.17H866.78V912.85L845.4 934.23H832.31Z" stroke="#333338" stroke-width="0.5" stroke-miterlimit="10"/>
<path d="M908.41 934.24V921.56L887.03 900.17H873.94V912.85L895.32 934.24H908.41Z" stroke="#333338" stroke-width="0.5" stroke-miterlimit="10"/>
<path d="M915.46 934.23V921.55L936.84 900.17H949.94V912.85L928.55 934.23H915.46Z" stroke="#333338" stroke-width="0.5" stroke-miterlimit="10"/>
<path d="M575.8 34.32V21.64L554.42 0.25H541.32V12.93L562.71 34.32H575.8Z" stroke="#333338" stroke-width="0.5" stroke-miterlimit="10"/>
<path d="M541.34 74.9501V62.2701L562.72 40.8901H575.82V53.5701L554.43 74.9501H541.34Z" stroke="#333338" stroke-width="0.5" stroke-miterlimit="10"/>
<path d="M582.85 34.31V21.63L604.23 0.25H617.32V12.93L595.94 34.31H582.85Z" stroke="#333338" stroke-width="0.5" stroke-miterlimit="10"/>
<path d="M617.36 74.9501V62.2701L595.97 40.8901H582.88V53.5701L604.26 74.9501H617.36Z" stroke="#333338" stroke-width="0.5" stroke-miterlimit="10"/>
<path d="M658.95 34.32V21.64L637.57 0.25H624.48V12.93L645.86 34.32H658.95Z" stroke="#333338" stroke-width="0.5" stroke-miterlimit="10"/>
<path d="M624.49 74.9501V62.2701L645.88 40.8901H658.97V53.5701L637.59 74.9501H624.49Z" stroke="#333338" stroke-width="0.5" stroke-miterlimit="10"/>
<path d="M666 34.31V21.63L687.38 0.25H700.48V12.93L679.09 34.31H666Z" stroke="#333338" stroke-width="0.5" stroke-miterlimit="10"/>
<path d="M700.51 74.9501V62.2701L679.13 40.8901H666.03V53.5701L687.42 74.9501H700.51Z" stroke="#333338" stroke-width="0.5" stroke-miterlimit="10"/>
<path d="M742.11 34.32V21.64L720.72 0.25H707.63V12.93L729.01 34.32H742.11Z" stroke="#333338" stroke-width="0.5" stroke-miterlimit="10"/>
<path d="M707.65 74.9501V62.2701L729.03 40.8901H742.12V53.5701L720.74 74.9501H707.65Z" stroke="#333338" stroke-width="0.5" stroke-miterlimit="10"/>
<path d="M749.15 34.31V21.63L770.54 0.25H783.63V12.93L762.25 34.31H749.15Z" stroke="#333338" stroke-width="0.5" stroke-miterlimit="10"/>
<path d="M783.66 74.9501V62.2701L762.28 40.8901H749.19V53.5701L770.57 74.9501H783.66Z" stroke="#333338" stroke-width="0.5" stroke-miterlimit="10"/>
<path d="M825.26 34.32V21.64L803.88 0.25H790.78V12.93L812.17 34.32H825.26Z" stroke="#333338" stroke-width="0.5" stroke-miterlimit="10"/>
<path d="M790.8 74.9501V62.2701L812.18 40.8901H825.28V53.5701L803.89 74.9501H790.8Z" stroke="#333338" stroke-width="0.5" stroke-miterlimit="10"/>
<path d="M832.31 34.31V21.63L853.69 0.25H866.78V12.93L845.4 34.31H832.31Z" stroke="#333338" stroke-width="0.5" stroke-miterlimit="10"/>
<path d="M866.82 74.9501V62.2701L845.43 40.8901H832.34V53.5701L853.72 74.9501H866.82Z" stroke="#333338" stroke-width="0.5" stroke-miterlimit="10"/>
<path d="M908.41 34.32V21.64L887.03 0.25H873.94V12.93L895.32 34.32H908.41Z" stroke="#333338" stroke-width="0.5" stroke-miterlimit="10"/>
<path d="M873.95 74.9501V62.2701L895.34 40.8901H908.43V53.5701L887.05 74.9501H873.95Z" stroke="#333338" stroke-width="0.5" stroke-miterlimit="10"/>
<path d="M915.46 34.31V21.63L936.84 0.25H949.94V12.93L928.55 34.31H915.46Z" stroke="#333338" stroke-width="0.5" stroke-miterlimit="10"/>
<path d="M949.97 74.9501V62.2701L928.59 40.8901H915.49V53.5701L936.88 74.9501H949.97Z" stroke="#333338" stroke-width="0.5" stroke-miterlimit="10"/>
<path d="M991.57 443.37V430.69L970.18 409.3H957.09V421.98L978.47 443.37H991.57Z" stroke="#333338" stroke-width="0.5" stroke-miterlimit="10"/>
<path d="M957.11 484V471.32L978.49 449.94H991.58V462.62L970.2 484H957.11Z" stroke="#333338" stroke-width="0.5" stroke-miterlimit="10"/>
<path d="M998.61 443.36V430.68L1020 409.3H1033.09V421.98L1011.71 443.36H998.61Z" stroke="#333338" stroke-width="0.5" stroke-miterlimit="10"/>
<path d="M1033.12 484V471.32L1011.74 449.94H998.65V462.62L1020.03 484H1033.12Z" stroke="#333338" stroke-width="0.5" stroke-miterlimit="10"/>
<path d="M991.57 361.54V348.86L970.18 327.48H957.09V340.16L978.47 361.54H991.57Z" stroke="#333338" stroke-width="0.5" stroke-miterlimit="10"/>
<path d="M957.11 402.18V389.5L978.49 368.11H991.58V380.79L970.2 402.18H957.11Z" stroke="#333338" stroke-width="0.5" stroke-miterlimit="10"/>
<path d="M998.61 361.54V348.86L1020 327.47H1033.09V340.16L1011.71 361.54H998.61Z" stroke="#333338" stroke-width="0.5" stroke-miterlimit="10"/>
<path d="M1033.12 402.18V389.5L1011.74 368.11H998.65V380.79L1020.03 402.18H1033.12Z" stroke="#333338" stroke-width="0.5" stroke-miterlimit="10"/>
<path d="M991.57 116.14V103.46L970.18 82.0801H957.09V94.7601L978.47 116.14H991.57Z" stroke="#333338" stroke-width="0.5" stroke-miterlimit="10"/>
<path d="M957.11 156.77V144.09L978.49 122.71H991.58V135.39L970.2 156.77H957.11Z" stroke="#333338" stroke-width="0.5" stroke-miterlimit="10"/>
<path d="M998.61 116.14V103.46L1020 82.0698H1033.09V94.7498L1011.71 116.14H998.61Z" stroke="#333338" stroke-width="0.5" stroke-miterlimit="10"/>
<path d="M1033.12 156.77V144.09L1011.74 122.71H998.65V135.39L1020.03 156.77H1033.12Z" stroke="#333338" stroke-width="0.5" stroke-miterlimit="10"/>
<path d="M991.57 197.96V185.28L970.18 163.9H957.09V176.58L978.47 197.96H991.57Z" stroke="#333338" stroke-width="0.5" stroke-miterlimit="10"/>
<path d="M957.11 238.6V225.92L978.49 204.53H991.58V217.22L970.2 238.6H957.11Z" stroke="#333338" stroke-width="0.5" stroke-miterlimit="10"/>
<path d="M998.61 197.96V185.28L1020 163.9H1033.09V176.58L1011.71 197.96H998.61Z" stroke="#333338" stroke-width="0.5" stroke-miterlimit="10"/>
<path d="M1033.12 238.6V225.92L1011.74 204.53H998.65V217.22L1020.03 238.6H1033.12Z" stroke="#333338" stroke-width="0.5" stroke-miterlimit="10"/>
<path d="M991.57 279.79V267.11L970.18 245.72H957.09V258.4L978.47 279.79H991.57Z" stroke="#333338" stroke-width="0.5" stroke-miterlimit="10"/>
<path d="M957.11 320.42V307.74L978.49 286.36H991.58V299.04L970.2 320.42H957.11Z" stroke="#333338" stroke-width="0.5" stroke-miterlimit="10"/>
<path d="M998.61 279.78V267.1L1020 245.72H1033.09V258.4L1011.71 279.78H998.61Z" stroke="#333338" stroke-width="0.5" stroke-miterlimit="10"/>
<path d="M1033.12 320.42V307.74L1011.74 286.36H998.65V299.04L1020.03 320.42H1033.12Z" stroke="#333338" stroke-width="0.5" stroke-miterlimit="10"/>
<path d="M991.57 770.59V757.91L970.18 736.53H957.09V749.21L978.47 770.59H991.57Z" stroke="#333338" stroke-width="0.5" stroke-miterlimit="10"/>
<path d="M957.11 811.22V798.54L978.49 777.16H991.58V789.84L970.2 811.22H957.11Z" stroke="#333338" stroke-width="0.5" stroke-miterlimit="10"/>
<path d="M998.61 770.59V757.91L1020 736.52H1033.09V749.2L1011.71 770.59H998.61Z" stroke="#333338" stroke-width="0.5" stroke-miterlimit="10"/>
<path d="M1033.12 811.22V798.54L1011.74 777.16H998.65V789.84L1020.03 811.22H1033.12Z" stroke="#333338" stroke-width="0.5" stroke-miterlimit="10"/>
<path d="M991.57 688.77V676.09L970.18 654.7H957.09V667.38L978.47 688.77H991.57Z" stroke="#333338" stroke-width="0.5" stroke-miterlimit="10"/>
<path d="M957.11 729.4V716.72L978.49 695.34H991.58V708.02L970.2 729.4H957.11Z" stroke="#333338" stroke-width="0.5" stroke-miterlimit="10"/>
<path d="M998.61 688.76V676.08L1020 654.7H1033.09V667.38L1011.71 688.76H998.61Z" stroke="#333338" stroke-width="0.5" stroke-miterlimit="10"/>
<path d="M1033.12 729.4V716.72L1011.74 695.34H998.65V708.02L1020.03 729.4H1033.12Z" stroke="#333338" stroke-width="0.5" stroke-miterlimit="10"/>
<path d="M991.57 525.19V512.51L970.18 491.13H957.09V503.81L978.47 525.19H991.57Z" stroke="#333338" stroke-width="0.5" stroke-miterlimit="10"/>
<path d="M957.11 565.82V553.14L978.49 531.76H991.58V544.44L970.2 565.82H957.11Z" stroke="#333338" stroke-width="0.5" stroke-miterlimit="10"/>
<path d="M998.61 525.19V512.51L1020 491.12H1033.09V503.8L1011.71 525.19H998.61Z" stroke="#333338" stroke-width="0.5" stroke-miterlimit="10"/>
<path d="M1033.12 565.82V553.14L1011.74 531.76H998.65V544.44L1020.03 565.82H1033.12Z" stroke="#333338" stroke-width="0.5" stroke-miterlimit="10"/>
<path d="M991.57 607.01V594.33L970.18 572.95H957.09V585.63L978.47 607.01H991.57Z" stroke="#333338" stroke-width="0.5" stroke-miterlimit="10"/>
<path d="M957.11 647.65V634.97L978.49 613.58H991.58V626.26L970.2 647.65H957.11Z" stroke="#333338" stroke-width="0.5" stroke-miterlimit="10"/>
<path d="M998.61 607.01V594.33L1020 572.95H1033.09V585.63L1011.71 607.01H998.61Z" stroke="#333338" stroke-width="0.5" stroke-miterlimit="10"/>
<path d="M1033.12 647.65V634.97L1011.74 613.58H998.65V626.26L1020.03 647.65H1033.12Z" stroke="#333338" stroke-width="0.5" stroke-miterlimit="10"/>
<path d="M991.57 852.41V839.73L970.18 818.35H957.09V831.03L978.47 852.41H991.57Z" stroke="#333338" stroke-width="0.5" stroke-miterlimit="10"/>
<path d="M957.11 893.05V880.37L978.49 858.98H991.58V871.67L970.2 893.05H957.11Z" stroke="#333338" stroke-width="0.5" stroke-miterlimit="10"/>
<path d="M998.61 852.41V839.73L1020 818.35H1033.09V831.03L1011.71 852.41H998.61Z" stroke="#333338" stroke-width="0.5" stroke-miterlimit="10"/>
<path d="M1033.12 893.05V880.37L1011.74 858.98H998.65V871.67L1020.03 893.05H1033.12Z" stroke="#333338" stroke-width="0.5" stroke-miterlimit="10"/>
<path d="M991.57 934.24V921.56L970.18 900.17H957.09V912.85L978.47 934.24H991.57Z" stroke="#333338" stroke-width="0.5" stroke-miterlimit="10"/>
<path d="M998.61 934.23V921.55L1020 900.17H1033.09V912.85L1011.71 934.23H998.61Z" stroke="#333338" stroke-width="0.5" stroke-miterlimit="10"/>
<path d="M991.57 34.32V21.64L970.18 0.25H957.09V12.93L978.47 34.32H991.57Z" stroke="#333338" stroke-width="0.5" stroke-miterlimit="10"/>
<path d="M957.11 74.9501V62.2701L978.49 40.8901H991.58V53.5701L970.2 74.9501H957.11Z" stroke="#333338" stroke-width="0.5" stroke-miterlimit="10"/>
<path d="M998.61 34.31V21.63L1020 0.25H1033.09V12.93L1011.71 34.31H998.61Z" stroke="#333338" stroke-width="0.5" stroke-miterlimit="10"/>
<path d="M1033.12 74.9501V62.2701L1011.74 40.8901H998.65V53.5701L1020.03 74.9501H1033.12Z" stroke="#333338" stroke-width="0.5" stroke-miterlimit="10"/>
</g>
</g>
<defs>
<clipPath id="clip0_1000_8027">
<rect width="999" height="900" fill="white"/>
</clipPath>
</defs>
</svg>
