<svg width="5000" height="2706" viewBox="0 0 5000 2706" fill="none" xmlns="http://www.w3.org/2000/svg">
<g clip-path="url(#clip0_512_3913)">
<path d="M626.108 1523.34L1518.57 1281.31L1002.23 1916.28L626.108 1523.34Z" fill="#FFD93E"/>
<path d="M1493.57 2043.32L1002.23 1916.28L1518.57 1281.31L1493.57 2043.32Z" fill="#FFE471"/>
<path d="M2352.39 1182.45L1518.57 1281.31L1493.57 2043.32L2352.39 1182.45Z" fill="#FFB83B"/>
<path d="M2548.75 1948.78L1493.57 2043.32L2352.39 1182.45L2548.75 1948.78Z" fill="#FFE471"/>
<path d="M2181.72 2513.52L2548.75 1948.78L1493.57 2043.32L2181.72 2513.52Z" fill="#FFD93E"/>
<path d="M1363.57 2705.56L1493.57 2043.32L2181.72 2513.52L1363.57 2705.56Z" fill="#FFCC3B"/>
<path d="M1002.23 1916.28L1493.57 2043.32L1363.57 2705.56L1002.23 1916.28Z" fill="#FFB83B"/>
<path d="M512.477 2478.52L1002.23 1916.28L1363.57 2705.56L512.477 2478.52Z" fill="#FFD93E"/>
<path d="M1002.23 1916.28L626.108 1523.34L512.477 2478.52L1002.23 1916.28Z" fill="#FFB83B"/>
<path d="M1518.57 1281.31L1981.73 598.382L2352.39 1182.45L1518.57 1281.31Z" fill="#FFD93E"/>
<path d="M2548.75 1948.78L3046.68 1594.25L2352.39 1182.45L2548.75 1948.78Z" fill="#FFD93E"/>
<path d="M1981.73 598.382L2487.84 488.16L2352.39 1182.45L1981.73 598.382Z" fill="#FFE471"/>
<path d="M1518.57 1281.31L1981.73 598.382L1390.16 270.442L1518.57 1281.31Z" fill="#FFE471"/>
<path d="M1076.54 740.648L1518.57 1281.31L1390.16 270.442L1076.54 740.648Z" fill="#FFD93E"/>
<path d="M626.108 1523.34L1076.54 740.648L1518.57 1281.31L626.108 1523.34Z" fill="#FFCC3B"/>
<path d="M2181.72 2513.52L2548.75 1948.78L2721.92 2635.79L2181.72 2513.52Z" fill="#FFB83B"/>
<path d="M3046.68 1594.25L2934.64 903.595L2352.39 1182.45L3046.68 1594.25Z" fill="#FFCC3B"/>
<path d="M2487.84 488.16L2934.64 903.595L2352.39 1182.45L2487.84 488.16Z" fill="#FFB83B"/>
<path d="M3046.68 1594.25L3475.52 1018.59L2934.64 903.595L3046.68 1594.25Z" fill="#FFE471"/>
<path d="M2548.75 1948.78L3203.72 2438.07L3046.68 1594.25L2548.75 1948.78Z" fill="#FFB83B"/>
<path d="M3475.52 1018.59L3742.33 1694.01L3046.68 1594.25L3475.52 1018.59Z" fill="#FFB83B"/>
<path d="M3203.72 2438.07L3742.33 1694.01L3046.68 1594.25L3203.72 2438.07Z" fill="#FFCC3B"/>
<path d="M2721.92 2635.79L3203.72 2438.07L2548.75 1948.78L2721.92 2635.79Z" fill="#FFD93E"/>
<path d="M3742.33 1694.01L3917.78 2665.79L3203.72 2438.07L3742.33 1694.01Z" fill="#FFD93E"/>
<path d="M3742.33 1694.01L4277.31 1291.08L3475.52 1018.59L3742.33 1694.01Z" fill="#FFE471"/>
<path d="M2487.84 488.16L3491.89 426.344L2934.64 903.595L2487.84 488.16Z" fill="#FFE471"/>
<path d="M3475.52 1018.59L2934.64 903.595L3491.89 426.344L3475.52 1018.59Z" fill="#FFCC3B"/>
<path d="M4277.31 1291.08L3491.89 426.344L3475.52 1018.59L4277.31 1291.08Z" fill="#FFD93E"/>
<path d="M3742.33 1694.01L3917.78 2665.79L4277.31 1291.08L3742.33 1694.01Z" fill="#FFCC3B"/>
<path d="M3491.89 426.344L4343.67 376.347L4277.31 1291.08L3491.89 426.344Z" fill="#FFB83B"/>
<path d="M1390.16 270.442L2099 78.6328L1981.73 598.382L1390.16 270.442Z" fill="#FFD93E"/>
<path d="M2487.84 488.16L2099 78.6328L1981.73 598.382L2487.84 488.16Z" fill="#FFCC3B"/>
<path d="M3491.89 426.344L2997.59 0L2487.84 488.16L3491.89 426.344Z" fill="#FFD93E"/>
<path d="M2099 78.6328L2997.59 0L2487.84 488.16L2099 78.6328Z" fill="#FFE471"/>
<path d="M3491.89 426.344L4343.67 376.347L2997.59 0L3491.89 426.344Z" fill="#FFCC3B"/>
<path d="M4277.31 1291.08L4558.2 2514.89L3917.78 2665.79L4277.31 1291.08Z" fill="#FFB83B"/>
<path d="M4343.67 376.347L5000 851.78L4277.31 1291.08L4343.67 376.347Z" fill="#FFE471"/>
<path d="M4558.2 2514.89L4905.23 1756.97L4277.31 1291.08L4558.2 2514.89Z" fill="#FFE471"/>
<path d="M5000 851.779L4905.23 1756.97L4277.31 1291.08L5000 851.779Z" fill="#FFD93E"/>
<path d="M1076.54 740.648L374.756 759.511L626.108 1523.34L1076.54 740.648Z" fill="#FFE471"/>
<path d="M1390.16 270.442L739.966 302.486L1076.54 740.648L1390.16 270.442Z" fill="#FFCC3B"/>
<path d="M374.756 759.511L739.967 302.486L1076.54 740.648L374.756 759.511Z" fill="#FFB83B"/>
<path d="M626.108 1523.34L0 1365.62L374.756 759.511L626.108 1523.34Z" fill="#FFD93E"/>
<path d="M512.477 2478.52L0 1365.62L626.108 1523.34L512.477 2478.52Z" fill="#FFE471"/>
</g>
<defs>
<clipPath id="clip0_512_3913">
<rect width="5000" height="2705.56" fill="white"/>
</clipPath>
</defs>
</svg>
