<svg width="171" height="173" viewBox="0 0 171 173" fill="none" xmlns="http://www.w3.org/2000/svg">
<path d="M37.5 101V101.5H37L-5.96046e-07 101.5H-0.500001V101L-0.500001 19.5C-0.500001 9.00659 8.00659 0.500003 18.5 0.500003C28.9934 0.500003 37.5 9.00659 37.5 19.5L37.5 101Z" fill="#FF4444" stroke="black"/>
<path d="M36 135.5H35.5V136V173V173.5H36H137.5C147.993 173.5 156.5 164.993 156.5 154.5C156.5 144.007 147.993 135.5 137.5 135.5H36Z" fill="#FFD93E" stroke="black"/>
<mask id="path-3-outside-1_2581_38237" maskUnits="userSpaceOnUse" x="-1" y="135" width="38" height="39" fill="black">
<rect fill="white" x="-1" y="135" width="38" height="39"/>
<path d="M0 136H37V173H0V136Z"/>
</mask>
<path d="M0 136H37V173H0V136Z" fill="#FA9ABF"/>
<path d="M0 136V135H-1V136H0ZM0 173H-1V174H0V173ZM0 137H37V135H0V137ZM37 172H0V174H37V172ZM1 173V136H-1V173H1Z" fill="black" mask="url(#path-3-outside-1_2581_38237)"/>
<path fill-rule="evenodd" clip-rule="evenodd" d="M10.1396 170.181V162.567L14.2317 158.475V158.475L18.3206 154.383V161.997L14.2317 166.089V166.089L10.1396 170.181ZM14.2317 154.283V154.286L10.1396 158.375V150.761L14.2317 146.672V146.669L18.3206 142.58V150.194L14.2317 154.283ZM22.413 166.089V166.089L18.3209 161.997V154.383L22.4129 158.475V158.475L26.5019 162.567V170.181L22.413 166.089ZM22.413 146.672V146.669L18.3209 142.58V150.194L22.4129 154.283V154.286L26.5019 158.375V150.761L22.413 146.672Z" fill="#FF4444"/>
<mask id="path-6-outside-2_2581_38237" maskUnits="userSpaceOnUse" x="-1" y="100" width="38" height="37" fill="black">
<rect fill="white" x="-1" y="100" width="38" height="37"/>
<path d="M0 100H37V137H0V100Z"/>
</mask>
<path d="M0 100H37V137H0V100Z" fill="#3B9C3D"/>
<path d="M1 137V100H-1V137H1Z" fill="black" mask="url(#path-6-outside-2_2581_38237)"/>
<path fill-rule="evenodd" clip-rule="evenodd" d="M11.5849 119.023L19.2574 109.04H33.54L25.8675 119.023H25.855L18.1825 129.006H3.8999L11.5724 119.023H11.5849Z" fill="#FFD93E"/>
<mask id="path-9-outside-3_2581_38237" maskUnits="userSpaceOnUse" x="37" y="99" width="36" height="38" fill="black">
<rect fill="white" x="37" y="99" width="36" height="38"/>
<path d="M73 100H37V137H73V100Z"/>
</mask>
<path d="M73 100H37V137H73V100Z" fill="#2A73D1"/>
<path d="M73 101H37V99H73V101Z" fill="black" mask="url(#path-9-outside-3_2581_38237)"/>
<path d="M65.6157 121.019V124.458L59.8172 130.257H56.2653V126.818L62.0638 121.019H65.6157Z" fill="white"/>
<path d="M56.2702 110V113.439L62.0687 119.237H65.6182V115.798L59.8196 110H56.2702Z" fill="white"/>
<path d="M45.0002 121.022V124.461L50.7987 130.259H54.3506V126.82L48.552 121.022H45.0002Z" fill="white"/>
<path d="M54.3579 110V113.439L48.5594 119.237H45.0099V115.798L50.8085 110H54.3579Z" fill="white"/>
<path d="M15.1343 12.4132V15.5878H12L15.3677 19.001L12 22.4122H15.1343L15.1343 25.5888L18.5 29L21.8677 25.5888V22.4122L25 22.4122L21.6343 19.001L25 15.5878H21.8677L21.8677 12.4132L18.5 9L15.1343 12.4132Z" fill="#F7F6F2"/>
<circle cx="138.5" cy="153.68" r="7.5" fill="#2A73D1"/>
<path d="M129.77 129.119L139.419 119.47L129.77 109.82L120.12 119.47L129.77 129.119Z" fill="#FFD93E"/>
<mask id="path-18-outside-4_2581_38237" maskUnits="userSpaceOnUse" x="73" y="99" width="98" height="39" fill="black">
<rect fill="white" x="73" y="99" width="98" height="39"/>
<path d="M73 100H151.5C161.717 100 170 108.283 170 118.5C170 128.717 161.717 137 151.5 137H73V100Z"/>
</mask>
<path d="M73 100H151.5C161.717 100 170 108.283 170 118.5C170 128.717 161.717 137 151.5 137H73V100Z" fill="#75C2E0"/>
<path d="M73 99H151.5C162.27 99 171 107.73 171 118.5H169C169 108.835 161.165 101 151.5 101H73V99ZM171 118.5C171 129.27 162.27 138 151.5 138H73V136H151.5C161.165 136 169 128.165 169 118.5H171ZM73 137V100V137ZM151.5 99C162.27 99 171 107.73 171 118.5C171 129.27 162.27 138 151.5 138V136C161.165 136 169 128.165 169 118.5C169 108.835 161.165 101 151.5 101V99Z" fill="black" mask="url(#path-18-outside-4_2581_38237)"/>
<rect x="37" y="137" width="109" height="6" fill="#FFD93E"/>
<path d="M151.33 128.3L160.979 118.65L151.33 109L141.68 118.65L151.33 128.3Z" fill="#FFD93E"/>
</svg>
