<svg width="173" height="174" viewBox="0 0 173 174" fill="none" xmlns="http://www.w3.org/2000/svg">
<mask id="path-1-inside-1_2582_38266" fill="white">
<path d="M134 153.5C134 142.73 142.73 134 153.5 134C164.27 134 173 142.73 173 153.5V154.5C173 165.27 164.27 174 153.5 174C142.73 174 134 165.27 134 154.5V153.5Z"/>
</mask>
<path d="M134 153.5C134 142.73 142.73 134 153.5 134C164.27 134 173 142.73 173 153.5V154.5C173 165.27 164.27 174 153.5 174C142.73 174 134 165.27 134 154.5V153.5Z" fill="#FA9ABF"/>
<path d="M172 153.5V154.5H174V153.5H172ZM135 154.5V153.5H133V154.5H135ZM153.5 173C143.283 173 135 164.717 135 154.5H133C133 165.822 142.178 175 153.5 175V173ZM172 154.5C172 164.717 163.717 173 153.5 173V175C164.822 175 174 165.822 174 154.5H172ZM153.5 135C163.717 135 172 143.283 172 153.5H174C174 142.178 164.822 133 153.5 133V135ZM153.5 133C142.178 133 133 142.178 133 153.5H135C135 143.283 143.283 135 153.5 135V133Z" fill="black" mask="url(#path-1-inside-1_2582_38266)"/>
<path d="M172.5 102V102.5H172L134 102.5H133.5V102V20.4872C133.5 9.44857 142.449 0.500003 153.487 0.500003C163.988 0.500003 172.5 9.01233 172.5 19.5128L172.5 102Z" fill="#2A73D1" stroke="black"/>
<rect x="102.5" y="102.5" width="64" height="64" rx="32" fill="#FFD93E" stroke="black"/>
<mask id="path-5-outside-2_2582_38266" maskUnits="userSpaceOnUse" x="134" y="82" width="39" height="75" fill="black">
<rect fill="white" x="134" y="82" width="39" height="75"/>
<path d="M172 157L172 82L134 82V157H172Z"/>
</mask>
<path d="M172 157L172 82L134 82V157H172Z" fill="#3B9C3D"/>
<path d="M171 157L171 82H173L173 157H171Z" fill="black" mask="url(#path-5-outside-2_2582_38266)"/>
<mask id="path-7-outside-3_2582_38266" maskUnits="userSpaceOnUse" x="-1.21593e-05" y="133" width="103" height="41" fill="black">
<rect fill="white" x="-1.21593e-05" y="133" width="103" height="41"/>
<path d="M102 173L20.2532 173C9.61993 173 1 164.38 1 153.747C1 142.841 9.84096 134 20.7468 134H102V173Z"/>
</mask>
<path d="M102 173L20.2532 173C9.61993 173 1 164.38 1 153.747C1 142.841 9.84096 134 20.7468 134H102V173Z" fill="#FF4444"/>
<path d="M102 173V174H103V173H102ZM102 134H103L103 133H102L102 134ZM102 172L20.2532 172V174L102 174V172ZM20.7468 135H102L102 133H20.7468L20.7468 135ZM101 134V173H103V134H101ZM2 153.747C2 143.393 10.3932 135 20.7468 135L20.7468 133C9.28868 133 3.09944e-06 142.289 3.09944e-06 153.747H2ZM20.2532 172C10.1722 172 2 163.828 2 153.747H3.09944e-06C3.09944e-06 164.932 9.06765 174 20.2532 174V172Z" fill="black" mask="url(#path-7-outside-3_2582_38266)"/>
<path d="M19.7424 144L10 153.742L19.7424 163.485L29.4849 153.742L19.7424 144Z" fill="white"/>
<mask id="path-10-outside-4_2582_38266" maskUnits="userSpaceOnUse" x="82" y="134" width="73" height="40" fill="black">
<rect fill="white" x="82" y="134" width="73" height="40"/>
<path d="M155 173H82V134H155V173Z"/>
</mask>
<path d="M155 173H82V134H155V173Z" fill="#75C2E0"/>
<path d="M155 172H82V174H155V172Z" fill="black" mask="url(#path-10-outside-4_2582_38266)"/>
<path fill-rule="evenodd" clip-rule="evenodd" d="M146 124.601V116.987L150.092 112.895V112.895L154.181 108.803V116.417L150.092 120.509V120.509L146 124.601ZM150.092 108.703V108.706L146 112.795V105.181L150.092 101.092V101.089L154.181 97V104.614L150.092 108.703ZM158.273 120.509V120.509L154.181 116.417V108.803L158.273 112.895V112.895L162.362 116.987V124.601L158.273 120.509ZM158.273 101.092V101.089L154.181 97V104.614L158.273 108.703V108.706L162.362 112.795V105.181L158.273 101.092Z" fill="#FFD93E"/>
<path d="M133 153.5C133 142.73 141.73 134 152.5 134C163.27 134 172 142.73 172 153.5C172 164.27 163.27 173 152.5 173C141.73 173 133 164.27 133 153.5Z" fill="#FA9ABF"/>
<path d="M160.904 149.858H157.095V146L152.999 150.145L148.905 146V149.858H145.093L141 154L145.093 158.145H148.905V162L152.999 157.858L157.095 162V158.145H160.904L165 154L160.904 149.858Z" fill="white"/>
<path d="M149.213 27.4255L140 18.2129L149.213 9.00029L158.425 18.2129L149.213 27.4255Z" fill="#ED4D45"/>
<path d="M153.819 22.8203L158.427 18.2125H166.999L162.395 22.8203H153.819Z" fill="#FFD93E"/>
<path d="M149.212 27.4248L153.82 22.8201H162.395L157.787 27.4248H149.212Z" fill="#FFD93E"/>
<path d="M153.819 13.6046L158.427 18.2124H166.999L162.395 13.6046H153.819Z" fill="#FFD93E"/>
<path d="M149.212 8.9998L153.82 13.6045H162.395L157.787 8.9998H149.212Z" fill="#FFD93E"/>
<path d="M112.616 155.019V158.458L106.818 164.257H103.266V160.818L109.064 155.019H112.616Z" fill="#2A73D1"/>
<path d="M103.27 144V147.439L109.069 153.237H112.618V149.798L106.82 144H103.27Z" fill="#2A73D1"/>
<path d="M92.0002 155.022V158.461L97.7987 164.259H101.351V160.82L95.552 155.022H92.0002Z" fill="#2A73D1"/>
<path d="M101.358 144V147.439L95.5599 153.237H92.0104V149.798L97.809 144H101.358Z" fill="#2A73D1"/>
</svg>
