<svg width="48" height="48" viewBox="0 0 48 48" fill="none" xmlns="http://www.w3.org/2000/svg">
<rect x="1.25" y="1.25" width="45.5011" height="45.5011" rx="10.75" fill="#DA594E"/>
<rect x="1.25" y="1.25" width="45.5011" height="45.5011" rx="10.75" stroke="black" stroke-width="1.5"/>
<path d="M33.7081 32.2931C33.801 32.386 33.8747 32.4963 33.9249 32.6177C33.9752 32.7391 34.0011 32.8692 34.0011 33.0006C34.0011 33.132 33.9752 33.2621 33.9249 33.3835C33.8747 33.5048 33.801 33.6151 33.7081 33.7081C33.6151 33.801 33.5048 33.8747 33.3835 33.9249C33.2621 33.9752 33.132 34.0011 33.0006 34.0011C32.8692 34.0011 32.7391 33.9752 32.6177 33.9249C32.4963 33.8747 32.386 33.801 32.2931 33.7081L24.0006 25.4143L15.7081 33.7081C15.5204 33.8957 15.2659 34.0011 15.0006 34.0011C14.7352 34.0011 14.4807 33.8957 14.2931 33.7081C14.1054 33.5204 14 33.2659 14 33.0006C14 32.7352 14.1054 32.4807 14.2931 32.2931L22.5868 24.0006L14.2931 15.7081C14.1054 15.5204 14 15.2659 14 15.0006C14 14.7352 14.1054 14.4807 14.2931 14.2931C14.4807 14.1054 14.7352 14 15.0006 14C15.2659 14 15.5204 14.1054 15.7081 14.2931L24.0006 22.5868L32.2931 14.2931C32.4807 14.1054 32.7352 14 33.0006 14C33.2659 14 33.5204 14.1054 33.7081 14.2931C33.8957 14.4807 34.0011 14.7352 34.0011 15.0006C34.0011 15.2659 33.8957 15.5204 33.7081 15.7081L25.4143 24.0006L33.7081 32.2931Z" fill="#F7F6F2"/>
</svg>
