<svg width="39" height="40" viewBox="0 0 39 40" fill="none" xmlns="http://www.w3.org/2000/svg">
<circle cx="19.5" cy="20" r="19.5" fill="#4C83D8"/>
<path d="M29.5 14.4999C29.5 13.7043 29.1839 12.9412 28.6213 12.3786C28.0587 11.816 27.2956 11.4999 26.5 11.4999H25.75V10.771C25.75 10.3674 25.4397 10.021 25.0361 10.0009C24.9347 9.99598 24.8333 10.0117 24.7382 10.0472C24.6431 10.0826 24.5561 10.137 24.4826 10.207C24.4091 10.2771 24.3506 10.3613 24.3106 10.4546C24.2706 10.5479 24.25 10.6484 24.25 10.7499V11.4999H13.75V10.771C13.75 10.3674 13.4397 10.021 13.0361 10.0009C12.9347 9.99598 12.8333 10.0117 12.7382 10.0472C12.6431 10.0826 12.5561 10.137 12.4826 10.207C12.4091 10.2771 12.3506 10.3613 12.3106 10.4546C12.2706 10.5479 12.25 10.6484 12.25 10.7499V11.4999H11.5C10.7044 11.4999 9.94129 11.816 9.37868 12.3786C8.81607 12.9412 8.5 13.7043 8.5 14.4999V15.0624C8.5 15.1122 8.51975 15.1599 8.55492 15.195C8.59008 15.2302 8.63777 15.2499 8.6875 15.2499H29.3125C29.3622 15.2499 29.4099 15.2302 29.4451 15.195C29.4802 15.1599 29.5 15.1122 29.5 15.0624V14.4999ZM8.5 27.9999C8.5 28.7956 8.81607 29.5586 9.37868 30.1213C9.94129 30.6839 10.7044 30.9999 11.5 30.9999H26.5C27.2956 30.9999 28.0587 30.6839 28.6213 30.1213C29.1839 29.5586 29.5 28.7956 29.5 27.9999V16.8906C29.5 16.8533 29.4852 16.8175 29.4588 16.7911C29.4324 16.7647 29.3967 16.7499 29.3594 16.7499H8.64062C8.60333 16.7499 8.56756 16.7647 8.54119 16.7911C8.51482 16.8175 8.5 16.8533 8.5 16.8906V27.9999ZM24.625 18.2499C24.8475 18.2499 25.065 18.3159 25.25 18.4395C25.435 18.5631 25.5792 18.7388 25.6644 18.9444C25.7495 19.15 25.7718 19.3762 25.7284 19.5944C25.685 19.8126 25.5778 20.0131 25.4205 20.1704C25.2632 20.3278 25.0627 20.4349 24.8445 20.4783C24.6262 20.5217 24.4 20.4994 24.1945 20.4143C23.9889 20.3291 23.8132 20.185 23.6896 19.9999C23.566 19.8149 23.5 19.5974 23.5 19.3749C23.5 19.0766 23.6185 18.7904 23.8295 18.5794C24.0405 18.3685 24.3266 18.2499 24.625 18.2499ZM24.625 21.9999C24.8475 21.9999 25.065 22.0659 25.25 22.1895C25.435 22.3131 25.5792 22.4888 25.6644 22.6944C25.7495 22.9 25.7718 23.1262 25.7284 23.3444C25.685 23.5626 25.5778 23.7631 25.4205 23.9204C25.2632 24.0778 25.0627 24.1849 24.8445 24.2283C24.6262 24.2717 24.4 24.2494 24.1945 24.1643C23.9889 24.0791 23.8132 23.935 23.6896 23.7499C23.566 23.5649 23.5 23.3474 23.5 23.1249C23.5 22.8266 23.6185 22.5404 23.8295 22.3294C24.0405 22.1185 24.3266 21.9999 24.625 21.9999ZM20.875 18.2499C21.0975 18.2499 21.315 18.3159 21.5 18.4395C21.685 18.5631 21.8292 18.7388 21.9144 18.9444C21.9995 19.15 22.0218 19.3762 21.9784 19.5944C21.935 19.8126 21.8278 20.0131 21.6705 20.1704C21.5132 20.3278 21.3127 20.4349 21.0945 20.4783C20.8762 20.5217 20.65 20.4994 20.4445 20.4143C20.2389 20.3291 20.0632 20.185 19.9396 19.9999C19.816 19.8149 19.75 19.5974 19.75 19.3749C19.75 19.0766 19.8685 18.7904 20.0795 18.5794C20.2905 18.3685 20.5766 18.2499 20.875 18.2499ZM20.875 21.9999C21.0975 21.9999 21.315 22.0659 21.5 22.1895C21.685 22.3131 21.8292 22.4888 21.9144 22.6944C21.9995 22.9 22.0218 23.1262 21.9784 23.3444C21.935 23.5626 21.8278 23.7631 21.6705 23.9204C21.5132 24.0778 21.3127 24.1849 21.0945 24.2283C20.8762 24.2717 20.65 24.2494 20.4445 24.1643C20.2389 24.0791 20.0632 23.935 19.9396 23.7499C19.816 23.5649 19.75 23.3474 19.75 23.1249C19.75 22.8266 19.8685 22.5404 20.0795 22.3294C20.2905 22.1185 20.5766 21.9999 20.875 21.9999ZM20.875 25.7499C21.0975 25.7499 21.315 25.8159 21.5 25.9395C21.685 26.0631 21.8292 26.2388 21.9144 26.4444C21.9995 26.65 22.0218 26.8762 21.9784 27.0944C21.935 27.3126 21.8278 27.5131 21.6705 27.6704C21.5132 27.8278 21.3127 27.9349 21.0945 27.9783C20.8762 28.0217 20.65 27.9994 20.4445 27.9143C20.2389 27.8291 20.0632 27.685 19.9396 27.4999C19.816 27.3149 19.75 27.0974 19.75 26.8749C19.75 26.5766 19.8685 26.2904 20.0795 26.0794C20.2905 25.8685 20.5766 25.7499 20.875 25.7499ZM17.125 21.9999C17.3475 21.9999 17.565 22.0659 17.75 22.1895C17.935 22.3131 18.0792 22.4888 18.1644 22.6944C18.2495 22.9 18.2718 23.1262 18.2284 23.3444C18.185 23.5626 18.0778 23.7631 17.9205 23.9204C17.7632 24.0778 17.5627 24.1849 17.3445 24.2283C17.1262 24.2717 16.9 24.2494 16.6945 24.1643C16.4889 24.0791 16.3132 23.935 16.1896 23.7499C16.066 23.5649 16 23.3474 16 23.1249C16 22.8266 16.1185 22.5404 16.3295 22.3294C16.5405 22.1185 16.8266 21.9999 17.125 21.9999ZM17.125 25.7499C17.3475 25.7499 17.565 25.8159 17.75 25.9395C17.935 26.0631 18.0792 26.2388 18.1644 26.4444C18.2495 26.65 18.2718 26.8762 18.2284 27.0944C18.185 27.3126 18.0778 27.5131 17.9205 27.6704C17.7632 27.8278 17.5627 27.9349 17.3445 27.9783C17.1262 28.0217 16.9 27.9994 16.6945 27.9143C16.4889 27.8291 16.3132 27.685 16.1896 27.4999C16.066 27.3149 16 27.0974 16 26.8749C16 26.5766 16.1185 26.2904 16.3295 26.0794C16.5405 25.8685 16.8266 25.7499 17.125 25.7499ZM13.375 21.9999C13.5975 21.9999 13.815 22.0659 14 22.1895C14.185 22.3131 14.3292 22.4888 14.4144 22.6944C14.4995 22.9 14.5218 23.1262 14.4784 23.3444C14.435 23.5626 14.3278 23.7631 14.1705 23.9204C14.0132 24.0778 13.8127 24.1849 13.5945 24.2283C13.3762 24.2717 13.15 24.2494 12.9445 24.1643C12.7389 24.0791 12.5632 23.935 12.4396 23.7499C12.316 23.5649 12.25 23.3474 12.25 23.1249C12.25 22.8266 12.3685 22.5404 12.5795 22.3294C12.7905 22.1185 13.0766 21.9999 13.375 21.9999ZM13.375 25.7499C13.5975 25.7499 13.815 25.8159 14 25.9395C14.185 26.0631 14.3292 26.2388 14.4144 26.4444C14.4995 26.65 14.5218 26.8762 14.4784 27.0944C14.435 27.3126 14.3278 27.5131 14.1705 27.6704C14.0132 27.8278 13.8127 27.9349 13.5945 27.9783C13.3762 28.0217 13.15 27.9994 12.9445 27.9143C12.7389 27.8291 12.5632 27.685 12.4396 27.4999C12.316 27.3149 12.25 27.0974 12.25 26.8749C12.25 26.5766 12.3685 26.2904 12.5795 26.0794C12.7905 25.8685 13.0766 25.7499 13.375 25.7499Z" fill="#F7F6F2"/>
</svg>
