<svg width="44" height="44" viewBox="0 0 44 44" fill="none" xmlns="http://www.w3.org/2000/svg">
<rect x="1" y="1" width="42" height="42" rx="9" fill="#E37C96"/>
<rect x="1" y="1" width="42" height="42" rx="9" stroke="black" stroke-width="2"/>
<path d="M22 18.0947C19.8496 18.0947 18.0947 19.8496 18.0947 22C18.0947 24.1504 19.8496 25.9053 22 25.9053C24.1504 25.9053 25.9053 24.1504 25.9053 22C25.9053 19.8496 24.1504 18.0947 22 18.0947ZM33.7129 22C33.7129 20.3828 33.7276 18.7803 33.6367 17.166C33.5459 15.291 33.1182 13.627 31.7471 12.2559C30.3731 10.8819 28.7119 10.457 26.8369 10.3662C25.2197 10.2754 23.6172 10.2901 22.0029 10.2901C20.3858 10.2901 18.7832 10.2754 17.169 10.3662C15.294 10.457 13.6299 10.8848 12.2588 12.2559C10.8848 13.6299 10.46 15.291 10.3692 17.166C10.2783 18.7832 10.293 20.3858 10.293 22C10.293 23.6143 10.2783 25.2197 10.3692 26.834C10.46 28.709 10.8877 30.3731 12.2588 31.7442C13.6328 33.1182 15.294 33.543 17.169 33.6338C18.7861 33.7246 20.3887 33.71 22.0029 33.71C23.6201 33.71 25.2227 33.7246 26.8369 33.6338C28.7119 33.543 30.376 33.1153 31.7471 31.7442C33.1211 30.3701 33.5459 28.709 33.6367 26.834C33.7305 25.2197 33.7129 23.6172 33.7129 22ZM22 28.0088C18.6748 28.0088 15.9912 25.3252 15.9912 22C15.9912 18.6748 18.6748 15.9912 22 15.9912C25.3252 15.9912 28.0088 18.6748 28.0088 22C28.0088 25.3252 25.3252 28.0088 22 28.0088ZM28.2549 17.1485C27.4785 17.1485 26.8516 16.5215 26.8516 15.7451C26.8516 14.9688 27.4785 14.3418 28.2549 14.3418C29.0313 14.3418 29.6582 14.9688 29.6582 15.7451C29.6585 15.9295 29.6223 16.1121 29.5519 16.2824C29.4814 16.4528 29.3781 16.6076 29.2477 16.7379C29.1174 16.8683 28.9626 16.9717 28.7922 17.0421C28.6218 17.1125 28.4393 17.1487 28.2549 17.1485Z" fill="white"/>
</svg>
