<svg width="32" height="32" viewBox="0 0 32 32" fill="none" xmlns="http://www.w3.org/2000/svg">
<path d="M10.3062 1.53751C9.825 0.375005 8.55625 -0.243745 7.34375 0.0875054L1.84375 1.58751C0.75625 1.88751 0 2.87501 0 4.00001C0 19.4625 12.5375 32 28 32C29.125 32 30.1125 31.2438 30.4125 30.1563L31.9125 24.6563C32.2438 23.4438 31.625 22.175 30.4625 21.6938L24.4625 19.1938C23.4438 18.7688 22.2625 19.0625 21.5688 19.9188L19.0438 23C14.6438 20.9188 11.0813 17.3563 9 12.9563L12.0813 10.4375C12.9375 9.73751 13.2312 8.5625 12.8062 7.54376L10.3062 1.54376V1.53751Z" fill="#D1D5DB"/>
</svg>
