<svg width="44" height="44" viewBox="0 0 44 44" fill="none" xmlns="http://www.w3.org/2000/svg">
<rect x="1" y="1" width="42" height="42" rx="9" fill="#3156AD"/>
<rect x="1" y="1" width="42" height="42" rx="9" stroke="black" stroke-width="2"/>
<path d="M22.525 10.02C23.835 10 25.135 10.01 26.435 10C26.515 11.53 27.065 13.09 28.185 14.17C29.305 15.28 30.885 15.79 32.425 15.96V19.99C30.985 19.94 29.535 19.64 28.225 19.02C27.655 18.76 27.125 18.43 26.605 18.09C26.595 21.01 26.615 23.93 26.585 26.84C26.505 28.24 26.045 29.63 25.235 30.78C23.925 32.7 21.655 33.95 19.325 33.99C17.895 34.07 16.465 33.68 15.245 32.96C13.225 31.77 11.805 29.59 11.595 27.25C11.575 26.75 11.565 26.25 11.585 25.76C11.765 23.86 12.705 22.04 14.165 20.8C15.825 19.36 18.145 18.67 20.315 19.08C20.335 20.56 20.275 22.04 20.275 23.52C19.285 23.2 18.125 23.29 17.255 23.89C16.625 24.3 16.145 24.93 15.895 25.64C15.685 26.15 15.745 26.71 15.755 27.25C15.995 28.89 17.575 30.27 19.255 30.12C20.375 30.11 21.445 29.46 22.025 28.51C22.215 28.18 22.425 27.84 22.435 27.45C22.535 25.66 22.495 23.88 22.505 22.09C22.515 18.06 22.495 14.04 22.525 10.02Z" fill="white"/>
</svg>
