<svg width="37" height="36" viewBox="0 0 37 36" fill="none" xmlns="http://www.w3.org/2000/svg">
<rect x="1.5" y="1" width="34" height="34" rx="9" fill="#65A3D5"/>
<rect x="1.5" y="1" width="34" height="34" rx="9" stroke="black" stroke-width="2"/>
<path d="M25.0062 24.2781L20.3112 16.8996L24.944 11.8033C25.0488 11.6852 25.1028 11.5306 25.0943 11.3729C25.0858 11.2152 25.0155 11.0673 24.8987 10.9611C24.7818 10.8549 24.6278 10.7991 24.4701 10.8057C24.3123 10.8122 24.1636 10.8807 24.056 10.9963L19.643 15.8503L16.6062 11.0781C16.5521 10.9928 16.4773 10.9226 16.3888 10.874C16.3003 10.8254 16.201 10.7998 16.1 10.7998H12.5C12.3924 10.7998 12.2868 10.8286 12.1942 10.8834C12.1016 10.9382 12.0254 11.0168 11.9737 11.1111C11.9219 11.2055 11.8965 11.3119 11.9 11.4195C11.9035 11.527 11.9359 11.6316 11.9937 11.7223L16.6887 19.1001L12.056 24.2001C12.0019 24.2582 11.9599 24.3264 11.9323 24.4009C11.9048 24.4754 11.8924 24.5546 11.8957 24.6339C11.899 24.7133 11.918 24.7911 11.9516 24.8631C11.9853 24.935 12.0329 24.9995 12.0916 25.0529C12.1504 25.1063 12.2191 25.1475 12.2939 25.1741C12.3687 25.2008 12.4481 25.2123 12.5274 25.208C12.6067 25.2037 12.6843 25.1838 12.7558 25.1493C12.8273 25.1148 12.8913 25.0665 12.944 25.0071L17.357 20.1531L20.3937 24.9253C20.4483 25.0098 20.5233 25.0793 20.6118 25.1273C20.7002 25.1752 20.7993 25.2002 20.9 25.1998H24.5C24.6074 25.1998 24.7129 25.1709 24.8054 25.1161C24.8979 25.0614 24.974 24.9828 25.0257 24.8886C25.0774 24.7945 25.1029 24.6881 25.0995 24.5807C25.0961 24.4733 25.0639 24.3688 25.0062 24.2781ZM21.2292 23.9998L13.5927 11.9998H15.7677L23.4072 23.9998H21.2292Z" fill="white"/>
</svg>
