<svg width="44" height="44" viewBox="0 0 44 44" fill="none" xmlns="http://www.w3.org/2000/svg">
<rect x="1" y="1" width="42" height="42" rx="9" fill="#B43933"/>
<rect x="1" y="1" width="42" height="42" rx="9" stroke="black" stroke-width="2"/>
<path d="M33.498 16.186C33.3624 15.6753 33.095 15.2091 32.7226 14.8342C32.3502 14.4594 31.8858 14.1889 31.376 14.05C29.505 13.545 22 13.545 22 13.545C22 13.545 14.495 13.545 12.623 14.05C12.1134 14.1892 11.6493 14.4597 11.2771 14.8346C10.9049 15.2094 10.6376 15.6754 10.502 16.186C10 18.07 10 22 10 22C10 22 10 25.93 10.502 27.814C10.6376 28.3247 10.905 28.7908 11.2774 29.1657C11.6498 29.5406 12.1142 29.811 12.624 29.95C14.495 30.455 22 30.455 22 30.455C22 30.455 29.505 30.455 31.377 29.95C31.8869 29.8111 32.3513 29.5407 32.7237 29.1658C33.0961 28.7909 33.3635 28.3248 33.499 27.814C34 25.93 34 22 34 22C34 22 34 18.07 33.498 16.186ZM19.545 25.568V18.432L25.818 22L19.545 25.568Z" fill="white"/>
</svg>
