<svg width="146" height="146" viewBox="0 0 146 146" fill="none" xmlns="http://www.w3.org/2000/svg">
<path d="M1 0.7H0.7V1V14.0718C0.7 19.7604 5.31146 24.3718 11 24.3718H24.0718H24.3718V24.0718V1V0.7H24.0718H1Z" stroke="white" stroke-width="0.6"/>
<path d="M19.1415 9.68229L19.0534 9.59322H18.9281H16.3709V7V6.2696L15.8576 6.78913L12.9992 9.68174L10.1425 6.7892L9.62905 6.26929V7V9.59322H7.07004H6.94473L6.85665 9.68235L3.78661 12.7891L3.5783 12.9999L3.78655 13.2108L6.85659 16.3194L6.94468 16.4086H7.07004H9.62905V19V19.7304L10.1424 19.2109L12.9992 16.32L15.8576 19.2109L16.3709 19.7301V19V16.4086H18.9281H19.0535L19.1415 16.3195L22.2134 13.2109L22.4218 12.9999L22.2133 12.7891L19.1415 9.68229Z" stroke="white" stroke-width="0.6"/>
<rect x="96.9871" y="24.7718" width="23.6718" height="23.6718" stroke="white" stroke-width="0.6"/>
<path d="M115.429 33.7541L115.341 33.665H115.215H112.658V31.0718V30.3414L112.145 30.8609L109.286 33.7535L106.43 30.861L105.916 30.3411V31.0718V33.665H103.357H103.232L103.144 33.7541L100.074 36.8609L99.8654 37.0717L100.074 37.2826L103.144 40.3912L103.232 40.4804H103.357H105.916V43.0718V43.8022L106.43 43.2826L109.286 40.3917L112.145 43.2827L112.658 43.8019V43.0718V40.4804H115.215H115.341L115.429 40.3913L118.5 37.2826L118.709 37.0717L118.5 36.8608L115.429 33.7541Z" stroke="white" stroke-width="0.6"/>
<rect x="48.8436" y="96.9871" width="23.6718" height="23.6718" stroke="white" stroke-width="0.6"/>
<path d="M67.285 105.969L67.197 105.88H67.0717H64.5145V103.287V102.557L64.0011 103.076L61.1427 105.969L58.2861 103.076L57.7726 102.556V103.287V105.88H55.2136H55.0883L55.0002 105.969L51.9302 109.076L51.7219 109.287L51.9301 109.498L55.0001 112.607L55.0882 112.696H55.2136H57.7726V115.287V116.018L58.286 115.498L61.1427 112.607L64.0012 115.498L64.5145 116.017V115.287V112.696H67.0717H67.197L67.2851 112.607L70.3569 109.498L70.5654 109.287L70.3569 109.076L67.285 105.969Z" stroke="white" stroke-width="0.6"/>
<rect x="24.7718" y="121.059" width="23.6718" height="23.6718" stroke="white" stroke-width="0.6"/>
<path d="M43.2132 130.041L43.1252 129.952H42.9999H40.4427V127.359V126.629L39.9293 127.148L37.0709 130.041L34.2143 127.148L33.7008 126.628V127.359V129.952H31.1418H31.0165L30.9284 130.041L27.8584 133.148L27.6501 133.359L27.8583 133.57L30.9284 136.679L31.0165 136.768H31.1418H33.7008V139.359V140.09L34.2142 139.57L37.0709 136.679L39.9294 139.57L40.4427 140.089V139.359V136.768H42.9999H43.1252L43.2133 136.679L46.2852 133.57L46.4936 133.359L46.2851 133.148L43.2132 130.041Z" stroke="white" stroke-width="0.6"/>
<rect x="48.8436" y="48.8436" width="23.6718" height="23.6718" stroke="white" stroke-width="0.6"/>
<path d="M67.285 57.8258L67.197 57.7368H67.0717H64.5145V55.1436V54.4132L64.0011 54.9327L61.1427 57.8253L58.2861 54.9328L57.7726 54.4128V55.1436V57.7368H55.2136H55.0883L55.0002 57.8259L51.9302 60.9327L51.7219 61.1435L51.9301 61.3544L55.0001 64.463L55.0882 64.5522H55.2136H57.7726V67.1436V67.874L58.286 67.3544L61.1427 64.4635L64.0012 67.3545L64.5145 67.8736V67.1436V64.5522H67.0717H67.197L67.2851 64.463L70.3569 61.3544L70.5654 61.1435L70.3569 60.9326L67.285 57.8258Z" stroke="white" stroke-width="0.6"/>
<rect x="121.059" y="121.059" width="23.6718" height="23.6718" stroke="white" stroke-width="0.6"/>
<path d="M139.501 130.041L139.413 129.952H139.287H136.73V127.359V126.629L136.217 127.148L133.358 130.041L130.502 127.148L129.988 126.628V127.359V129.952H127.429H127.304L127.216 130.041L124.146 133.148L123.937 133.359L124.146 133.57L127.216 136.679L127.304 136.768H127.429H129.988V139.359V140.09L130.502 139.57L133.358 136.679L136.217 139.57L136.73 140.089V139.359V136.768H139.287H139.413L139.501 136.679L142.573 133.57L142.781 133.359L142.572 133.148L139.501 130.041Z" stroke="white" stroke-width="0.6"/>
<path d="M97.2874 121.059H96.9874V121.359V144.431V144.731H97.2874H120.359H120.659V144.431V121.359V121.059H120.359H97.2874Z" stroke="white" stroke-width="0.6"/>
<path d="M109.978 141.059L102.759 125.659H109.597L116.815 141.059H109.978Z" stroke="white" stroke-width="0.6"/>
<path d="M24.3718 121.359V121.059H24.0718H11C5.31147 121.059 0.7 125.671 0.7 131.359V144.431V144.731H1H24.0718H24.3718V144.431V121.359Z" stroke="white" stroke-width="0.6"/>
<path d="M13.6907 141.059L6.47195 125.659H13.3093L20.5281 141.059H13.6907Z" stroke="white" stroke-width="0.6"/>
<path d="M121.359 0.7H121.059V1V24.0718V24.3718H121.359H144.431H144.731V24.0718V1V0.7H144.431H121.359Z" stroke="white" stroke-width="0.6"/>
<path d="M134.05 20.7L126.831 5.3H133.668L140.887 20.7H134.05Z" stroke="white" stroke-width="0.6"/>
<path d="M48.4436 97.2871V96.9871H48.1436H35.0718C29.3832 96.9871 24.7718 101.599 24.7718 107.287V120.359V120.659H25.0718H48.1436H48.4436V120.359V97.2871Z" stroke="white" stroke-width="0.6"/>
<path d="M37.7625 116.987L30.5437 101.587H37.3811L44.5998 116.987H37.7625Z" stroke="white" stroke-width="0.6"/>
<rect x="48.8436" y="24.7718" width="23.6718" height="23.6718" stroke="white" stroke-width="0.6"/>
<path d="M52.3359 37.4478L61.1971 28.5865L70.0268 37.2397L60.9658 46.0777L52.3359 37.4478Z" stroke="white" stroke-width="0.6"/>
<rect x="72.9156" y="72.9156" width="23.6718" height="23.6718" stroke="white" stroke-width="0.6"/>
<path d="M76.4079 85.5916L85.2691 76.7303L94.0989 85.3835L85.0379 94.2215L76.4079 85.5916Z" stroke="white" stroke-width="0.6"/>
<rect x="48.8436" y="121.059" width="23.6718" height="23.6718" stroke="white" stroke-width="0.6"/>
<path d="M52.3359 133.735L61.1971 124.874L70.0268 133.527L60.9658 142.365L52.3359 133.735Z" stroke="white" stroke-width="0.6"/>
<rect x="121.059" y="24.7718" width="23.6718" height="23.6718" stroke="white" stroke-width="0.6"/>
<path d="M124.551 37.4478L133.413 28.5865L142.242 37.2397L133.181 46.0777L124.551 37.4478Z" stroke="white" stroke-width="0.6"/>
<rect x="24.7718" y="0.7" width="23.6718" height="23.6718" stroke="white" stroke-width="0.6"/>
<circle cx="36.6077" cy="12" r="8.3" stroke="white" stroke-width="0.6"/>
<rect x="72.9156" y="48.8436" width="23.6718" height="23.6718" stroke="white" stroke-width="0.6"/>
<circle cx="84.7515" cy="60.1436" r="8.3" stroke="white" stroke-width="0.6"/>
<rect x="48.8436" y="72.9153" width="23.6718" height="23.6718" stroke="white" stroke-width="0.6"/>
<circle cx="60.6794" cy="84.2153" r="8.3" stroke="white" stroke-width="0.6"/>
<rect x="96.9874" y="96.9874" width="23.6718" height="23.6718" stroke="white" stroke-width="0.6"/>
<circle cx="108.823" cy="108.287" r="8.3" stroke="white" stroke-width="0.6"/>
<rect x="96.9874" y="0.7" width="23.6718" height="23.6718" stroke="white" stroke-width="0.6"/>
<circle cx="108.823" cy="12" r="8.3" stroke="white" stroke-width="0.6"/>
<rect x="121.059" y="72.9156" width="23.6718" height="23.6718" stroke="white" stroke-width="0.6"/>
<circle cx="132.895" cy="84.2156" r="8.3" stroke="white" stroke-width="0.6"/>
<rect x="48.8436" y="0.7" width="23.6718" height="23.6718" stroke="white" stroke-width="0.6"/>
<mask id="path-42-inside-1_1600_83696" fill="white">
<path fill-rule="evenodd" clip-rule="evenodd" d="M53.4473 3.01578H53.4788L53.463 3L53.4473 3.01578ZM54 3.537V8.19155L60.2499 14.4414L66.5314 8.15994V3.50539L60.2499 9.78688L54 3.537ZM67.0368 3L67.0526 3.01578H67.021L67.0368 3Z"/>
</mask>
<path d="M53.4473 3.01578L53.023 2.59151L51.9987 3.61578H53.4473V3.01578ZM53.4788 3.01578V3.61578H54.9273L53.9031 2.59151L53.4788 3.01578ZM53.463 3L53.8873 2.57574L53.463 2.15147L53.0388 2.57574L53.463 3ZM54 3.537L54.4243 3.11274L53.4 2.08847V3.537H54ZM54 8.19155H53.4V8.44008L53.5758 8.61581L54 8.19155ZM60.2499 14.4414L59.8257 14.8657L60.2499 15.29L60.6742 14.8657L60.2499 14.4414ZM66.5314 8.15994L66.9557 8.5842L67.1314 8.40847V8.15994H66.5314ZM66.5314 3.50539H67.1314V2.05686L66.1071 3.08113L66.5314 3.50539ZM60.2499 9.78688L59.8257 10.2111L60.2499 10.6354L60.6742 10.2111L60.2499 9.78688ZM67.0526 3.01578V3.61578H68.5011L67.4768 2.59152L67.0526 3.01578ZM67.0368 3L67.4611 2.57574L67.0368 2.15147L66.6125 2.57574L67.0368 3ZM67.021 3.01578L66.5968 2.59152L65.5725 3.61578H67.021V3.01578ZM53.4473 3.61578H53.4788V2.41578H53.4473V3.61578ZM53.0388 3.42426L53.0546 3.44004L53.9031 2.59151L53.8873 2.57574L53.0388 3.42426ZM53.8715 3.44004L53.8873 3.42426L53.0388 2.57574L53.023 2.59151L53.8715 3.44004ZM53.4 3.537V8.19155H54.6V3.537H53.4ZM60.6742 14.0172L54.4243 7.76728L53.5758 8.61581L59.8257 14.8657L60.6742 14.0172ZM66.1071 7.73567L59.8257 14.0172L60.6742 14.8657L66.9557 8.5842L66.1071 7.73567ZM65.9314 3.50539V8.15994H67.1314V3.50539H65.9314ZM60.6742 10.2111L66.9557 3.92966L66.1071 3.08113L59.8257 9.36261L60.6742 10.2111ZM53.5758 3.96127L59.8257 10.2111L60.6742 9.36261L54.4243 3.11274L53.5758 3.96127ZM67.4768 2.59152L67.4611 2.57574L66.6125 3.42426L66.6283 3.44004L67.4768 2.59152ZM67.021 3.61578H67.0526V2.41578H67.021V3.61578ZM66.6125 2.57574L66.5968 2.59152L67.4453 3.44004L67.4611 3.42426L66.6125 2.57574Z" fill="white" mask="url(#path-42-inside-1_1600_83696)"/>
<mask id="path-44-inside-2_1600_83696" fill="white">
<path fill-rule="evenodd" clip-rule="evenodd" d="M53.4473 10.5744H53.4788L53.463 10.5586L53.4473 10.5744ZM54 11.0956V15.7501L60.2499 22L66.5314 15.7185V11.064L60.2499 17.3455L54 11.0956ZM67.0368 10.5586L67.0526 10.5744H67.021L67.0368 10.5586Z"/>
</mask>
<path d="M53.4473 10.5744L53.023 10.1501L51.9987 11.1744H53.4473V10.5744ZM53.4788 10.5744V11.1744H54.9273L53.9031 10.1501L53.4788 10.5744ZM53.463 10.5586L53.8873 10.1343L53.463 9.71007L53.0388 10.1343L53.463 10.5586ZM54 11.0956L54.4243 10.6713L53.4 9.64707V11.0956H54ZM54 15.7501H53.4V15.9987L53.5758 16.1744L54 15.7501ZM60.2499 22L59.8257 22.4243L60.2499 22.8485L60.6742 22.4243L60.2499 22ZM66.5314 15.7185L66.9557 16.1428L67.1314 15.9671V15.7185H66.5314ZM66.5314 11.064H67.1314V9.61546L66.1071 10.6397L66.5314 11.064ZM60.2499 17.3455L59.8257 17.7697L60.2499 18.194L60.6742 17.7697L60.2499 17.3455ZM67.0526 10.5744V11.1744H68.5011L67.4768 10.1501L67.0526 10.5744ZM67.0368 10.5586L67.4611 10.1343L67.0368 9.71006L66.6125 10.1343L67.0368 10.5586ZM67.021 10.5744L66.5968 10.1501L65.5725 11.1744H67.021V10.5744ZM53.4473 11.1744H53.4788V9.97437H53.4473V11.1744ZM53.0388 10.9829L53.0546 10.9986L53.9031 10.1501L53.8873 10.1343L53.0388 10.9829ZM53.8715 10.9986L53.8873 10.9829L53.0388 10.1343L53.023 10.1501L53.8715 10.9986ZM53.4 11.0956V15.7501H54.6V11.0956H53.4ZM60.6742 21.5758L54.4243 15.3259L53.5758 16.1744L59.8257 22.4243L60.6742 21.5758ZM66.1071 15.2943L59.8257 21.5758L60.6742 22.4243L66.9557 16.1428L66.1071 15.2943ZM65.9314 11.064V15.7185H67.1314V11.064H65.9314ZM60.6742 17.7697L66.9557 11.4882L66.1071 10.6397L59.8257 16.9212L60.6742 17.7697ZM53.5758 11.5199L59.8257 17.7697L60.6742 16.9212L54.4243 10.6713L53.5758 11.5199ZM67.4768 10.1501L67.4611 10.1343L66.6125 10.9829L66.6283 10.9986L67.4768 10.1501ZM67.021 11.1744H67.0526V9.97437H67.021V11.1744ZM66.6125 10.1343L66.5968 10.1501L67.4453 10.9986L67.4611 10.9829L66.6125 10.1343Z" fill="white" mask="url(#path-44-inside-2_1600_83696)"/>
<rect x="72.9153" y="24.7718" width="23.6718" height="23.6718" stroke="white" stroke-width="0.6"/>
<mask id="path-47-inside-3_1600_83696" fill="white">
<path fill-rule="evenodd" clip-rule="evenodd" d="M77.519 27.0876H77.5506L77.5348 27.0718L77.519 27.0876ZM78.0718 27.6088V32.2633L84.3217 38.5132L90.6032 32.2317V27.5772L84.3217 33.8587L78.0718 27.6088ZM91.1086 27.0718L91.1244 27.0876H91.0928L91.1086 27.0718Z"/>
</mask>
<path d="M77.519 27.0876L77.0948 26.6633L76.0705 27.6876H77.519V27.0876ZM77.5506 27.0876V27.6876H78.9991L77.9749 26.6633L77.5506 27.0876ZM77.5348 27.0718L77.9591 26.6475L77.5348 26.2232L77.1106 26.6475L77.5348 27.0718ZM78.0718 27.6088L78.4961 27.1845L77.4718 26.1603V27.6088H78.0718ZM78.0718 32.2633H77.4718V32.5119L77.6476 32.6876L78.0718 32.2633ZM84.3217 38.5132L83.8974 38.9375L84.3217 39.3617L84.746 38.9375L84.3217 38.5132ZM90.6032 32.2317L91.0274 32.656L91.2032 32.4802V32.2317H90.6032ZM90.6032 27.5772H91.2032V26.1286L90.1789 27.1529L90.6032 27.5772ZM84.3217 33.8587L83.8974 34.2829L84.3217 34.7072L84.746 34.2829L84.3217 33.8587ZM91.1244 27.0876V27.6876H92.5729L91.5486 26.6633L91.1244 27.0876ZM91.1086 27.0718L91.5328 26.6475L91.1086 26.2232L90.6843 26.6475L91.1086 27.0718ZM91.0928 27.0876L90.6685 26.6633L89.6443 27.6876H91.0928V27.0876ZM77.519 27.6876H77.5506V26.4876H77.519V27.6876ZM77.1106 27.496L77.1263 27.5118L77.9749 26.6633L77.9591 26.6475L77.1106 27.496ZM77.9433 27.5118L77.9591 27.496L77.1106 26.6475L77.0948 26.6633L77.9433 27.5118ZM77.4718 27.6088V32.2633H78.6718V27.6088H77.4718ZM84.746 38.0889L78.4961 31.8391L77.6476 32.6876L83.8974 38.9375L84.746 38.0889ZM90.1789 31.8075L83.8974 38.0889L84.746 38.9375L91.0274 32.656L90.1789 31.8075ZM90.0032 27.5772V32.2317H91.2032V27.5772H90.0032ZM84.746 34.2829L91.0274 28.0014L90.1789 27.1529L83.8974 33.4344L84.746 34.2829ZM77.6476 28.033L83.8974 34.2829L84.746 33.4344L78.4961 27.1845L77.6476 28.033ZM91.5486 26.6633L91.5328 26.6475L90.6843 27.496L90.7001 27.5118L91.5486 26.6633ZM91.0928 27.6876H91.1244V26.4876H91.0928V27.6876ZM90.6843 26.6475L90.6685 26.6633L91.5171 27.5118L91.5328 27.496L90.6843 26.6475Z" fill="white" mask="url(#path-47-inside-3_1600_83696)"/>
<mask id="path-49-inside-4_1600_83696" fill="white">
<path fill-rule="evenodd" clip-rule="evenodd" d="M77.519 34.6461H77.5506L77.5348 34.6304L77.519 34.6461ZM78.0718 35.1674V39.8219L84.3217 46.0718L90.6032 39.7903V35.1358L84.3217 41.4172L78.0718 35.1674ZM91.1086 34.6304L91.1244 34.6461H91.0928L91.1086 34.6304Z"/>
</mask>
<path d="M77.519 34.6461L77.0948 34.2219L76.0705 35.2461H77.519V34.6461ZM77.5506 34.6461V35.2461H78.9991L77.9749 34.2219L77.5506 34.6461ZM77.5348 34.6304L77.9591 34.2061L77.5348 33.7818L77.1106 34.2061L77.5348 34.6304ZM78.0718 35.1674L78.4961 34.7431L77.4718 33.7188V35.1674H78.0718ZM78.0718 39.8219H77.4718V40.0704L77.6476 40.2462L78.0718 39.8219ZM84.3217 46.0718L83.8974 46.4961L84.3217 46.9203L84.746 46.4961L84.3217 46.0718ZM90.6032 39.7903L91.0274 40.2146L91.2032 40.0388V39.7903H90.6032ZM90.6032 35.1358H91.2032V33.6872L90.1789 34.7115L90.6032 35.1358ZM84.3217 41.4172L83.8974 41.8415L84.3217 42.2658L84.746 41.8415L84.3217 41.4172ZM91.1244 34.6461V35.2461H92.5729L91.5486 34.2219L91.1244 34.6461ZM91.1086 34.6304L91.5328 34.2061L91.1086 33.7818L90.6843 34.2061L91.1086 34.6304ZM91.0928 34.6461L90.6685 34.2219L89.6443 35.2461H91.0928V34.6461ZM77.519 35.2461H77.5506V34.0461H77.519V35.2461ZM77.1106 35.0546L77.1263 35.0704L77.9749 34.2219L77.9591 34.2061L77.1106 35.0546ZM77.9433 35.0704L77.9591 35.0546L77.1106 34.2061L77.0948 34.2219L77.9433 35.0704ZM77.4718 35.1674V39.8219H78.6718V35.1674H77.4718ZM84.746 45.6475L78.4961 39.3977L77.6476 40.2462L83.8974 46.4961L84.746 45.6475ZM90.1789 39.366L83.8974 45.6475L84.746 46.4961L91.0274 40.2146L90.1789 39.366ZM90.0032 35.1358V39.7903H91.2032V35.1358H90.0032ZM84.746 41.8415L91.0274 35.56L90.1789 34.7115L83.8974 40.993L84.746 41.8415ZM77.6476 35.5916L83.8974 41.8415L84.746 40.993L78.4961 34.7431L77.6476 35.5916ZM91.5486 34.2219L91.5328 34.2061L90.6843 35.0546L90.7001 35.0704L91.5486 34.2219ZM91.0928 35.2461H91.1244V34.0461H91.0928V35.2461ZM90.6843 34.2061L90.6685 34.2219L91.5171 35.0704L91.5328 35.0546L90.6843 34.2061Z" fill="white" mask="url(#path-49-inside-4_1600_83696)"/>
<rect x="121.059" y="48.8436" width="23.6718" height="23.6718" stroke="white" stroke-width="0.6"/>
<mask id="path-52-inside-5_1600_83696" fill="white">
<path fill-rule="evenodd" clip-rule="evenodd" d="M125.663 51.1593H125.694L125.679 51.1436L125.663 51.1593ZM126.216 51.6808V56.3354L132.465 62.585L138.747 56.3032V51.6487L132.465 57.9304L126.216 51.6808ZM139.252 51.1436L139.268 51.1593H139.237L139.252 51.1436Z"/>
</mask>
<path d="M125.663 51.1593L125.239 50.7351L124.214 51.7593H125.663V51.1593ZM125.694 51.1593V51.7593H127.143L126.119 50.7351L125.694 51.1593ZM125.679 51.1436L126.103 50.7193L125.679 50.295L125.254 50.7193L125.679 51.1436ZM126.216 51.6808L126.64 51.2566L125.616 50.2323V51.6808H126.216ZM126.216 56.3354H125.616V56.5839L125.792 56.7596L126.216 56.3354ZM132.465 62.585L132.041 63.0092L132.465 63.4335L132.89 63.0092L132.465 62.585ZM138.747 56.3032L139.172 56.7275L139.347 56.5517V56.3032H138.747ZM138.747 51.6487H139.347V50.2001L138.323 51.2244L138.747 51.6487ZM132.465 57.9304L132.041 58.3547L132.465 58.779L132.89 58.3547L132.465 57.9304ZM139.268 51.1593V51.7593H140.717L139.692 50.7351L139.268 51.1593ZM139.252 51.1436L139.677 50.7193L139.252 50.295L138.828 50.7193L139.252 51.1436ZM139.237 51.1593L138.812 50.7351L137.788 51.7593H139.237V51.1593ZM125.663 51.7593H125.694V50.5593H125.663V51.7593ZM125.254 51.5678L125.27 51.5836L126.119 50.7351L126.103 50.7193L125.254 51.5678ZM126.087 51.5836L126.103 51.5678L125.254 50.7193L125.239 50.7351L126.087 51.5836ZM125.616 51.6808V56.3354H126.816V51.6808H125.616ZM132.89 62.1607L126.64 55.9111L125.792 56.7596L132.041 63.0092L132.89 62.1607ZM138.323 55.879L132.041 62.1607L132.89 63.0092L139.172 56.7275L138.323 55.879ZM138.147 51.6487V56.3032H139.347V51.6487H138.147ZM132.89 58.3547L139.172 52.0729L138.323 51.2244L132.041 57.5062L132.89 58.3547ZM125.792 52.1051L132.041 58.3547L132.89 57.5062L126.64 51.2566L125.792 52.1051ZM139.692 50.7351L139.677 50.7193L138.828 51.5678L138.844 51.5836L139.692 50.7351ZM139.237 51.7593H139.268V50.5593H139.237V51.7593ZM138.828 50.7193L138.812 50.7351L139.661 51.5836L139.677 51.5678L138.828 50.7193Z" fill="white" mask="url(#path-52-inside-5_1600_83696)"/>
<mask id="path-54-inside-6_1600_83696" fill="white">
<path fill-rule="evenodd" clip-rule="evenodd" d="M125.663 58.7181H125.694L125.679 58.7021L125.663 58.7181ZM126.216 59.2394V63.8938L132.465 70.1435L138.747 63.8619V59.2075L132.465 65.4891L126.216 59.2394ZM139.252 58.7021L139.268 58.7181H139.236L139.252 58.7021Z"/>
</mask>
<path d="M125.663 58.7181L125.238 58.2938L124.214 59.3181H125.663V58.7181ZM125.694 58.7181V59.3181H127.143L126.119 58.2938L125.694 58.7181ZM125.679 58.7021L126.103 58.2779L125.679 57.8536L125.254 58.2779L125.679 58.7021ZM126.216 59.2394L126.64 58.8151L125.616 57.7909V59.2394H126.216ZM126.216 63.8938H125.616V64.1424L125.792 64.3181L126.216 63.8938ZM132.465 70.1435L132.041 70.5678L132.465 70.992L132.89 70.5678L132.465 70.1435ZM138.747 63.8619L139.171 64.2862L139.347 64.1104V63.8619H138.747ZM138.747 59.2075H139.347V57.759L138.323 58.7832L138.747 59.2075ZM132.465 65.4891L132.041 65.9134L132.465 66.3376L132.89 65.9134L132.465 65.4891ZM139.268 58.7181V59.3181H140.717L139.693 58.2938L139.268 58.7181ZM139.252 58.7021L139.677 58.2779L139.252 57.8536L138.828 58.2779L139.252 58.7021ZM139.236 58.7181L138.812 58.2938L137.788 59.3181H139.236V58.7181ZM125.663 59.3181H125.694V58.1181H125.663V59.3181ZM125.254 59.1264L125.27 59.1423L126.119 58.2938L126.103 58.2779L125.254 59.1264ZM126.087 59.1423L126.103 59.1264L125.254 58.2779L125.238 58.2938L126.087 59.1423ZM125.616 59.2394V63.8938H126.816V59.2394H125.616ZM132.89 69.7192L126.64 63.4696L125.792 64.3181L132.041 70.5678L132.89 69.7192ZM138.323 63.4376L132.041 69.7192L132.89 70.5678L139.171 64.2862L138.323 63.4376ZM138.147 59.2075V63.8619H139.347V59.2075H138.147ZM132.89 65.9134L139.171 59.6318L138.323 58.7832L132.041 65.0648L132.89 65.9134ZM125.792 59.6637L132.041 65.9134L132.89 65.0648L126.64 58.8151L125.792 59.6637ZM139.693 58.2938L139.677 58.2779L138.828 59.1264L138.844 59.1423L139.693 58.2938ZM139.236 59.3181H139.268V58.1181H139.236V59.3181ZM138.828 58.2779L138.812 58.2938L139.661 59.1423L139.677 59.1264L138.828 58.2779Z" fill="white" mask="url(#path-54-inside-6_1600_83696)"/>
<rect x="96.9874" y="72.9156" width="23.6718" height="23.6718" stroke="white" stroke-width="0.6"/>
<mask id="path-57-inside-7_1600_83696" fill="white">
<path fill-rule="evenodd" clip-rule="evenodd" d="M101.591 75.2316H101.623L101.607 75.2158L101.591 75.2316ZM102.144 75.753V80.4078L108.394 86.6574L114.675 80.3756V75.7208L108.394 82.0026L102.144 75.753ZM115.18 75.2158L115.196 75.2316H115.165L115.18 75.2158Z"/>
</mask>
<path d="M101.591 75.2316L101.167 74.8073L100.143 75.8316H101.591V75.2316ZM101.623 75.2316V75.8316H103.071L102.047 74.8073L101.623 75.2316ZM101.607 75.2158L102.031 74.7916L101.607 74.3673L101.183 74.7916L101.607 75.2158ZM102.144 75.753L102.568 75.3287L101.544 74.3044V75.753H102.144ZM102.144 80.4078H101.544V80.6563L101.72 80.832L102.144 80.4078ZM108.394 86.6574L107.969 87.0816L108.394 87.5059L108.818 87.0816L108.394 86.6574ZM114.675 80.3756L115.1 80.7999L115.275 80.6241V80.3756H114.675ZM114.675 75.7208H115.275V74.2723L114.251 75.2966L114.675 75.7208ZM108.394 82.0026L107.969 82.4268L108.394 82.8511L108.818 82.4268L108.394 82.0026ZM115.196 75.2316V75.8316H116.645L115.62 74.8073L115.196 75.2316ZM115.18 75.2158L115.605 74.7916L115.18 74.3673L114.756 74.7916L115.18 75.2158ZM115.165 75.2316L114.74 74.8073L113.716 75.8316H115.165V75.2316ZM101.591 75.8316H101.623V74.6316H101.591V75.8316ZM101.183 75.6401L101.198 75.6559L102.047 74.8073L102.031 74.7916L101.183 75.6401ZM102.015 75.6559L102.031 75.6401L101.183 74.7916L101.167 74.8073L102.015 75.6559ZM101.544 75.753V80.4078H102.744V75.753H101.544ZM108.818 86.2331L102.568 79.9835L101.72 80.832L107.969 87.0816L108.818 86.2331ZM114.251 79.9513L107.969 86.2331L108.818 87.0816L115.1 80.7999L114.251 79.9513ZM114.075 75.7208V80.3756H115.275V75.7208H114.075ZM108.818 82.4268L115.1 76.1451L114.251 75.2966L107.969 81.5783L108.818 82.4268ZM101.72 76.1772L107.969 82.4268L108.818 81.5783L102.568 75.3287L101.72 76.1772ZM115.62 74.8073L115.605 74.7916L114.756 75.6401L114.772 75.6559L115.62 74.8073ZM115.165 75.8316H115.196V74.6316H115.165V75.8316ZM114.756 74.7916L114.74 74.8073L115.589 75.6559L115.605 75.6401L114.756 74.7916Z" fill="white" mask="url(#path-57-inside-7_1600_83696)"/>
<mask id="path-59-inside-8_1600_83696" fill="white">
<path fill-rule="evenodd" clip-rule="evenodd" d="M101.591 82.7904H101.623L101.607 82.7744L101.591 82.7904ZM102.144 83.3116V87.9662L108.394 94.2158L114.675 87.9342V83.2797L108.394 89.5613L102.144 83.3116ZM115.181 82.7744L115.197 82.7904H115.165L115.181 82.7744Z"/>
</mask>
<path d="M101.591 82.7904L101.167 82.3661L100.142 83.3904H101.591V82.7904ZM101.623 82.7904V83.3904H103.071L102.047 82.3661L101.623 82.7904ZM101.607 82.7744L102.031 82.3501L101.607 81.9259L101.183 82.3501L101.607 82.7744ZM102.144 83.3116L102.568 82.8874L101.544 81.8631V83.3116H102.144ZM102.144 87.9662H101.544V88.2147L101.72 88.3904L102.144 87.9662ZM108.394 94.2158L107.969 94.6401L108.394 95.0644L108.818 94.6401L108.394 94.2158ZM114.675 87.9342L115.1 88.3585L115.275 88.1828V87.9342H114.675ZM114.675 83.2797H115.275V81.8312L114.251 82.8554L114.675 83.2797ZM108.394 89.5613L107.969 89.9856L108.394 90.4098L108.818 89.9856L108.394 89.5613ZM115.197 82.7904V83.3904H116.645L115.621 82.3661L115.197 82.7904ZM115.181 82.7744L115.605 82.3501L115.181 81.9259L114.756 82.3501L115.181 82.7744ZM115.165 82.7904L114.74 82.3661L113.716 83.3904H115.165V82.7904ZM101.591 83.3904H101.623V82.1904H101.591V83.3904ZM101.183 83.1987L101.199 83.2147L102.047 82.3661L102.031 82.3501L101.183 83.1987ZM102.015 83.2147L102.031 83.1987L101.183 82.3501L101.167 82.3661L102.015 83.2147ZM101.544 83.3116V87.9662H102.744V83.3116H101.544ZM108.818 93.7916L102.568 87.5419L101.72 88.3904L107.969 94.6401L108.818 93.7916ZM114.251 87.51L107.969 93.7916L108.818 94.6401L115.1 88.3585L114.251 87.51ZM114.075 83.2797V87.9342H115.275V83.2797H114.075ZM108.818 89.9856L115.1 83.704L114.251 82.8554L107.969 89.137L108.818 89.9856ZM101.72 83.7359L107.969 89.9856L108.818 89.137L102.568 82.8874L101.72 83.7359ZM115.621 82.3661L115.605 82.3501L114.756 83.1987L114.772 83.2147L115.621 82.3661ZM115.165 83.3904H115.197V82.1904H115.165V83.3904ZM114.756 82.3501L114.74 82.3661L115.589 83.2147L115.605 83.1987L114.756 82.3501Z" fill="white" mask="url(#path-59-inside-8_1600_83696)"/>
<rect x="72.9156" y="121.059" width="23.6718" height="23.6718" stroke="white" stroke-width="0.6"/>
<mask id="path-62-inside-9_1600_83696" fill="white">
<path fill-rule="evenodd" clip-rule="evenodd" d="M77.5193 123.375H77.551L77.5351 123.359L77.5193 123.375ZM78.0722 123.896V128.551L84.3219 134.801L90.6035 128.519V123.865L84.322 130.146L78.0722 123.896ZM91.1088 123.359L91.1245 123.375H91.0931L91.1088 123.359Z"/>
</mask>
<path d="M77.5193 123.375L77.095 122.951L76.0708 123.975H77.5193V123.375ZM77.551 123.375V123.975H78.9995L77.9752 122.951L77.551 123.375ZM77.5351 123.359L77.9594 122.935L77.5351 122.511L77.1109 122.935L77.5351 123.359ZM78.0722 123.896L78.4965 123.472L77.4722 122.448V123.896H78.0722ZM78.0722 128.551H77.4722V128.799L77.648 128.975L78.0722 128.551ZM84.3219 134.801L83.8976 135.225L84.3219 135.649L84.7462 135.225L84.3219 134.801ZM90.6035 128.519L91.0278 128.943L91.2035 128.768V128.519H90.6035ZM90.6035 123.865H91.2035V122.416L90.1793 123.44L90.6035 123.865ZM84.322 130.146L83.8978 130.57L84.322 130.995L84.7463 130.57L84.322 130.146ZM91.1245 123.375V123.975H92.5731L91.5488 122.951L91.1245 123.375ZM91.1088 123.359L91.5331 122.935L91.1088 122.511L90.6846 122.935L91.1088 123.359ZM91.0931 123.375L90.6688 122.951L89.6446 123.975H91.0931V123.375ZM77.5193 123.975H77.551V122.775H77.5193V123.975ZM77.1109 123.783L77.1267 123.799L77.9752 122.951L77.9594 122.935L77.1109 123.783ZM77.9436 123.799L77.9594 123.783L77.1109 122.935L77.095 122.951L77.9436 123.799ZM77.4722 123.896V128.551H78.6722V123.896H77.4722ZM84.7462 134.376L78.4965 128.127L77.648 128.975L83.8976 135.225L84.7462 134.376ZM90.1793 128.095L83.8976 134.376L84.7462 135.225L91.0278 128.943L90.1793 128.095ZM90.0035 123.865V128.519H91.2035V123.865H90.0035ZM84.7463 130.57L91.0278 124.289L90.1793 123.44L83.8978 129.722L84.7463 130.57ZM77.648 124.321L83.8978 130.57L84.7463 129.722L78.4965 123.472L77.648 124.321ZM91.5488 122.951L91.5331 122.935L90.6846 123.784L90.7003 123.799L91.5488 122.951ZM91.0931 123.975H91.1245V122.775H91.0931V123.975ZM90.6846 122.935L90.6688 122.951L91.5174 123.799L91.5331 123.784L90.6846 122.935Z" fill="white" mask="url(#path-62-inside-9_1600_83696)"/>
<mask id="path-64-inside-10_1600_83696" fill="white">
<path fill-rule="evenodd" clip-rule="evenodd" d="M77.5193 130.934H77.5509L77.5351 130.918L77.5193 130.934ZM78.0722 131.455V136.109L84.322 142.359L90.6035 136.078V131.423L84.322 137.705L78.0722 131.455ZM91.1089 130.918L91.1247 130.934H91.093L91.1089 130.918Z"/>
</mask>
<path d="M77.5193 130.934L77.095 130.509L76.0708 131.534H77.5193V130.934ZM77.5509 130.934V131.534H78.9994L77.9752 130.509L77.5509 130.934ZM77.5351 130.918L77.9594 130.493L77.5351 130.069L77.1108 130.493L77.5351 130.918ZM78.0722 131.455L78.4964 131.031L77.4722 130.006V131.455H78.0722ZM78.0722 136.109H77.4722V136.358L77.6479 136.534L78.0722 136.109ZM84.322 142.359L83.8977 142.783L84.322 143.208L84.7462 142.783L84.322 142.359ZM90.6035 136.078L91.0277 136.502L91.2035 136.326V136.078H90.6035ZM90.6035 131.423H91.2035V129.975L90.1792 130.999L90.6035 131.423ZM84.322 137.705L83.8977 138.129L84.322 138.553L84.7462 138.129L84.322 137.705ZM91.1247 130.934V131.534H92.5732L91.5489 130.509L91.1247 130.934ZM91.1089 130.918L91.5331 130.493L91.1089 130.069L90.6846 130.493L91.1089 130.918ZM91.093 130.934L90.6688 130.509L89.6445 131.534H91.093V130.934ZM77.5193 131.534H77.5509V130.334H77.5193V131.534ZM77.1108 131.342L77.1267 131.358L77.9752 130.509L77.9594 130.493L77.1108 131.342ZM77.9436 131.358L77.9594 131.342L77.1108 130.493L77.095 130.509L77.9436 131.358ZM77.4722 131.455V136.109H78.6722V131.455H77.4722ZM84.7462 141.935L78.4964 135.685L77.6479 136.534L83.8977 142.783L84.7462 141.935ZM90.1792 135.653L83.8977 141.935L84.7462 142.783L91.0277 136.502L90.1792 135.653ZM90.0035 131.423V136.078H91.2035V131.423H90.0035ZM84.7462 138.129L91.0277 131.847L90.1792 130.999L83.8977 137.28L84.7462 138.129ZM77.6479 131.879L83.8977 138.129L84.7462 137.28L78.4964 131.031L77.6479 131.879ZM91.5489 130.509L91.5331 130.493L90.6846 131.342L90.7004 131.358L91.5489 130.509ZM91.093 131.534H91.1247V130.334H91.093V131.534ZM90.6846 130.493L90.6688 130.509L91.5173 131.358L91.5331 131.342L90.6846 130.493Z" fill="white" mask="url(#path-64-inside-10_1600_83696)"/>
<path d="M73.2156 0.7H72.9156V1V24.0718V24.3718H73.2156H96.2874H96.5874V24.0718V1V0.7H96.2874H73.2156Z" stroke="white" stroke-width="0.6"/>
<path d="M75.9905 12.1713V12.4713H76.2905H79.0468H79.1711L79.259 12.3834L83.7587 7.88364L83.8466 7.79577V7.67151V5.00293V4.70293H83.5466H80.7903H80.666L80.5782 4.7908L76.0784 9.29056L75.9905 9.37843V9.50269V12.1713Z" stroke="#FCFCFC" stroke-width="0.6"/>
<path d="M83.5415 21.0214H83.8415V20.7214V18.0529V17.9286L83.7537 17.8407L79.2539 13.341L79.166 13.2531H79.0418H76.2874H75.9874V13.5531V16.2217V16.3459L76.0752 16.4338L80.575 20.9336L80.6629 21.0214H80.7871H83.5415Z" stroke="#FCFCFC" stroke-width="0.6"/>
<path d="M92.2873 12.4683H92.5873V12.1683V9.49976V9.3755L92.4995 9.28763L87.9997 4.78787L87.9118 4.7H87.7876H85.0312H84.7312V5V7.66858V7.79284L84.8191 7.88071L89.3189 12.3805L89.4068 12.4683H89.531H92.2873Z" stroke="#FCFCFC" stroke-width="0.6"/>
<path d="M84.7256 20.7214V21.0214H85.0256H87.78H87.9043L87.9922 20.9336L92.4919 16.4338L92.5798 16.3459V16.2217V13.5531V13.2531H92.2798H89.5254H89.4011L89.3133 13.341L84.8135 17.8407L84.7256 17.9286V18.0529V20.7214Z" stroke="#FCFCFC" stroke-width="0.6"/>
<path d="M121.359 96.9874H121.059V97.2874V120.359V120.659H121.359H144.431H144.731V120.359V97.2874V96.9874H144.431H121.359Z" stroke="white" stroke-width="0.6"/>
<path d="M124.134 108.459V108.759H124.434H127.19H127.315L127.403 108.671L131.902 104.171L131.99 104.083V103.959V101.29V100.99H131.69H128.934H128.81L128.722 101.078L124.222 105.578L124.134 105.666V105.79V108.459Z" stroke="#FCFCFC" stroke-width="0.6"/>
<path d="M131.685 117.309H131.985V117.009V114.34V114.216L131.897 114.128L127.397 109.628L127.31 109.54H127.185H124.431H124.131V109.84V112.509V112.633L124.219 112.721L128.719 117.221L128.806 117.309H128.931H131.685Z" stroke="#FCFCFC" stroke-width="0.6"/>
<path d="M140.431 108.756H140.731V108.456V105.787V105.663L140.643 105.575L136.143 101.075L136.055 100.987H135.931H133.175H132.875V101.287V103.956V104.08L132.963 104.168L137.462 108.668L137.55 108.756H137.675H140.431Z" stroke="#FCFCFC" stroke-width="0.6"/>
<path d="M132.869 117.009V117.309H133.169H135.924H136.048L136.136 117.221L140.635 112.721L140.723 112.633V112.509V109.84V109.54H140.423H137.669H137.545L137.457 109.628L132.957 114.128L132.869 114.216V114.34V117.009Z" stroke="#FCFCFC" stroke-width="0.6"/>
<path d="M73.2156 96.9874H72.9156V97.2874V120.359V120.659H73.2156H96.2874H96.5874V120.359V97.2874V96.9874H96.2874H73.2156Z" stroke="white" stroke-width="0.6"/>
<path d="M75.9905 108.459V108.759H76.2905H79.0468H79.1711L79.259 108.671L83.7587 104.171L83.8466 104.083V103.959V101.29V100.99H83.5466H80.7903H80.666L80.5782 101.078L76.0784 105.578L75.9905 105.666V105.79V108.459Z" stroke="#FCFCFC" stroke-width="0.6"/>
<path d="M83.5415 117.309H83.8415V117.009V114.34V114.216L83.7537 114.128L79.2539 109.628L79.166 109.54H79.0418H76.2874H75.9874V109.84V112.509V112.633L76.0752 112.721L80.575 117.221L80.6629 117.309H80.7871H83.5415Z" stroke="#FCFCFC" stroke-width="0.6"/>
<path d="M92.2873 108.756H92.5873V108.456V105.787V105.663L92.4995 105.575L87.9997 101.075L87.9118 100.987H87.7876H85.0312H84.7312V101.287V103.956V104.08L84.8191 104.168L89.3189 108.668L89.4068 108.756H89.531H92.2873Z" stroke="#FCFCFC" stroke-width="0.6"/>
<path d="M84.7256 117.009V117.309H85.0256H87.78H87.9043L87.9922 117.221L92.4919 112.721L92.5798 112.633V112.509V109.84V109.54H92.2798H89.5254H89.4011L89.3133 109.628L84.8135 114.128L84.7256 114.216V114.34V117.009Z" stroke="#FCFCFC" stroke-width="0.6"/>
<path d="M25.0718 24.7718H24.7718V25.0718V38.1436C24.7718 43.8321 29.3832 48.4436 35.0718 48.4436H48.1436H48.4436V48.1436V25.0718V24.7718H48.1436H25.0718Z" stroke="white" stroke-width="0.6"/>
<path d="M27.8467 36.243V36.543H28.1467H30.903H31.0273L31.1152 36.4552L35.6149 31.9554L35.7028 31.8675V31.7433V29.0747V28.7747H35.4028H32.6465H32.5222L32.4344 28.8626L27.9346 33.3623L27.8467 33.4502V33.5745V36.243Z" stroke="#FCFCFC" stroke-width="0.6"/>
<path d="M35.3977 45.0931H35.6977V44.7931V42.1245V42.0003L35.6099 41.9124L31.1101 37.4126L31.0222 37.3248H30.898H28.1436H27.8436V37.6248V40.2933V40.4176L27.9314 40.5055L32.4312 45.0052L32.5191 45.0931H32.6433H35.3977Z" stroke="#FCFCFC" stroke-width="0.6"/>
<path d="M44.1435 36.5401H44.4435V36.2401V33.5715V33.4473L44.3557 33.3594L39.8559 28.8596L39.768 28.7718H39.6438H36.8875H36.5875V29.0718V31.7404V31.8646L36.6753 31.9525L41.1751 36.4522L41.263 36.5401H41.3872H44.1435Z" stroke="#FCFCFC" stroke-width="0.6"/>
<path d="M36.5818 44.7931V45.0931H36.8818H39.6362H39.7605L39.8484 45.0052L44.3481 40.5055L44.436 40.4176V40.2933V37.6248V37.3248H44.136H41.3816H41.2573L41.1695 37.4126L36.6697 41.9124L36.5818 42.0003V42.1245V44.7931Z" stroke="#FCFCFC" stroke-width="0.6"/>
<path d="M97.2871 48.8436H96.9871V49.1436V72.2154V72.5154H97.2871H120.359H120.659V72.2154V49.1436V48.8436H120.359H97.2871Z" stroke="white" stroke-width="0.6"/>
<path d="M100.062 60.3148V60.6148H100.362H103.118H103.243L103.331 60.527L107.83 56.0272L107.918 55.9393V55.8151V53.1465V52.8465H107.618H104.862H104.738L104.65 52.9344L100.15 57.4341L100.062 57.522V57.6462V60.3148Z" stroke="#FCFCFC" stroke-width="0.6"/>
<path d="M107.613 69.1649H107.913V68.8649V66.1963V66.072L107.825 65.9842L103.325 61.4844L103.238 61.3965H103.113H100.359H100.059V61.6965V64.3651V64.4894L100.147 64.5772L104.647 69.077L104.734 69.1649H104.859H107.613Z" stroke="#FCFCFC" stroke-width="0.6"/>
<path d="M116.359 60.6119H116.659V60.3119V57.6433V57.5191L116.571 57.4312L112.071 52.9314L111.983 52.8436H111.859H109.103H108.803V53.1436V55.8121V55.9364L108.891 56.0243L113.39 60.524L113.478 60.6119H113.603H116.359Z" stroke="#FCFCFC" stroke-width="0.6"/>
<path d="M108.797 68.8649V69.1649H109.097H111.852H111.976L112.064 69.077L116.563 64.5772L116.651 64.4894V64.3651V61.6965V61.3965H116.351H113.597H113.473L113.385 61.4844L108.885 65.9842L108.797 66.072V66.1963V68.8649Z" stroke="#FCFCFC" stroke-width="0.6"/>
</svg>
