<svg width="242" height="146" viewBox="0 0 242 146" fill="none" xmlns="http://www.w3.org/2000/svg">
<path d="M97 0.7H96.7V1V44.5C96.7 51.017 101.983 56.3 108.5 56.3C115.017 56.3 120.3 51.017 120.3 44.5V1V0.7H120H97Z" stroke="white" stroke-width="0.6"/>
<path d="M105.682 8.85853L105.593 8.9466V9.07186V11.6291H103H102.27L102.789 12.1424L105.682 15.0008L102.789 17.8575L102.269 18.371H103H105.593V20.93V21.0553L105.682 21.1433L108.789 24.2134L109 24.4217L109.211 24.2135L112.319 21.1434L112.409 21.0553V20.93V18.371H115H115.73L115.211 17.8576L112.32 15.0008L115.211 12.1424L115.73 11.6291H115H112.409V9.07186V8.94655L112.319 8.85847L109.211 5.78661L109 5.57817L108.789 5.78667L105.682 8.85853Z" stroke="white" stroke-width="0.6"/>
<rect x="192.987" y="24.7718" width="23.6718" height="23.6718" stroke="white" stroke-width="0.6"/>
<path d="M211.429 33.7541L211.341 33.665H211.215H208.658V31.0718V30.3414L208.145 30.8609L205.286 33.7535L202.43 30.861L201.916 30.3411V31.0718V33.665H199.357H199.232L199.144 33.7541L196.074 36.8609L195.865 37.0717L196.074 37.2826L199.144 40.3912L199.232 40.4804H199.357H201.916V43.0718V43.8022L202.43 43.2826L205.286 40.3917L208.145 43.2827L208.658 43.8019V43.0718V40.4804H211.215H211.341L211.429 40.3913L214.5 37.2826L214.709 37.0717L214.5 36.8608L211.429 33.7541Z" stroke="white" stroke-width="0.6"/>
<rect x="144.844" y="96.9871" width="23.6718" height="23.6718" stroke="white" stroke-width="0.6"/>
<path d="M163.285 105.969L163.197 105.88H163.072H160.514V103.287V102.557L160.001 103.076L157.143 105.969L154.286 103.076L153.773 102.556V103.287V105.88H151.214H151.088L151 105.969L147.93 109.076L147.722 109.287L147.93 109.498L151 112.607L151.088 112.696H151.214H153.773V115.287V116.018L154.286 115.498L157.143 112.607L160.001 115.498L160.514 116.017V115.287V112.696H163.072H163.197L163.285 112.607L166.357 109.498L166.565 109.287L166.357 109.076L163.285 105.969Z" stroke="white" stroke-width="0.6"/>
<rect x="120.772" y="121.059" width="23.6718" height="23.6718" stroke="white" stroke-width="0.6"/>
<path d="M139.213 130.041L139.125 129.952H139H136.443V127.359V126.629L135.929 127.148L133.071 130.041L130.214 127.148L129.701 126.628V127.359V129.952H127.142H127.017L126.928 130.041L123.858 133.148L123.65 133.359L123.858 133.57L126.928 136.679L127.016 136.768H127.142H129.701V139.359V140.09L130.214 139.57L133.071 136.679L135.929 139.57L136.443 140.089V139.359V136.768H139H139.125L139.213 136.679L142.285 133.57L142.494 133.359L142.285 133.148L139.213 130.041Z" stroke="white" stroke-width="0.6"/>
<rect x="144.844" y="48.8436" width="23.6718" height="23.6718" stroke="white" stroke-width="0.6"/>
<path d="M163.285 57.8258L163.197 57.7368H163.072H160.514V55.1436V54.4132L160.001 54.9327L157.143 57.8253L154.286 54.9328L153.773 54.4128V55.1436V57.7368H151.214H151.088L151 57.8259L147.93 60.9327L147.722 61.1435L147.93 61.3544L151 64.463L151.088 64.5522H151.214H153.773V67.1436V67.874L154.286 67.3544L157.143 64.4635L160.001 67.3545L160.514 67.8736V67.1436V64.5522H163.072H163.197L163.285 64.463L166.357 61.3544L166.565 61.1435L166.357 60.9326L163.285 57.8258Z" stroke="white" stroke-width="0.6"/>
<path d="M1 0.7H0.7V1V14.0718C0.7 19.7604 5.31146 24.3718 11 24.3718H24.0718H24.3718V24.0718V1V0.7H24.0718H1Z" stroke="white" stroke-width="0.6"/>
<path d="M19.1415 9.68229L19.0534 9.59322H18.9281H16.3709V7V6.2696L15.8576 6.78913L12.9992 9.68174L10.1425 6.7892L9.62905 6.26929V7V9.59322H7.07004H6.94473L6.85665 9.68235L3.78661 12.7891L3.5783 12.9999L3.78655 13.2108L6.85659 16.3194L6.94468 16.4086H7.07004H9.62905V19V19.7304L10.1424 19.2109L12.9992 16.32L15.8576 19.2109L16.3709 19.7301V19V16.4086H18.9281H19.0535L19.1415 16.3195L22.2134 13.2109L22.4218 12.9999L22.2133 12.7891L19.1415 9.68229Z" stroke="white" stroke-width="0.6"/>
<rect x="217.059" y="121.059" width="23.6718" height="23.6718" stroke="white" stroke-width="0.6"/>
<path d="M235.501 130.041L235.413 129.952H235.287H232.73V127.359V126.629L232.217 127.148L229.358 130.041L226.502 127.148L225.988 126.628V127.359V129.952H223.429H223.304L223.216 130.041L220.146 133.148L219.937 133.359L220.146 133.57L223.216 136.679L223.304 136.768H223.429H225.988V139.359V140.09L226.502 139.57L229.358 136.679L232.217 139.57L232.73 140.089V139.359V136.768H235.287H235.413L235.501 136.679L238.573 133.57L238.781 133.359L238.572 133.148L235.501 130.041Z" stroke="white" stroke-width="0.6"/>
<path d="M193.287 121.059H192.987V121.359V144.431V144.731H193.287H216.359H216.659V144.431V121.359V121.059H216.359H193.287Z" stroke="white" stroke-width="0.6"/>
<path d="M205.978 141.059L198.759 125.659H205.597L212.815 141.059H205.978Z" stroke="white" stroke-width="0.6"/>
<path d="M120.372 121.359V121.059H120.072H107C101.311 121.059 96.7 125.671 96.7 131.359V144.431V144.731H97H120.072H120.372V144.431V121.359Z" stroke="white" stroke-width="0.6"/>
<path d="M109.691 141.059L102.472 125.659H109.309L116.528 141.059H109.691Z" stroke="white" stroke-width="0.6"/>
<path d="M217.359 0.7H217.059V1V24.0718V24.3718H217.359H240.431H240.731V24.0718V1V0.7H240.431H217.359Z" stroke="white" stroke-width="0.6"/>
<path d="M230.05 20.7L222.831 5.3H229.668L236.887 20.7H230.05Z" stroke="white" stroke-width="0.6"/>
<rect x="144.844" y="24.7718" width="23.6718" height="23.6718" stroke="white" stroke-width="0.6"/>
<path d="M148.336 37.4478L157.197 28.5865L166.027 37.2397L156.966 46.0777L148.336 37.4478Z" stroke="white" stroke-width="0.6"/>
<rect x="168.916" y="72.9156" width="23.6718" height="23.6718" stroke="white" stroke-width="0.6"/>
<path d="M172.408 85.5916L181.269 76.7303L190.099 85.3835L181.038 94.2215L172.408 85.5916Z" stroke="white" stroke-width="0.6"/>
<rect x="144.844" y="121.059" width="23.6718" height="23.6718" stroke="white" stroke-width="0.6"/>
<path d="M148.336 133.735L157.197 124.874L166.027 133.527L156.966 142.365L148.336 133.735Z" stroke="white" stroke-width="0.6"/>
<rect x="217.059" y="24.7718" width="23.6718" height="23.6718" stroke="white" stroke-width="0.6"/>
<path d="M220.551 37.4478L229.413 28.5865L238.242 37.2397L229.181 46.0777L220.551 37.4478Z" stroke="white" stroke-width="0.6"/>
<rect x="168.916" y="48.8436" width="23.6718" height="23.6718" stroke="white" stroke-width="0.6"/>
<circle cx="180.751" cy="60.1436" r="8.3" stroke="white" stroke-width="0.6"/>
<path d="M25 0.7H24.7V1V27.5C24.7 34.017 29.983 39.3 36.5 39.3C43.017 39.3 48.3 34.017 48.3 27.5V1V0.7H48H25Z" stroke="white" stroke-width="0.6"/>
<circle cx="37" cy="14" r="8.3" stroke="white" stroke-width="0.6"/>
<rect x="144.844" y="72.9153" width="23.6718" height="23.6718" stroke="white" stroke-width="0.6"/>
<circle cx="156.679" cy="84.2153" r="8.3" stroke="white" stroke-width="0.6"/>
<rect x="192.987" y="96.9874" width="23.6718" height="23.6718" stroke="white" stroke-width="0.6"/>
<circle cx="204.823" cy="108.287" r="8.3" stroke="white" stroke-width="0.6"/>
<rect x="192.987" y="0.7" width="23.6718" height="23.6718" stroke="white" stroke-width="0.6"/>
<circle cx="204.823" cy="12" r="8.3" stroke="white" stroke-width="0.6"/>
<rect x="217.059" y="72.9156" width="23.6718" height="23.6718" stroke="white" stroke-width="0.6"/>
<circle cx="228.895" cy="84.2156" r="8.3" stroke="white" stroke-width="0.6"/>
<rect x="144.844" y="0.7" width="23.6718" height="23.6718" stroke="white" stroke-width="0.6"/>
<mask id="path-42-inside-1_1600_83890" fill="white">
<path fill-rule="evenodd" clip-rule="evenodd" d="M149.447 3.01578H149.479L149.463 3L149.447 3.01578ZM150 3.537V8.19155L156.25 14.4414L162.531 8.15994V3.50539L156.25 9.78688L150 3.537ZM163.037 3L163.053 3.01578H163.021L163.037 3Z"/>
</mask>
<path d="M149.447 3.01578L149.023 2.59151L147.999 3.61578H149.447V3.01578ZM149.479 3.01578V3.61578H150.927L149.903 2.59151L149.479 3.01578ZM149.463 3L149.887 2.57574L149.463 2.15147L149.039 2.57574L149.463 3ZM150 3.537L150.424 3.11274L149.4 2.08847V3.537H150ZM150 8.19155H149.4V8.44008L149.576 8.61581L150 8.19155ZM156.25 14.4414L155.826 14.8657L156.25 15.29L156.674 14.8657L156.25 14.4414ZM162.531 8.15994L162.956 8.5842L163.131 8.40847V8.15994H162.531ZM162.531 3.50539H163.131V2.05686L162.107 3.08113L162.531 3.50539ZM156.25 9.78688L155.826 10.2111L156.25 10.6354L156.674 10.2111L156.25 9.78688ZM163.053 3.01578V3.61578H164.501L163.477 2.59152L163.053 3.01578ZM163.037 3L163.461 2.57574L163.037 2.15147L162.613 2.57574L163.037 3ZM163.021 3.01578L162.597 2.59152L161.573 3.61578H163.021V3.01578ZM149.447 3.61578H149.479V2.41578H149.447V3.61578ZM149.039 3.42426L149.055 3.44004L149.903 2.59151L149.887 2.57574L149.039 3.42426ZM149.872 3.44004L149.887 3.42426L149.039 2.57574L149.023 2.59151L149.872 3.44004ZM149.4 3.537V8.19155H150.6V3.537H149.4ZM156.674 14.0172L150.424 7.76728L149.576 8.61581L155.826 14.8657L156.674 14.0172ZM162.107 7.73567L155.826 14.0172L156.674 14.8657L162.956 8.5842L162.107 7.73567ZM161.931 3.50539V8.15994H163.131V3.50539H161.931ZM156.674 10.2111L162.956 3.92966L162.107 3.08113L155.826 9.36261L156.674 10.2111ZM149.576 3.96127L155.826 10.2111L156.674 9.36261L150.424 3.11274L149.576 3.96127ZM163.477 2.59152L163.461 2.57574L162.613 3.42426L162.628 3.44004L163.477 2.59152ZM163.021 3.61578H163.053V2.41578H163.021V3.61578ZM162.613 2.57574L162.597 2.59152L163.445 3.44004L163.461 3.42426L162.613 2.57574Z" fill="white" mask="url(#path-42-inside-1_1600_83890)"/>
<mask id="path-44-inside-2_1600_83890" fill="white">
<path fill-rule="evenodd" clip-rule="evenodd" d="M149.447 10.5744H149.479L149.463 10.5586L149.447 10.5744ZM150 11.0956V15.7501L156.25 22L162.531 15.7185V11.064L156.25 17.3455L150 11.0956ZM163.037 10.5586L163.053 10.5744H163.021L163.037 10.5586Z"/>
</mask>
<path d="M149.447 10.5744L149.023 10.1501L147.999 11.1744H149.447V10.5744ZM149.479 10.5744V11.1744H150.927L149.903 10.1501L149.479 10.5744ZM149.463 10.5586L149.887 10.1343L149.463 9.71007L149.039 10.1343L149.463 10.5586ZM150 11.0956L150.424 10.6713L149.4 9.64707V11.0956H150ZM150 15.7501H149.4V15.9987L149.576 16.1744L150 15.7501ZM156.25 22L155.826 22.4243L156.25 22.8485L156.674 22.4243L156.25 22ZM162.531 15.7185L162.956 16.1428L163.131 15.9671V15.7185H162.531ZM162.531 11.064H163.131V9.61546L162.107 10.6397L162.531 11.064ZM156.25 17.3455L155.826 17.7697L156.25 18.194L156.674 17.7697L156.25 17.3455ZM163.053 10.5744V11.1744H164.501L163.477 10.1501L163.053 10.5744ZM163.037 10.5586L163.461 10.1343L163.037 9.71006L162.613 10.1343L163.037 10.5586ZM163.021 10.5744L162.597 10.1501L161.573 11.1744H163.021V10.5744ZM149.447 11.1744H149.479V9.97437H149.447V11.1744ZM149.039 10.9829L149.055 10.9986L149.903 10.1501L149.887 10.1343L149.039 10.9829ZM149.872 10.9986L149.887 10.9829L149.039 10.1343L149.023 10.1501L149.872 10.9986ZM149.4 11.0956V15.7501H150.6V11.0956H149.4ZM156.674 21.5758L150.424 15.3259L149.576 16.1744L155.826 22.4243L156.674 21.5758ZM162.107 15.2943L155.826 21.5758L156.674 22.4243L162.956 16.1428L162.107 15.2943ZM161.931 11.064V15.7185H163.131V11.064H161.931ZM156.674 17.7697L162.956 11.4882L162.107 10.6397L155.826 16.9212L156.674 17.7697ZM149.576 11.5199L155.826 17.7697L156.674 16.9212L150.424 10.6713L149.576 11.5199ZM163.477 10.1501L163.461 10.1343L162.613 10.9829L162.628 10.9986L163.477 10.1501ZM163.021 11.1744H163.053V9.97437H163.021V11.1744ZM162.613 10.1343L162.597 10.1501L163.445 10.9986L163.461 10.9829L162.613 10.1343Z" fill="white" mask="url(#path-44-inside-2_1600_83890)"/>
<rect x="168.915" y="24.7718" width="23.6718" height="23.6718" stroke="white" stroke-width="0.6"/>
<mask id="path-47-inside-3_1600_83890" fill="white">
<path fill-rule="evenodd" clip-rule="evenodd" d="M173.519 27.0876H173.551L173.535 27.0718L173.519 27.0876ZM174.072 27.6088V32.2633L180.322 38.5132L186.603 32.2317V27.5772L180.322 33.8587L174.072 27.6088ZM187.109 27.0718L187.124 27.0876H187.093L187.109 27.0718Z"/>
</mask>
<path d="M173.519 27.0876L173.095 26.6633L172.071 27.6876H173.519V27.0876ZM173.551 27.0876V27.6876H174.999L173.975 26.6633L173.551 27.0876ZM173.535 27.0718L173.959 26.6475L173.535 26.2232L173.111 26.6475L173.535 27.0718ZM174.072 27.6088L174.496 27.1845L173.472 26.1603V27.6088H174.072ZM174.072 32.2633H173.472V32.5119L173.648 32.6876L174.072 32.2633ZM180.322 38.5132L179.897 38.9375L180.322 39.3617L180.746 38.9375L180.322 38.5132ZM186.603 32.2317L187.027 32.656L187.203 32.4802V32.2317H186.603ZM186.603 27.5772H187.203V26.1286L186.179 27.1529L186.603 27.5772ZM180.322 33.8587L179.897 34.2829L180.322 34.7072L180.746 34.2829L180.322 33.8587ZM187.124 27.0876V27.6876H188.573L187.549 26.6633L187.124 27.0876ZM187.109 27.0718L187.533 26.6475L187.109 26.2232L186.684 26.6475L187.109 27.0718ZM187.093 27.0876L186.669 26.6633L185.644 27.6876H187.093V27.0876ZM173.519 27.6876H173.551V26.4876H173.519V27.6876ZM173.111 27.496L173.126 27.5118L173.975 26.6633L173.959 26.6475L173.111 27.496ZM173.943 27.5118L173.959 27.496L173.111 26.6475L173.095 26.6633L173.943 27.5118ZM173.472 27.6088V32.2633H174.672V27.6088H173.472ZM180.746 38.0889L174.496 31.8391L173.648 32.6876L179.897 38.9375L180.746 38.0889ZM186.179 31.8075L179.897 38.0889L180.746 38.9375L187.027 32.656L186.179 31.8075ZM186.003 27.5772V32.2317H187.203V27.5772H186.003ZM180.746 34.2829L187.027 28.0014L186.179 27.1529L179.897 33.4344L180.746 34.2829ZM173.648 28.033L179.897 34.2829L180.746 33.4344L174.496 27.1845L173.648 28.033ZM187.549 26.6633L187.533 26.6475L186.684 27.496L186.7 27.5118L187.549 26.6633ZM187.093 27.6876H187.124V26.4876H187.093V27.6876ZM186.684 26.6475L186.669 26.6633L187.517 27.5118L187.533 27.496L186.684 26.6475Z" fill="white" mask="url(#path-47-inside-3_1600_83890)"/>
<mask id="path-49-inside-4_1600_83890" fill="white">
<path fill-rule="evenodd" clip-rule="evenodd" d="M173.519 34.6461H173.551L173.535 34.6304L173.519 34.6461ZM174.072 35.1674V39.8219L180.322 46.0718L186.603 39.7903V35.1358L180.322 41.4172L174.072 35.1674ZM187.109 34.6304L187.124 34.6461H187.093L187.109 34.6304Z"/>
</mask>
<path d="M173.519 34.6461L173.095 34.2219L172.071 35.2461H173.519V34.6461ZM173.551 34.6461V35.2461H174.999L173.975 34.2219L173.551 34.6461ZM173.535 34.6304L173.959 34.2061L173.535 33.7818L173.111 34.2061L173.535 34.6304ZM174.072 35.1674L174.496 34.7431L173.472 33.7188V35.1674H174.072ZM174.072 39.8219H173.472V40.0704L173.648 40.2462L174.072 39.8219ZM180.322 46.0718L179.897 46.4961L180.322 46.9203L180.746 46.4961L180.322 46.0718ZM186.603 39.7903L187.027 40.2146L187.203 40.0388V39.7903H186.603ZM186.603 35.1358H187.203V33.6872L186.179 34.7115L186.603 35.1358ZM180.322 41.4172L179.897 41.8415L180.322 42.2658L180.746 41.8415L180.322 41.4172ZM187.124 34.6461V35.2461H188.573L187.549 34.2219L187.124 34.6461ZM187.109 34.6304L187.533 34.2061L187.109 33.7818L186.684 34.2061L187.109 34.6304ZM187.093 34.6461L186.669 34.2219L185.644 35.2461H187.093V34.6461ZM173.519 35.2461H173.551V34.0461H173.519V35.2461ZM173.111 35.0546L173.126 35.0704L173.975 34.2219L173.959 34.2061L173.111 35.0546ZM173.943 35.0704L173.959 35.0546L173.111 34.2061L173.095 34.2219L173.943 35.0704ZM173.472 35.1674V39.8219H174.672V35.1674H173.472ZM180.746 45.6475L174.496 39.3977L173.648 40.2462L179.897 46.4961L180.746 45.6475ZM186.179 39.366L179.897 45.6475L180.746 46.4961L187.027 40.2146L186.179 39.366ZM186.003 35.1358V39.7903H187.203V35.1358H186.003ZM180.746 41.8415L187.027 35.56L186.179 34.7115L179.897 40.993L180.746 41.8415ZM173.648 35.5916L179.897 41.8415L180.746 40.993L174.496 34.7431L173.648 35.5916ZM187.549 34.2219L187.533 34.2061L186.684 35.0546L186.7 35.0704L187.549 34.2219ZM187.093 35.2461H187.124V34.0461H187.093V35.2461ZM186.684 34.2061L186.669 34.2219L187.517 35.0704L187.533 35.0546L186.684 34.2061Z" fill="white" mask="url(#path-49-inside-4_1600_83890)"/>
<rect x="217.059" y="48.8436" width="23.6718" height="23.6718" stroke="white" stroke-width="0.6"/>
<mask id="path-52-inside-5_1600_83890" fill="white">
<path fill-rule="evenodd" clip-rule="evenodd" d="M221.663 51.1593H221.694L221.679 51.1436L221.663 51.1593ZM222.216 51.6808V56.3354L228.465 62.585L234.747 56.3032V51.6487L228.465 57.9304L222.216 51.6808ZM235.252 51.1436L235.268 51.1593H235.237L235.252 51.1436Z"/>
</mask>
<path d="M221.663 51.1593L221.239 50.7351L220.214 51.7593H221.663V51.1593ZM221.694 51.1593V51.7593H223.143L222.119 50.7351L221.694 51.1593ZM221.679 51.1436L222.103 50.7193L221.679 50.295L221.254 50.7193L221.679 51.1436ZM222.216 51.6808L222.64 51.2566L221.616 50.2323V51.6808H222.216ZM222.216 56.3354H221.616V56.5839L221.792 56.7596L222.216 56.3354ZM228.465 62.585L228.041 63.0092L228.465 63.4335L228.89 63.0092L228.465 62.585ZM234.747 56.3032L235.172 56.7275L235.347 56.5517V56.3032H234.747ZM234.747 51.6487H235.347V50.2001L234.323 51.2244L234.747 51.6487ZM228.465 57.9304L228.041 58.3547L228.465 58.779L228.89 58.3547L228.465 57.9304ZM235.268 51.1593V51.7593H236.717L235.692 50.7351L235.268 51.1593ZM235.252 51.1436L235.677 50.7193L235.252 50.295L234.828 50.7193L235.252 51.1436ZM235.237 51.1593L234.812 50.7351L233.788 51.7593H235.237V51.1593ZM221.663 51.7593H221.694V50.5593H221.663V51.7593ZM221.254 51.5678L221.27 51.5836L222.119 50.7351L222.103 50.7193L221.254 51.5678ZM222.087 51.5836L222.103 51.5678L221.254 50.7193L221.239 50.7351L222.087 51.5836ZM221.616 51.6808V56.3354H222.816V51.6808H221.616ZM228.89 62.1607L222.64 55.9111L221.792 56.7596L228.041 63.0092L228.89 62.1607ZM234.323 55.879L228.041 62.1607L228.89 63.0092L235.172 56.7275L234.323 55.879ZM234.147 51.6487V56.3032H235.347V51.6487H234.147ZM228.89 58.3547L235.172 52.0729L234.323 51.2244L228.041 57.5062L228.89 58.3547ZM221.792 52.1051L228.041 58.3547L228.89 57.5062L222.64 51.2566L221.792 52.1051ZM235.692 50.7351L235.677 50.7193L234.828 51.5678L234.844 51.5836L235.692 50.7351ZM235.237 51.7593H235.268V50.5593H235.237V51.7593ZM234.828 50.7193L234.812 50.7351L235.661 51.5836L235.677 51.5678L234.828 50.7193Z" fill="white" mask="url(#path-52-inside-5_1600_83890)"/>
<mask id="path-54-inside-6_1600_83890" fill="white">
<path fill-rule="evenodd" clip-rule="evenodd" d="M221.663 58.7181H221.694L221.679 58.7021L221.663 58.7181ZM222.216 59.2394V63.8938L228.465 70.1435L234.747 63.8619V59.2075L228.465 65.4891L222.216 59.2394ZM235.252 58.7021L235.268 58.7181H235.236L235.252 58.7021Z"/>
</mask>
<path d="M221.663 58.7181L221.238 58.2938L220.214 59.3181H221.663V58.7181ZM221.694 58.7181V59.3181H223.143L222.119 58.2938L221.694 58.7181ZM221.679 58.7021L222.103 58.2779L221.679 57.8536L221.254 58.2779L221.679 58.7021ZM222.216 59.2394L222.64 58.8151L221.616 57.7909V59.2394H222.216ZM222.216 63.8938H221.616V64.1424L221.792 64.3181L222.216 63.8938ZM228.465 70.1435L228.041 70.5678L228.465 70.992L228.89 70.5678L228.465 70.1435ZM234.747 63.8619L235.171 64.2862L235.347 64.1104V63.8619H234.747ZM234.747 59.2075H235.347V57.759L234.323 58.7832L234.747 59.2075ZM228.465 65.4891L228.041 65.9134L228.465 66.3376L228.89 65.9134L228.465 65.4891ZM235.268 58.7181V59.3181H236.717L235.693 58.2938L235.268 58.7181ZM235.252 58.7021L235.677 58.2779L235.252 57.8536L234.828 58.2779L235.252 58.7021ZM235.236 58.7181L234.812 58.2938L233.788 59.3181H235.236V58.7181ZM221.663 59.3181H221.694V58.1181H221.663V59.3181ZM221.254 59.1264L221.27 59.1423L222.119 58.2938L222.103 58.2779L221.254 59.1264ZM222.087 59.1423L222.103 59.1264L221.254 58.2779L221.238 58.2938L222.087 59.1423ZM221.616 59.2394V63.8938H222.816V59.2394H221.616ZM228.89 69.7192L222.64 63.4696L221.792 64.3181L228.041 70.5678L228.89 69.7192ZM234.323 63.4376L228.041 69.7192L228.89 70.5678L235.171 64.2862L234.323 63.4376ZM234.147 59.2075V63.8619H235.347V59.2075H234.147ZM228.89 65.9134L235.171 59.6318L234.323 58.7832L228.041 65.0648L228.89 65.9134ZM221.792 59.6637L228.041 65.9134L228.89 65.0648L222.64 58.8151L221.792 59.6637ZM235.693 58.2938L235.677 58.2779L234.828 59.1264L234.844 59.1423L235.693 58.2938ZM235.236 59.3181H235.268V58.1181H235.236V59.3181ZM234.828 58.2779L234.812 58.2938L235.661 59.1423L235.677 59.1264L234.828 58.2779Z" fill="white" mask="url(#path-54-inside-6_1600_83890)"/>
<path d="M73 0.7H72.7V1V60.5C72.7 67.017 77.983 72.3 84.5 72.3C91.017 72.3 96.3 67.017 96.3 60.5V1V0.7H96H73Z" stroke="white" stroke-width="0.6"/>
<mask id="path-57-inside-7_1600_83890" fill="white">
<path fill-rule="evenodd" clip-rule="evenodd" d="M78.0002 5.01578H78.0318L78.016 5L78.0002 5.01578ZM78.5533 5.53728V10.1918L84.8029 16.4414L91.0847 10.1597V5.50512L84.8029 11.7869L78.5533 5.53728ZM91.5898 5L91.6056 5.01578H91.574L91.5898 5Z"/>
</mask>
<path d="M78.0002 5.01578L77.576 4.59151L76.5517 5.61578H78.0002V5.01578ZM78.0318 5.01578V5.61578H79.4803L78.4561 4.59151L78.0318 5.01578ZM78.016 5L78.4403 4.57574L78.016 4.15147L77.5918 4.57574L78.016 5ZM78.5533 5.53728L78.9776 5.11301L77.9533 4.08875V5.53728H78.5533ZM78.5533 10.1918H77.9533V10.4403L78.129 10.6161L78.5533 10.1918ZM84.8029 16.4414L84.3786 16.8657L84.8029 17.2899L85.2272 16.8657L84.8029 16.4414ZM91.0847 10.1597L91.5089 10.5839L91.6847 10.4082V10.1597H91.0847ZM91.0847 5.50512H91.6847V4.05659L90.6604 5.08086L91.0847 5.50512ZM84.8029 11.7869L84.3786 12.2111L84.8029 12.6354L85.2272 12.2111L84.8029 11.7869ZM91.6056 5.01578V5.61578H93.0541L92.0298 4.59152L91.6056 5.01578ZM91.5898 5L92.014 4.57574L91.5898 4.15147L91.1655 4.57574L91.5898 5ZM91.574 5.01578L91.1497 4.59152L90.1255 5.61578H91.574V5.01578ZM78.0002 5.61578H78.0318V4.41578H78.0002V5.61578ZM77.5918 5.42426L77.6075 5.44004L78.4561 4.59151L78.4403 4.57574L77.5918 5.42426ZM78.4245 5.44004L78.4403 5.42426L77.5918 4.57574L77.576 4.59151L78.4245 5.44004ZM77.9533 5.53728V10.1918H79.1533V5.53728H77.9533ZM85.2272 16.0172L78.9776 9.76756L78.129 10.6161L84.3786 16.8657L85.2272 16.0172ZM90.6604 9.7354L84.3786 16.0172L85.2272 16.8657L91.5089 10.5839L90.6604 9.7354ZM90.4847 5.50512V10.1597H91.6847V5.50512H90.4847ZM85.2272 12.2111L91.5089 5.92939L90.6604 5.08086L84.3786 11.3626L85.2272 12.2111ZM78.129 5.96154L84.3786 12.2111L85.2272 11.3626L78.9776 5.11301L78.129 5.96154ZM92.0298 4.59152L92.014 4.57574L91.1655 5.42426L91.1813 5.44004L92.0298 4.59152ZM91.574 5.61578H91.6056V4.41578H91.574V5.61578ZM91.1655 4.57574L91.1497 4.59152L91.9983 5.44004L92.014 5.42426L91.1655 4.57574Z" fill="white" mask="url(#path-57-inside-7_1600_83890)"/>
<mask id="path-59-inside-8_1600_83890" fill="white">
<path fill-rule="evenodd" clip-rule="evenodd" d="M78 12.5745H78.0319L78.0159 12.5586L78 12.5745ZM78.5532 13.0959V17.7503L84.8029 24L91.0845 17.7184V13.0639L84.8029 19.3455L78.5532 13.0959ZM91.5898 12.5586L91.6057 12.5745H91.5739L91.5898 12.5586Z"/>
</mask>
<path d="M78 12.5745L77.5757 12.1503L76.5515 13.1745H78V12.5745ZM78.0319 12.5745V13.1745H79.4804L78.4561 12.1503L78.0319 12.5745ZM78.0159 12.5586L78.4402 12.1343L78.0159 11.7101L77.5917 12.1343L78.0159 12.5586ZM78.5532 13.0959L78.9775 12.6716L77.9532 11.6473V13.0959H78.5532ZM78.5532 17.7503H77.9532V17.9988L78.1289 18.1745L78.5532 17.7503ZM84.8029 24L84.3786 24.4242L84.8029 24.8485L85.2271 24.4242L84.8029 24ZM91.0845 17.7184L91.5087 18.1426L91.6845 17.9669V17.7184H91.0845ZM91.0845 13.0639H91.6845V11.6154L90.6602 12.6397L91.0845 13.0639ZM84.8029 19.3455L84.3786 19.7698L84.8029 20.1941L85.2271 19.7698L84.8029 19.3455ZM91.6057 12.5745V13.1745H93.0543L92.03 12.1503L91.6057 12.5745ZM91.5898 12.5586L92.0141 12.1343L91.5898 11.7101L91.1655 12.1343L91.5898 12.5586ZM91.5739 12.5745L91.1496 12.1503L90.1254 13.1745H91.5739V12.5745ZM78 13.1745H78.0319V11.9745H78V13.1745ZM77.5917 12.9829L77.6076 12.9988L78.4561 12.1503L78.4402 12.1343L77.5917 12.9829ZM78.4243 12.9988L78.4402 12.9829L77.5917 12.1343L77.5757 12.1503L78.4243 12.9988ZM77.9532 13.0959V17.7503H79.1532V13.0959H77.9532ZM85.2271 23.5757L78.9775 17.326L78.1289 18.1745L84.3786 24.4242L85.2271 23.5757ZM90.6602 17.2941L84.3786 23.5757L85.2271 24.4242L91.5087 18.1426L90.6602 17.2941ZM90.4845 13.0639V17.7184H91.6845V13.0639H90.4845ZM85.2271 19.7698L91.5087 13.4882L90.6602 12.6397L84.3786 18.9213L85.2271 19.7698ZM78.1289 13.5201L84.3786 19.7698L85.2271 18.9213L78.9775 12.6716L78.1289 13.5201ZM92.03 12.1503L92.0141 12.1343L91.1655 12.9829L91.1815 12.9988L92.03 12.1503ZM91.5739 13.1745H91.6057V11.9745H91.5739V13.1745ZM91.1655 12.1343L91.1496 12.1503L91.9981 12.9988L92.0141 12.9829L91.1655 12.1343Z" fill="white" mask="url(#path-59-inside-8_1600_83890)"/>
<rect x="192.987" y="72.9156" width="23.6718" height="23.6718" stroke="white" stroke-width="0.6"/>
<mask id="path-62-inside-9_1600_83890" fill="white">
<path fill-rule="evenodd" clip-rule="evenodd" d="M197.591 75.2316H197.623L197.607 75.2158L197.591 75.2316ZM198.144 75.753V80.4078L204.394 86.6574L210.675 80.3756V75.7208L204.394 82.0026L198.144 75.753ZM211.18 75.2158L211.196 75.2316H211.165L211.18 75.2158Z"/>
</mask>
<path d="M197.591 75.2316L197.167 74.8073L196.143 75.8316H197.591V75.2316ZM197.623 75.2316V75.8316H199.071L198.047 74.8073L197.623 75.2316ZM197.607 75.2158L198.031 74.7916L197.607 74.3673L197.183 74.7916L197.607 75.2158ZM198.144 75.753L198.568 75.3287L197.544 74.3044V75.753H198.144ZM198.144 80.4078H197.544V80.6563L197.72 80.832L198.144 80.4078ZM204.394 86.6574L203.969 87.0816L204.394 87.5059L204.818 87.0816L204.394 86.6574ZM210.675 80.3756L211.1 80.7999L211.275 80.6241V80.3756H210.675ZM210.675 75.7208H211.275V74.2723L210.251 75.2966L210.675 75.7208ZM204.394 82.0026L203.969 82.4268L204.394 82.8511L204.818 82.4268L204.394 82.0026ZM211.196 75.2316V75.8316H212.645L211.62 74.8073L211.196 75.2316ZM211.18 75.2158L211.605 74.7916L211.18 74.3673L210.756 74.7916L211.18 75.2158ZM211.165 75.2316L210.74 74.8073L209.716 75.8316H211.165V75.2316ZM197.591 75.8316H197.623V74.6316H197.591V75.8316ZM197.183 75.6401L197.198 75.6559L198.047 74.8073L198.031 74.7916L197.183 75.6401ZM198.015 75.6559L198.031 75.6401L197.183 74.7916L197.167 74.8073L198.015 75.6559ZM197.544 75.753V80.4078H198.744V75.753H197.544ZM204.818 86.2331L198.568 79.9835L197.72 80.832L203.969 87.0816L204.818 86.2331ZM210.251 79.9513L203.969 86.2331L204.818 87.0816L211.1 80.7999L210.251 79.9513ZM210.075 75.7208V80.3756H211.275V75.7208H210.075ZM204.818 82.4268L211.1 76.1451L210.251 75.2966L203.969 81.5783L204.818 82.4268ZM197.72 76.1772L203.969 82.4268L204.818 81.5783L198.568 75.3287L197.72 76.1772ZM211.62 74.8073L211.605 74.7916L210.756 75.6401L210.772 75.6559L211.62 74.8073ZM211.165 75.8316H211.196V74.6316H211.165V75.8316ZM210.756 74.7916L210.74 74.8073L211.589 75.6559L211.605 75.6401L210.756 74.7916Z" fill="white" mask="url(#path-62-inside-9_1600_83890)"/>
<mask id="path-64-inside-10_1600_83890" fill="white">
<path fill-rule="evenodd" clip-rule="evenodd" d="M197.591 82.7904H197.623L197.607 82.7744L197.591 82.7904ZM198.144 83.3116V87.9662L204.394 94.2158L210.675 87.9342V83.2797L204.394 89.5613L198.144 83.3116ZM211.181 82.7744L211.197 82.7904H211.165L211.181 82.7744Z"/>
</mask>
<path d="M197.591 82.7904L197.167 82.3661L196.142 83.3904H197.591V82.7904ZM197.623 82.7904V83.3904H199.071L198.047 82.3661L197.623 82.7904ZM197.607 82.7744L198.031 82.3501L197.607 81.9259L197.183 82.3501L197.607 82.7744ZM198.144 83.3116L198.568 82.8874L197.544 81.8631V83.3116H198.144ZM198.144 87.9662H197.544V88.2147L197.72 88.3904L198.144 87.9662ZM204.394 94.2158L203.969 94.6401L204.394 95.0644L204.818 94.6401L204.394 94.2158ZM210.675 87.9342L211.1 88.3585L211.275 88.1828V87.9342H210.675ZM210.675 83.2797H211.275V81.8312L210.251 82.8554L210.675 83.2797ZM204.394 89.5613L203.969 89.9856L204.394 90.4098L204.818 89.9856L204.394 89.5613ZM211.197 82.7904V83.3904H212.645L211.621 82.3661L211.197 82.7904ZM211.181 82.7744L211.605 82.3501L211.181 81.9259L210.756 82.3501L211.181 82.7744ZM211.165 82.7904L210.74 82.3661L209.716 83.3904H211.165V82.7904ZM197.591 83.3904H197.623V82.1904H197.591V83.3904ZM197.183 83.1987L197.199 83.2147L198.047 82.3661L198.031 82.3501L197.183 83.1987ZM198.015 83.2147L198.031 83.1987L197.183 82.3501L197.167 82.3661L198.015 83.2147ZM197.544 83.3116V87.9662H198.744V83.3116H197.544ZM204.818 93.7916L198.568 87.5419L197.72 88.3904L203.969 94.6401L204.818 93.7916ZM210.251 87.51L203.969 93.7916L204.818 94.6401L211.1 88.3585L210.251 87.51ZM210.075 83.2797V87.9342H211.275V83.2797H210.075ZM204.818 89.9856L211.1 83.704L210.251 82.8554L203.969 89.137L204.818 89.9856ZM197.72 83.7359L203.969 89.9856L204.818 89.137L198.568 82.8874L197.72 83.7359ZM211.621 82.3661L211.605 82.3501L210.756 83.1987L210.772 83.2147L211.621 82.3661ZM211.165 83.3904H211.197V82.1904H211.165V83.3904ZM210.756 82.3501L210.74 82.3661L211.589 83.2147L211.605 83.1987L210.756 82.3501Z" fill="white" mask="url(#path-64-inside-10_1600_83890)"/>
<rect x="168.916" y="121.059" width="23.6718" height="23.6718" stroke="white" stroke-width="0.6"/>
<mask id="path-67-inside-11_1600_83890" fill="white">
<path fill-rule="evenodd" clip-rule="evenodd" d="M173.519 123.375H173.551L173.535 123.359L173.519 123.375ZM174.072 123.896V128.551L180.322 134.801L186.604 128.519V123.865L180.322 130.146L174.072 123.896ZM187.109 123.359L187.125 123.375H187.093L187.109 123.359Z"/>
</mask>
<path d="M173.519 123.375L173.095 122.951L172.071 123.975H173.519V123.375ZM173.551 123.375V123.975H174.999L173.975 122.951L173.551 123.375ZM173.535 123.359L173.959 122.935L173.535 122.511L173.111 122.935L173.535 123.359ZM174.072 123.896L174.496 123.472L173.472 122.448V123.896H174.072ZM174.072 128.551H173.472V128.799L173.648 128.975L174.072 128.551ZM180.322 134.801L179.898 135.225L180.322 135.649L180.746 135.225L180.322 134.801ZM186.604 128.519L187.028 128.943L187.204 128.768V128.519H186.604ZM186.604 123.865H187.204V122.416L186.179 123.44L186.604 123.865ZM180.322 130.146L179.898 130.57L180.322 130.995L180.746 130.57L180.322 130.146ZM187.125 123.375V123.975H188.573L187.549 122.951L187.125 123.375ZM187.109 123.359L187.533 122.935L187.109 122.511L186.685 122.935L187.109 123.359ZM187.093 123.375L186.669 122.951L185.645 123.975H187.093V123.375ZM173.519 123.975H173.551V122.775H173.519V123.975ZM173.111 123.783L173.127 123.799L173.975 122.951L173.959 122.935L173.111 123.783ZM173.944 123.799L173.959 123.783L173.111 122.935L173.095 122.951L173.944 123.799ZM173.472 123.896V128.551H174.672V123.896H173.472ZM180.746 134.376L174.496 128.127L173.648 128.975L179.898 135.225L180.746 134.376ZM186.179 128.095L179.898 134.376L180.746 135.225L187.028 128.943L186.179 128.095ZM186.004 123.865V128.519H187.204V123.865H186.004ZM180.746 130.57L187.028 124.289L186.179 123.44L179.898 129.722L180.746 130.57ZM173.648 124.321L179.898 130.57L180.746 129.722L174.496 123.472L173.648 124.321ZM187.549 122.951L187.533 122.935L186.685 123.784L186.7 123.799L187.549 122.951ZM187.093 123.975H187.125V122.775H187.093V123.975ZM186.685 122.935L186.669 122.951L187.517 123.799L187.533 123.784L186.685 122.935Z" fill="white" mask="url(#path-67-inside-11_1600_83890)"/>
<mask id="path-69-inside-12_1600_83890" fill="white">
<path fill-rule="evenodd" clip-rule="evenodd" d="M173.519 130.934H173.551L173.535 130.918L173.519 130.934ZM174.072 131.455V136.109L180.322 142.359L186.603 136.078V131.423L180.322 137.705L174.072 131.455ZM187.109 130.918L187.125 130.934H187.093L187.109 130.918Z"/>
</mask>
<path d="M173.519 130.934L173.095 130.509L172.071 131.534H173.519V130.934ZM173.551 130.934V131.534H174.999L173.975 130.509L173.551 130.934ZM173.535 130.918L173.959 130.493L173.535 130.069L173.111 130.493L173.535 130.918ZM174.072 131.455L174.496 131.031L173.472 130.006V131.455H174.072ZM174.072 136.109H173.472V136.358L173.648 136.534L174.072 136.109ZM180.322 142.359L179.898 142.783L180.322 143.208L180.746 142.783L180.322 142.359ZM186.603 136.078L187.028 136.502L187.203 136.326V136.078H186.603ZM186.603 131.423H187.203V129.975L186.179 130.999L186.603 131.423ZM180.322 137.705L179.898 138.129L180.322 138.553L180.746 138.129L180.322 137.705ZM187.125 130.934V131.534H188.573L187.549 130.509L187.125 130.934ZM187.109 130.918L187.533 130.493L187.109 130.069L186.685 130.493L187.109 130.918ZM187.093 130.934L186.669 130.509L185.644 131.534H187.093V130.934ZM173.519 131.534H173.551V130.334H173.519V131.534ZM173.111 131.342L173.127 131.358L173.975 130.509L173.959 130.493L173.111 131.342ZM173.944 131.358L173.959 131.342L173.111 130.493L173.095 130.509L173.944 131.358ZM173.472 131.455V136.109H174.672V131.455H173.472ZM180.746 141.935L174.496 135.685L173.648 136.534L179.898 142.783L180.746 141.935ZM186.179 135.653L179.898 141.935L180.746 142.783L187.028 136.502L186.179 135.653ZM186.003 131.423V136.078H187.203V131.423H186.003ZM180.746 138.129L187.028 131.847L186.179 130.999L179.898 137.28L180.746 138.129ZM173.648 131.879L179.898 138.129L180.746 137.28L174.496 131.031L173.648 131.879ZM187.549 130.509L187.533 130.493L186.685 131.342L186.7 131.358L187.549 130.509ZM187.093 131.534H187.125V130.334H187.093V131.534ZM186.685 130.493L186.669 130.509L187.517 131.358L187.533 131.342L186.685 130.493Z" fill="white" mask="url(#path-69-inside-12_1600_83890)"/>
<path d="M169.216 0.7H168.916V1V24.0718V24.3718H169.216H192.287H192.587V24.0718V1V0.7H192.287H169.216Z" stroke="white" stroke-width="0.6"/>
<path d="M171.991 12.1713V12.4713H172.291H175.047H175.171L175.259 12.3834L179.759 7.88364L179.847 7.79577V7.67151V5.00293V4.70293H179.547H176.79H176.666L176.578 4.7908L172.078 9.29056L171.991 9.37843V9.50269V12.1713Z" stroke="#FCFCFC" stroke-width="0.6"/>
<path d="M179.542 21.0214H179.842V20.7214V18.0529V17.9286L179.754 17.8407L175.254 13.341L175.166 13.2531H175.042H172.287H171.987V13.5531V16.2217V16.3459L172.075 16.4338L176.575 20.9336L176.663 21.0214H176.787H179.542Z" stroke="#FCFCFC" stroke-width="0.6"/>
<path d="M188.287 12.4683H188.587V12.1683V9.49976V9.3755L188.499 9.28763L184 4.78787L183.912 4.7H183.788H181.031H180.731V5V7.66858V7.79284L180.819 7.88071L185.319 12.3805L185.407 12.4683H185.531H188.287Z" stroke="#FCFCFC" stroke-width="0.6"/>
<path d="M180.726 20.7214V21.0214H181.026H183.78H183.904L183.992 20.9336L188.492 16.4338L188.58 16.3459V16.2217V13.5531V13.2531H188.28H185.525H185.401L185.313 13.341L180.814 17.8407L180.726 17.9286V18.0529V20.7214Z" stroke="#FCFCFC" stroke-width="0.6"/>
<path d="M217.359 96.9874H217.059V97.2874V120.359V120.659H217.359H240.431H240.731V120.359V97.2874V96.9874H240.431H217.359Z" stroke="white" stroke-width="0.6"/>
<path d="M220.134 108.459V108.759H220.434H223.19H223.315L223.403 108.671L227.902 104.171L227.99 104.083V103.959V101.29V100.99H227.69H224.934H224.81L224.722 101.078L220.222 105.578L220.134 105.666V105.79V108.459Z" stroke="#FCFCFC" stroke-width="0.6"/>
<path d="M227.685 117.309H227.985V117.009V114.34V114.216L227.897 114.128L223.397 109.628L223.31 109.54H223.185H220.431H220.131V109.84V112.509V112.633L220.219 112.721L224.719 117.221L224.806 117.309H224.931H227.685Z" stroke="#FCFCFC" stroke-width="0.6"/>
<path d="M236.431 108.756H236.731V108.456V105.787V105.663L236.643 105.575L232.143 101.075L232.055 100.987H231.931H229.175H228.875V101.287V103.956V104.08L228.963 104.168L233.462 108.668L233.55 108.756H233.675H236.431Z" stroke="#FCFCFC" stroke-width="0.6"/>
<path d="M228.869 117.009V117.309H229.169H231.924H232.048L232.136 117.221L236.635 112.721L236.723 112.633V112.509V109.84V109.54H236.423H233.669H233.545L233.457 109.628L228.957 114.128L228.869 114.216V114.34V117.009Z" stroke="#FCFCFC" stroke-width="0.6"/>
<path d="M169.216 96.9874H168.916V97.2874V120.359V120.659H169.216H192.287H192.587V120.359V97.2874V96.9874H192.287H169.216Z" stroke="white" stroke-width="0.6"/>
<path d="M171.991 108.459V108.759H172.291H175.047H175.171L175.259 108.671L179.759 104.171L179.847 104.083V103.959V101.29V100.99H179.547H176.79H176.666L176.578 101.078L172.078 105.578L171.991 105.666V105.79V108.459Z" stroke="#FCFCFC" stroke-width="0.6"/>
<path d="M179.542 117.309H179.842V117.009V114.34V114.216L179.754 114.128L175.254 109.628L175.166 109.54H175.042H172.287H171.987V109.84V112.509V112.633L172.075 112.721L176.575 117.221L176.663 117.309H176.787H179.542Z" stroke="#FCFCFC" stroke-width="0.6"/>
<path d="M188.287 108.756H188.587V108.456V105.787V105.663L188.499 105.575L184 101.075L183.912 100.987H183.788H181.031H180.731V101.287V103.956V104.08L180.819 104.168L185.319 108.668L185.407 108.756H185.531H188.287Z" stroke="#FCFCFC" stroke-width="0.6"/>
<path d="M180.726 117.009V117.309H181.026H183.78H183.904L183.992 117.221L188.492 112.721L188.58 112.633V112.509V109.84V109.54H188.28H185.525H185.401L185.313 109.628L180.814 114.128L180.726 114.216V114.34V117.009Z" stroke="#FCFCFC" stroke-width="0.6"/>
<path d="M121 0.7H120.7V1V62C120.7 67.6885 125.311 72.3 131 72.3H144H144.3V72V1V0.7H144H121Z" stroke="white" stroke-width="0.6"/>
<path d="M124.703 13.1713V13.4713H125.003H127.759H127.884L127.972 13.3834L132.471 8.88364L132.559 8.79577V8.67151V6.00293V5.70293H132.259H129.503H129.379L129.291 5.7908L124.791 10.2906L124.703 10.3784V10.5027V13.1713Z" stroke="#FCFCFC" stroke-width="0.6"/>
<path d="M132.254 22.0214H132.554V21.7214V19.0529V18.9286L132.466 18.8407L127.967 14.341L127.879 14.2531H127.754H125H124.7V14.5531V17.2217V17.3459L124.788 17.4338L129.288 21.9336L129.375 22.0214H129.5H132.254Z" stroke="#FCFCFC" stroke-width="0.6"/>
<path d="M141 13.4683H141.3V13.1683V10.4998V10.3755L141.212 10.2876L136.712 5.78787L136.624 5.7H136.5H133.744H133.444V6V8.66858V8.79284L133.532 8.88071L138.032 13.3805L138.119 13.4683H138.244H141Z" stroke="#FCFCFC" stroke-width="0.6"/>
<path d="M133.438 21.7214V22.0214H133.738H136.493H136.617L136.705 21.9336L141.205 17.4338L141.292 17.3459V17.2217V14.5531V14.2531H140.992H138.238H138.114L138.026 14.341L133.526 18.8407L133.438 18.9286V19.0529V21.7214Z" stroke="#FCFCFC" stroke-width="0.6"/>
<path d="M193.287 48.8436H192.987V49.1436V72.2154V72.5154H193.287H216.359H216.659V72.2154V49.1436V48.8436H216.359H193.287Z" stroke="white" stroke-width="0.6"/>
<path d="M196.062 60.3148V60.6148H196.362H199.118H199.243L199.331 60.527L203.83 56.0272L203.918 55.9393V55.8151V53.1465V52.8465H203.618H200.862H200.738L200.65 52.9344L196.15 57.4341L196.062 57.522V57.6462V60.3148Z" stroke="#FCFCFC" stroke-width="0.6"/>
<path d="M203.613 69.1649H203.913V68.8649V66.1963V66.072L203.825 65.9842L199.325 61.4844L199.238 61.3965H199.113H196.359H196.059V61.6965V64.3651V64.4894L196.147 64.5772L200.647 69.077L200.734 69.1649H200.859H203.613Z" stroke="#FCFCFC" stroke-width="0.6"/>
<path d="M212.359 60.6119H212.659V60.3119V57.6433V57.5191L212.571 57.4312L208.071 52.9314L207.983 52.8436H207.859H205.103H204.803V53.1436V55.8121V55.9364L204.891 56.0243L209.39 60.524L209.478 60.6119H209.603H212.359Z" stroke="#FCFCFC" stroke-width="0.6"/>
<path d="M204.797 68.8649V69.1649H205.097H207.852H207.976L208.064 69.077L212.563 64.5772L212.651 64.4894V64.3651V61.6965V61.3965H212.351H209.597H209.473L209.385 61.4844L204.885 65.9842L204.797 66.072V66.1963V68.8649Z" stroke="#FCFCFC" stroke-width="0.6"/>
<path d="M49 0.7H48.7V1V41.5C48.7 48.017 53.983 53.3 60.5 53.3C67.017 53.3 72.3 48.017 72.3 41.5V1V0.7H72H49Z" stroke="white" stroke-width="0.6"/>
<path d="M52.7032 13.1713V13.4713H53.0032H55.7595H55.8838L55.9716 13.3834L60.4714 8.88364L60.5593 8.79577V8.67151V6.00293V5.70293H60.2593H57.5029H57.3787L57.2908 5.7908L52.791 10.2906L52.7032 10.3784V10.5027V13.1713Z" stroke="#FCFCFC" stroke-width="0.6"/>
<path d="M60.2542 22.0214H60.5542V21.7214V19.0529V18.9286L60.4663 18.8407L55.9665 14.341L55.8787 14.2531H55.7544H53H52.7V14.5531V17.2217V17.3459L52.7879 17.4338L57.2876 21.9336L57.3755 22.0214H57.4998H60.2542Z" stroke="#FCFCFC" stroke-width="0.6"/>
<path d="M69 13.4683H69.3V13.1683V10.4998V10.3755L69.2121 10.2876L64.7124 5.78787L64.6245 5.7H64.5002H61.7439H61.4439V6V8.66858V8.79284L61.5318 8.88071L66.0315 13.3805L66.1194 13.4683H66.2437H69Z" stroke="#FCFCFC" stroke-width="0.6"/>
<path d="M61.4383 21.7214V22.0214H61.7383H64.4927H64.617L64.7048 21.9336L69.2046 17.4338L69.2925 17.3459V17.2217V14.5531V14.2531H68.9925H66.238H66.1138L66.0259 14.341L61.5261 18.8407L61.4383 18.9286V19.0529V21.7214Z" stroke="#FCFCFC" stroke-width="0.6"/>
</svg>
